<?xml version="1.0" encoding="utf-8"?>
<!DOCTYPE svg PUBLIC "-//W3C//DTD SVG 1.0//EN" "http://www.w3.org/TR/2001/REC-SVG-20010904/DTD/svg10.dtd">
<svg version="1.0" xmlns="http://www.w3.org/2000/svg" width="195px" height="192px" viewBox="0 0 195 192" preserveAspectRatio="xMidYMid meet">
 <g fill="#ffffff">
  <path d="M0 96 l0 -96 97.50 0 97.50 0 0 96 0 96 -97.50 0 -97.50 0 0 -96z m86.65 91.10 c1.25 -2.15 0.80 -2 -0.90 0.20 -0.80 1 -1.10 1.75 -0.70 1.60 0.40 -0.15 1.10 -0.95 1.60 -1.80z m22.15 0 c-0.80 -0.75 -1.25 -1 -1.05 -0.60 0.65 1.25 1.90 2.50 2.20 2.25 0.15 -0.15 -0.40 -0.90 -1.15 -1.65z m-30.40 -6.15 c1.35 -0.45 1.50 -0.70 1.10 -1.45 -0.65 -1.25 -0.65 -4.65 0.05 -6.20 0.35 -0.65 1.20 -1.50 2 -1.80 l1.45 -0.60 -1.05 -1.45 c-1.35 -1.90 -1.95 -1.85 -1.95 0.30 l0 1.75 -2.35 0 c-1.35 0.05 -3.05 0.30 -3.85 0.65 l-1.45 0.65 2.35 2.05 c1.90 1.65 2.30 2.35 2.30 3.75 0 0.95 -0.25 1.95 -0.60 2.30 -0.75 0.75 -0.05 0.80 2 0.05z m40.10 0.10 c0 -0.30 -0.20 -0.65 -0.50 -0.80 -0.25 -0.15 -0.50 -1.05 -0.50 -1.90 0 -1.25 0.35 -1.85 1.80 -2.80 0.95 -0.65 2 -1.65 2.25 -2.15 0.40 -0.75 0.25 -1 -0.80 -1.40 -0.75 -0.30 -2.30 -0.50 -3.55 -0.50 -1.95 0 -2.20 -0.15 -2.20 -1.10 0 -2.20 -0.75 -2.60 -1.90 -1.15 l-1.10 1.35 1.65 1.10 c1.55 1.10 1.60 1.15 1.60 4.95 0 3.65 0.05 3.85 1.25 4.30 1.65 0.65 2 0.65 2 0.10z m-54.70 -4.85 c0.90 -0.25 1 -0.55 0.80 -3.25 -0.25 -3.45 0.60 -5.25 2.95 -6.05 l1.45 -0.50 -1.05 -1.45 c-1.15 -1.65 -1.95 -1.50 -1.95 0.35 0 1.10 -0.20 1.20 -2.20 1.20 -2.80 0 -5.30 0.50 -5.30 1.05 0 0.25 0.90 1.30 2 2.40 1.45 1.40 2 2.35 2 3.45 0 0.85 -0.20 1.70 -0.50 1.85 -0.25 0.15 -0.50 0.50 -0.50 0.80 0 0.50 0.75 0.55 2.30 0.15z m69.30 -0.30 c-0.35 -0.35 -0.60 -1.40 -0.60 -2.35 0 -1.40 0.45 -2.20 2.10 -3.90 1.15 -1.15 1.95 -2.30 1.75 -2.45 -0.15 -0.20 -1.90 -0.45 -3.80 -0.60 -3.45 -0.25 -3.50 -0.25 -3.85 -1.75 l-0.30 -1.55 -1.20 1.40 c-1.45 1.65 -1.50 2.30 -0.25 2.30 2.60 0 4.30 4.05 3.15 7.45 -0.45 1.35 -0.40 1.50 0.55 1.70 2.35 0.45 3.10 0.40 2.45 -0.25z m-82.10 -9.65 c0 -3.50 0.70 -4.50 3.40 -5.05 1.80 -0.35 1.95 -0.95 0.80 -2.60 -0.90 -1.25 -1.70 -1.05 -1.70 0.50 0 1 -0.20 1.05 -4 0.75 -4.60 -0.35 -4.85 -0.05 -2.50 2.65 1.70 2 2.05 4.95 0.70 6.05 -0.70 0.60 -0.70 0.70 0.10 0.95 0.50 0.20 1.40 0.25 2.05 0.10 1.05 -0.20 1.15 -0.45 1.15 -3.35z m96.05 2.60 c-1.10 -1.10 -0.60 -4.25 0.95 -6.45 0.85 -1.10 1.50 -2.25 1.50 -2.50 0 -0.25 -1.80 -0.25 -3.95 -0.10 l-4 0.35 -0.35 -1.35 c-0.40 -1.75 -0.85 -1.65 -1.85 0.40 l-0.80 1.70 1.75 0.35 c2.80 0.50 3.70 1.75 3.70 5.20 0 2.70 0.10 3 1.15 3.15 1.60 0.30 2.55 -0.10 1.90 -0.75z m-42.85 -6.40 c26.30 -10.40 46.70 -33.95 57 -65.70 4.50 -14 6.95 -28 7.75 -45 0.45 -8.35 0.05 -23.85 -0.70 -30 l-0.35 -2.55 -12.30 0 c-9.60 0.05 -13.55 -0.15 -17.60 -0.85 -14.05 -2.40 -27.45 -7.20 -37.30 -13.40 -1.65 -1.10 -3.20 -1.95 -3.40 -1.95 -0.20 0 -1.35 0.70 -2.60 1.50 -5.50 3.80 -17.25 8.90 -25.70 11.20 -10.90 2.90 -15.25 3.45 -29.25 3.50 l-13 0.05 -0.35 3.75 c-1.70 19.75 -0.55 42.05 3.15 58.75 8.05 36.60 27.15 63.90 54.20 77.50 7.85 3.95 12.60 5.75 14.20 5.45 0.70 -0.15 3.50 -1.15 6.25 -2.25z m-66.05 -4.55 c0.40 -3.30 1.55 -4.40 4.70 -4.40 2.05 0 2.20 -0.10 1.90 -1.10 -0.20 -0.65 -0.45 -1.55 -0.55 -2 -0.35 -1.20 -1.05 -1.15 -1.45 0.10 -0.40 1.25 -3.05 1.35 -6.10 0.20 -1.20 -0.45 -2.30 -0.70 -2.45 -0.55 -0.15 0.15 0.20 1.35 0.75 2.60 1.25 2.80 1.35 5.40 0.30 6.25 -0.95 0.80 -0.20 1.50 1.55 1.50 0.90 0 1.10 -0.40 1.35 -2.60z m121.80 2.15 c0.55 -0.35 0.45 -0.55 -0.40 -1 -1.45 -0.80 -1.35 -3.15 0.20 -6.25 0.70 -1.35 1.15 -2.55 1.05 -2.70 -0.15 -0.10 -1.30 0.15 -2.60 0.60 -3.40 1.15 -5.40 1.05 -6.35 -0.30 l-0.75 -1.15 -0.55 1.40 c-0.95 2.45 -0.75 2.85 1.55 2.85 3 0 4.40 1.45 4.40 4.60 0 2.30 0.05 2.40 1.40 2.40 0.75 0 1.65 -0.20 2.05 -0.45z m-132.45 -12.55 c0 -2.85 1.40 -4 4.85 -4 2.55 0 2.65 -0.05 2.65 -1.35 0 -0.80 -0.20 -1.75 -0.50 -2.15 -0.40 -0.60 -0.50 -0.60 -0.80 0.15 -0.40 1.10 -4 1.15 -5.55 0.10 -0.55 -0.40 -1.65 -0.95 -2.40 -1.25 -1.35 -0.50 -1.35 -0.50 -1 1.35 0.15 1.05 0.55 2.10 0.80 2.40 0.25 0.25 0.45 1.20 0.45 2.10 0 1.20 -0.35 1.85 -1.35 2.50 l-1.30 0.85 1.45 0.65 c2.35 1 2.70 0.85 2.70 -1.35z m142.20 1.50 c1.55 -0.55 1.65 -1.30 0.30 -1.75 -1.25 -0.40 -1.30 -2.40 -0.25 -5.95 0.40 -1.35 0.70 -2.55 0.60 -2.65 -0.10 -0.05 -1.30 0.40 -2.65 1.10 -2.90 1.45 -5.95 1.65 -6.40 0.40 -0.45 -1.10 -1.10 -0.35 -1.55 1.75 l-0.35 1.60 2.85 0 c3.50 0 5.25 1.40 5.25 4.25 0 1.90 0.25 2 2.20 1.25z m-151.20 -14.55 c0 -0.40 0.50 -1.25 1.05 -1.90 0.95 -1 1.45 -1.10 4.20 -0.95 l3.20 0.15 0.20 -1.50 c0.30 -1.80 -0.05 -2.55 -0.80 -1.80 -1.15 1.15 -3.80 0.60 -6.15 -1.20 -1.30 -1 -2.45 -1.65 -2.60 -1.50 -0.15 0.15 -0.25 1.90 -0.20 3.95 0.10 3.55 0.05 3.70 -1.15 4 -1.65 0.40 -1.60 1.10 0.10 2 1.45 0.75 2.15 0.35 2.15 -1.25z m161.20 0.10 c0.20 -0.25 -0.40 -0.60 -1.25 -0.80 l-1.55 -0.35 0.35 -3.70 c0.40 -4.30 -0.10 -4.70 -2.90 -2.20 -1.35 1.15 -2.20 1.50 -3.80 1.50 -1.10 0 -2.05 -0.20 -2.05 -0.50 0 -0.25 -0.20 -0.50 -0.50 -0.50 -0.25 0 -0.50 0.85 -0.50 1.90 l0 1.85 3.25 -0.15 c2.90 -0.15 3.35 -0.05 4.50 1.10 0.70 0.70 1.25 1.85 1.25 2.55 0 1.25 0.05 1.25 1.45 0.50 0.85 -0.40 1.60 -0.95 1.75 -1.20z m-168.15 -14.65 c0.35 -0.65 0.95 -1.40 1.40 -1.75 1 -0.75 5.25 -0.85 6.60 -0.15 0.80 0.45 1.05 0.35 1.45 -0.75 0.75 -2 0.65 -2.10 -1.85 -1.90 -2.30 0.20 -2.45 0.15 -3.60 -1.60 -0.65 -1 -1.60 -2 -2.10 -2.25 -0.70 -0.40 -0.90 -0.15 -1.40 1.75 -0.30 1.20 -0.55 2.75 -0.55 3.40 0 1 -0.30 1.30 -1.80 1.60 l-1.80 0.30 1.15 1.25 c1.40 1.50 1.75 1.50 2.50 0.10z m174.30 -0.10 l1.40 -1.25 -2.10 -0.35 c-2.15 -0.35 -2.15 -0.35 -2.15 -2.50 0 -1.15 -0.25 -2.75 -0.55 -3.55 l-0.55 -1.40 -2.10 2.40 c-1.75 1.95 -2.40 2.35 -3.85 2.35 -0.95 0 -2 -0.25 -2.35 -0.60 -0.75 -0.75 -0.75 -0.60 0.05 1.70 0.50 1.40 0.80 1.75 1.35 1.35 0.40 -0.25 1.90 -0.45 3.30 -0.45 2.70 0 5.20 1.35 5.20 2.80 0 1.05 0.75 0.85 2.35 -0.50z m-173.95 -17.05 c2.15 0.05 3.30 0.30 4 0.90 0.90 0.80 0.95 0.75 1.70 -0.85 l0.80 -1.65 -2.10 0.20 c-2.05 0.25 -2.10 0.20 -3 -1.80 -0.50 -1.10 -1.35 -2.40 -1.85 -2.85 -0.90 -0.80 -1 -0.75 -1.95 1.35 -0.55 1.20 -1 2.60 -1 3.10 0 0.65 -0.45 0.85 -2 0.85 -1.10 0 -2 0.10 -2 0.25 0 0.15 0.50 0.95 1.05 1.75 l1.05 1.40 1.15 -1.30 c1.05 -1.20 1.55 -1.35 4.15 -1.35z m177.60 0.90 l1.10 -1.40 -2.15 -0.25 c-1.70 -0.20 -2.25 -0.50 -2.35 -1.25 -0.20 -1.35 -1.70 -4.75 -2.05 -4.75 -0.35 0 -2.40 2.95 -2.85 4.15 -0.20 0.65 -0.85 0.85 -2.50 0.85 -2.40 0 -2.60 0.25 -1.40 1.90 0.70 1.05 0.85 1.05 2.20 0.35 0.80 -0.40 2.25 -0.75 3.25 -0.75 1.90 0 4.75 1.20 4.75 2 0 0.90 0.90 0.50 2 -0.85z m-173.40 -16.55 c-1.60 -0.10 -2.10 -0.40 -2.35 -1.25 -0.70 -2.45 -1.95 -4.85 -2.45 -4.70 -0.30 0.10 -1.20 1.35 -2 2.80 -1.40 2.55 -1.45 2.65 -3.35 2.45 -2.20 -0.20 -2.25 -0.15 -1.05 1.70 0.85 1.30 0.85 1.30 2.05 0.35 2.05 -1.70 7.05 -1.10 8.25 0.95 0.40 0.65 0.65 0.55 1.70 -0.70 l1.30 -1.45 -2.10 -0.15z m167.80 0.40 c1.30 0.05 2.90 0.35 3.60 0.75 1.70 1 1.85 0.95 2.70 -0.60 l0.70 -1.40 -2.15 0.15 c-2.05 0.20 -2.15 0.10 -2.70 -1.50 -0.30 -0.90 -1 -2.20 -1.55 -2.90 -1 -1.25 -1 -1.25 -1.80 -0.25 -0.40 0.55 -1 1.95 -1.35 3.15 -0.55 2 -0.65 2.10 -2.45 2.10 -2.15 0 -2.25 0.10 -1.05 1.70 l0.90 1.20 1.40 -1.20 c1.05 -0.90 2 -1.20 3.75 -1.20z"/>
  <path d="M90.45 158.50 c-19.65 -7.85 -35.50 -23.30 -45.95 -44.75 -7.10 -14.55 -11.05 -28.55 -13.25 -46.75 -0.95 -7.80 -1.50 -31.45 -0.90 -38.50 l0.40 -4.75 9 -0.05 c12.75 -0.10 24 -2 36 -6.20 5.05 -1.75 13.65 -5.75 17.35 -8 3.55 -2.20 5.10 -2 10.80 1.20 5.45 3.05 13.75 6.55 20.10 8.50 10.60 3.20 25.65 5.15 34.85 4.55 l5.10 -0.35 0.25 1.70 c0.50 3.35 0.65 18.40 0.25 28.50 -2 49.55 -22.30 87.15 -55.55 102.90 -9.95 4.70 -11.45 4.85 -18.45 2z m10.80 -22.10 c-0.15 -0.65 -0.50 -2.15 -0.75 -3.40 -0.65 -2.60 -1.30 -23.25 -0.85 -25.10 0.25 -0.90 1 -1.50 2.70 -2.15 4.25 -1.60 7.20 -3.25 9.50 -5.40 2.10 -1.95 4.50 -5.65 3.95 -6.20 -0.10 -0.15 -0.55 0.40 -0.95 1.20 -2.10 3.90 -7.05 6.80 -11.85 6.85 l-3.25 0.05 -0.35 -3 c-0.20 -1.65 -0.55 -6.80 -0.75 -11.45 -0.25 -5.50 -0.60 -8.55 -0.95 -8.65 -0.95 -0.30 -1.20 1.70 -1.20 9.15 0 3.90 -0.15 7.80 -0.30 8.65 -0.30 1.40 -0.50 1.55 -2.25 1.55 -2.70 0 -9 -2.10 -11.90 -3.95 -1.35 -0.90 -3.50 -2.70 -4.75 -4.05 -2.75 -2.90 -3 -2.55 -0.55 0.65 2.70 3.50 6.90 6.70 12.55 9.40 2.80 1.35 5.50 2.95 5.90 3.55 1.40 2 0.80 21.15 -0.95 29.50 -0.40 1.90 -0.75 3.55 -0.75 3.70 0 0.10 1.80 0.20 4 0.20 3.90 0 4 -0.05 3.75 -1.10z m-29.60 -32.25 c-1 -0.40 -0.80 -4 0.25 -4.60 0.75 -0.45 0.75 -0.50 0.05 -0.55 -0.95 0 -5.55 3 -5.80 3.80 -0.10 0.30 1 0.75 2.45 1.05 3.10 0.60 3.90 0.65 3.05 0.30z m59 -5 c-1.85 -2.25 -1.90 -2.30 -2.05 -1 -0.15 1.10 -0.45 1.30 -2 1.45 l-1.85 0.15 1.50 0.85 c0.85 0.50 2.60 0.85 3.90 0.90 l2.40 0 -1.90 -2.35z m-65.40 -3.40 c-0.25 -0.10 -1.10 -0.30 -1.85 -0.45 -1.25 -0.30 -1.40 -0.55 -1.40 -2.30 0 -1.75 0.25 -2.15 1.65 -3.05 1.35 -0.85 1.40 -0.95 0.35 -0.65 -2.75 0.75 -3.65 1.30 -6.10 3.55 l-2.55 2.40 3.20 0.30 c3.75 0.35 7.40 0.45 6.70 0.20z m76.80 -7.35 c0.25 -1.10 0.45 -2.05 0.35 -2.10 -0.10 -0.05 -1.50 0.65 -3.15 1.55 -2.90 1.55 -2.95 1.60 -1.35 1.65 1.45 0 1.60 0.15 1.60 1.65 l0.05 1.60 0.95 -1.15 c0.55 -0.65 1.25 -2.10 1.55 -3.20z m-25.05 -6.80 c0.55 -1.45 1 -3.75 1 -5.15 l0 -2.50 -2.10 1.45 c-1.20 0.80 -3.45 2.20 -5.05 3.15 -3.05 1.80 -5.65 4.05 -3.60 3.20 0.55 -0.25 2 -0.45 3.25 -0.45 l2.25 -0.05 0.15 2.10 c0.10 1.25 -0.20 2.75 -0.70 3.75 -0.80 1.60 -0.75 1.60 1.50 -0.60 1.45 -1.40 2.65 -3.20 3.30 -4.90z m13.10 5.35 c1.40 -1 4.40 -4.70 4.40 -5.40 0 -0.40 -7.85 0.15 -8.30 0.55 -0.15 0.15 0.40 0.45 1.25 0.65 1.40 0.30 1.55 0.50 1.55 2.20 0 1 -0.25 2.10 -0.60 2.45 -0.95 0.95 0.10 0.70 1.70 -0.45z m-47.85 -3 c-0.45 -0.80 -0.75 -2.35 -0.65 -3.35 0.15 -1.65 0.30 -1.85 1.70 -2 0.85 -0.10 2.55 0.20 3.75 0.60 l2.20 0.75 -2.35 -2.20 c-2.70 -2.45 -6 -3.75 -9.35 -3.75 -2.90 0 -3.90 0.55 -2.75 1.50 0.45 0.40 1.70 2.05 2.80 3.75 1.80 2.65 4.80 6.25 5.25 6.25 0.10 0 -0.20 -0.70 -0.60 -1.55z m-20.90 -1.10 c-1.20 -0.95 -1.40 -1.40 -1.25 -3.10 l0.15 -2 2.75 -0.25 2.75 -0.30 -2.45 -1.15 c-2.90 -1.40 -5.30 -1.25 -9.05 0.40 -2.25 1.05 -2.40 1.20 -1.40 1.55 0.60 0.25 2.95 1.70 5.15 3.25 4.10 2.80 5.90 3.65 3.35 1.60z m73.20 -9.25 c1.35 -1.20 2.85 -2.90 3.25 -3.75 l0.80 -1.50 -4.40 0.30 c-5.35 0.30 -7.50 0.95 -4.45 1.35 1.90 0.25 2 0.35 2.15 2.20 0.15 1.45 -0.10 2.20 -0.90 3.10 l-1.10 1.15 1.05 -0.30 c0.60 -0.15 2.20 -1.30 3.60 -2.55z m-45.75 -5.70 l-0.05 -3.15 2.05 -0.15 c1.65 -0.10 2.40 0.10 3.70 1.20 l1.65 1.40 -0.40 -1.25 c-1.10 -3.65 -4.75 -6.95 -10.05 -8.95 -1.10 -0.45 -1.25 -0.40 -0.95 0.45 0.15 0.50 0.60 2.75 1 5.05 0.60 3.35 2.40 8.50 2.95 8.50 0.10 0 0.10 -1.40 0.10 -3.10z m22.45 0.50 c0.70 -1.45 1.25 -3.35 1.25 -4.20 0 -1.55 -1.70 -7.10 -2.40 -7.80 -0.20 -0.20 -1.35 1 -2.50 2.75 -1.20 1.70 -2.80 4 -3.60 5.10 -1.85 2.60 -2.50 4.65 -0.70 2.40 1.10 -1.40 1.60 -1.65 3.45 -1.65 2.45 0 2.75 0.40 2.75 3.80 0 1.20 0.10 2.20 0.25 2.20 0.15 0 0.85 -1.20 1.50 -2.60z m-47.30 -4.60 l2.70 0 -1.85 -1.60 c-1.80 -1.55 -5.55 -3.20 -7.30 -3.20 -0.65 0 -0.45 0.80 1.20 4.15 2 4.10 2 4.10 2.25 2.35 l0.30 -1.75 2.70 0.05z m11.65 -3.80 c1.45 0 2.45 0.35 3.30 1.15 l1.25 1.10 -0.80 -1.55 c-1.05 -2 -4.35 -5 -6.65 -5.95 -1 -0.40 -1.85 -0.75 -1.95 -0.75 -0.20 0 1.30 7.35 1.90 9 l0.60 1.75 0.15 -2.35 0.15 -2.40 2.05 0z m50.90 -1.60 c0 -1.50 -1.90 -6.90 -2.40 -6.90 -0.20 0 -0.95 1.10 -1.70 2.40 -0.75 1.30 -1.85 3.15 -2.45 4.10 -0.60 0.95 -0.80 1.45 -0.45 1.15 0.40 -0.35 1.65 -0.65 2.85 -0.65 l2.15 0 0.05 2.65 0.05 2.60 0.95 -2 c0.50 -1.10 0.95 -2.60 0.95 -3.35z m11.75 -3.55 l-0.30 -1.65 -2 1.80 c-2 1.75 -2 1.75 -0.75 1.90 1.10 0.15 1.30 0.40 1.35 2 l0.05 1.85 0.95 -2.15 c0.70 -1.45 0.90 -2.65 0.70 -3.75z m-42.95 -5.20 c0.20 -1.50 0.40 -1.65 2.15 -1.65 1.90 0 3.50 1.25 5 3.75 0.95 1.65 0.10 -2.15 -0.95 -4.25 -1.10 -2.20 -4.70 -5.60 -7.35 -6.90 l-1.90 -1 0.45 5.60 c0.20 3.05 0.75 6.35 1.20 7.30 l0.80 1.75 0.15 -1.50 c0.10 -0.80 0.30 -2.25 0.45 -3.10z m-14.15 -3.75 c0.35 -0.20 1.15 -0.40 1.85 -0.40 l1.25 -0.05 -1.45 -0.75 c-1.50 -0.85 -4 -1.05 -5.80 -0.45 -1.05 0.35 -1 0.45 1.05 2.60 l2.20 2.20 0.15 -1.40 c0.10 -0.75 0.45 -1.55 0.75 -1.75z m31.35 0.60 c0 -0.80 0.35 -1 1.90 -1 1.05 0 2.15 0.25 2.50 0.60 0.45 0.45 0.60 0.45 0.60 -0.05 0 -0.70 -4.80 -5.90 -5.15 -5.55 -0.55 0.60 -0.90 7 -0.40 7 0.30 0 0.55 -0.45 0.55 -1z"/>
 </g>
 <g fill="#018f36">
  <path d="M102 180.75 c0 -0.45 -0.45 -0.75 -1.20 -0.75 -0.65 0 -1.30 -0.25 -1.40 -0.50 -0.10 -0.30 -1.55 -0.60 -3.25 -0.65 -1.70 0 -2.95 -0.25 -2.85 -0.45 0.30 -0.45 -1.10 -0.80 -5.05 -1.30 -3.40 -0.40 -4.35 -1.65 -2 -2.70 1.55 -0.70 6.70 0 9.30 1.30 1.50 0.75 1.80 0.75 4.15 -0.15 1.40 -0.50 3.50 -1.10 4.70 -1.30 1.90 -0.30 2.10 -0.25 2.10 0.65 0 1.35 -1.30 2.60 -2.65 2.60 -0.60 0 -1.40 0.20 -1.80 0.45 -0.55 0.35 -0.35 0.60 0.80 1.20 0.80 0.45 1.75 1.15 2.10 1.55 0.60 0.70 0.45 0.80 -1.15 0.80 -1.25 0 -1.80 -0.20 -1.80 -0.75z"/>
  <path d="M113.85 176.85 c0.20 -1.55 0.05 -2.30 -0.55 -2.80 -1.30 -1.10 -0.95 -1.40 2.45 -2.05 1.95 -0.35 3.45 -0.95 3.70 -1.40 0.40 -0.65 0.75 -0.70 2.35 -0.20 3.40 1.05 3.55 1.30 2.15 3.30 -0.65 1 -1.60 1.80 -2.05 1.80 -0.45 0 -2 0.25 -3.40 0.55 -2.15 0.45 -2.50 0.70 -2.50 1.75 0 0.95 -0.25 1.20 -1.20 1.20 -1.10 0 -1.15 -0.15 -0.95 -2.15z"/>
  <path d="M74.50 175.90 c-1.45 -0.30 -2.65 -0.95 -3.35 -1.80 -1.45 -1.70 -1.45 -2.30 0 -2.95 0.90 -0.40 2.15 -0.30 5.15 0.40 2.15 0.50 4.60 0.95 5.40 0.95 l1.50 0 -1.05 1 c-0.60 0.50 -1.20 1.40 -1.40 2 -0.35 1.15 -2.25 1.25 -6.25 0.40z"/>
  <path d="M60.70 171.60 c-2.50 -1.05 -3.20 -1.60 -4.35 -3.55 -0.85 -1.45 -0.85 -1.50 0 -2 0.50 -0.25 1.75 -0.60 2.80 -0.80 1.45 -0.30 1.85 -0.20 1.85 0.40 0 0.70 4.40 2.85 5.85 2.85 0.40 0 0.65 0.15 0.55 0.40 -0.15 0.20 -0.55 1.10 -0.90 2 -0.60 1.30 -1 1.60 -2.25 1.55 -0.80 0 -2.45 -0.40 -3.55 -0.85z"/>
  <path d="M128.70 171.25 c-0.15 -0.65 -0.60 -1.50 -1 -1.80 -0.60 -0.50 -0.10 -0.85 2.90 -2 2 -0.80 4 -1.60 4.40 -1.85 0.90 -0.50 4 0.20 4 0.95 0 1.70 -1.65 3.40 -4.50 4.60 -3.95 1.70 -5.40 1.75 -5.80 0.10z"/>
  <path d="M48.50 165.70 c-3.10 -1.75 -4.35 -3.05 -5.05 -5.10 -0.45 -1.40 -0.45 -1.80 0.10 -2.15 1.30 -0.80 2.50 -0.45 5.85 1.80 1.85 1.25 3.60 2.25 3.95 2.25 0.85 0 0.80 0.75 -0.10 1.50 -0.40 0.35 -0.75 1.15 -0.75 1.80 0 1.55 -1.10 1.55 -4 -0.10z"/>
  <path d="M92 165.20 c-5.60 -2.05 -16.05 -7.55 -20.95 -11.05 -31.60 -22.70 -48.40 -64.75 -46.85 -117.40 0.35 -11.70 0.85 -19 1.35 -19.45 0.15 -0.15 2.95 -0.05 6.25 0.25 14.25 1.30 31.30 -1.10 44.90 -6.35 6.05 -2.35 13.80 -6.30 17.70 -9 1.80 -1.25 3.40 -2.05 3.55 -1.80 0.15 0.25 1.90 1.50 3.80 2.70 16.55 10.65 40.20 16.25 60.95 14.45 3.55 -0.30 6.50 -0.50 6.60 -0.40 0.60 0.55 1.30 15 1.30 25.85 0 17.50 -1.25 29 -4.65 43.50 -9.10 38.80 -31.75 67.10 -62.85 78.50 -4.90 1.75 -6.75 1.80 -11.10 0.20z m10.65 -8.05 c33.85 -13.75 55.35 -48.25 59.85 -96.15 0.60 -6.10 0.75 -32.55 0.25 -34.65 -0.30 -1.20 -0.40 -1.20 -4.90 -0.95 -9.35 0.45 -25.05 -1.60 -35.35 -4.70 -6.40 -1.95 -14.65 -5.45 -20.20 -8.55 l-4.90 -2.80 -1.85 1.10 c-3.65 2.25 -13.95 7.05 -18.30 8.55 -11.75 4.10 -23.05 6.05 -36 6.30 l-9 0.15 -0.40 4.65 c-0.60 6.65 -0.05 27.45 0.90 35.40 2.15 18.10 6.15 32.20 13.25 46.75 10.45 21.45 26.25 36.85 45.95 44.80 5.30 2.10 5.70 2.10 10.70 0.10z"/>
  <path d="M91.25 137.90 c2.75 -8.70 4.35 -29.60 2.50 -32.25 -0.45 -0.65 -3.35 -2.40 -6.50 -3.90 -8.75 -4.30 -14.25 -10.05 -14.25 -14.90 0 -1 0.35 -2 0.80 -2.40 0.75 -0.60 1 -0.50 1.90 0.80 2.20 3.10 5.15 6 7.85 7.75 2.85 1.85 10.20 4.40 10.85 3.75 0.20 -0.20 0.45 -4.40 0.60 -9.40 0.15 -5 0.45 -9.40 0.65 -9.70 0.55 -0.85 3.10 -0.85 3.70 0 0.30 0.30 0.70 4.55 0.90 9.35 0.20 4.80 0.50 9.90 0.70 11.25 l0.30 2.50 1.85 -0.10 c4.15 -0.25 9.25 -4.15 11.20 -8.55 1 -2.40 1.30 -2.50 2.70 -1.10 1.30 1.30 1.25 3.20 -0.20 6.25 -1.90 4.15 -5.75 7.20 -12.40 9.80 -1.45 0.55 -2.80 1.30 -3 1.60 -0.55 0.85 -0.50 13.85 0.10 18.85 0.45 3.75 1 6.35 2.25 10.40 l0.35 1.10 -6.60 0 -6.60 0 0.35 -1.10z"/>
  <path d="M69.50 105.70 c-1.80 -0.40 -4.10 -0.65 -5.10 -0.50 -2.25 0.25 -2.35 -0.20 -0.60 -2.75 3.45 -5 9.10 -6.50 14.35 -3.85 2.35 1.20 2.35 1.75 -0.05 1.50 -2.05 -0.20 -5.60 1 -5.60 1.85 0 0.75 2.10 1.15 4.90 0.95 2.85 -0.20 3 0.50 0.45 2.05 -2.30 1.35 -4.65 1.55 -8.35 0.75z"/>
  <path d="M128.25 103.20 c-0.55 -0.15 -1.50 -0.35 -2.10 -0.50 -2.35 -0.50 -5.40 -3.95 -6.40 -7.20 l-0.35 -1.25 1.15 1.05 c2.45 2.20 6.45 3.50 6.45 2.15 0 -0.65 -3.20 -3.90 -4.75 -4.80 -0.90 -0.50 -0.75 -0.60 1.05 -0.60 2.85 -0.05 5.65 1.65 8.65 5.30 1.40 1.70 3 3.20 3.55 3.40 0.55 0.15 1 0.50 1 0.70 0 1 -6 2.25 -8.25 1.75z"/>
  <path d="M52.50 97.10 c0 -0.95 2.50 -4.45 4.45 -6.20 4.05 -3.65 8.40 -4.25 13.10 -1.90 1.05 0.55 1.95 1.10 1.95 1.15 0 0.10 -1.10 0.20 -2.40 0.20 -3.60 0.05 -7.15 2.15 -5.55 3.25 0.80 0.50 5.65 0.25 7.15 -0.35 0.95 -0.40 0.95 -0.35 -0.10 1.10 -1.90 2.70 -3.65 3.15 -11.55 3 -3.85 -0.05 -7.05 -0.15 -7.05 -0.25z"/>
  <path d="M134.50 96.35 c3 -2.80 4.30 -5.35 2.75 -5.35 -0.95 0 -3.55 1.70 -4.90 3.25 -0.90 1 -0.90 0.95 -0.60 -1 0.45 -2.85 2.35 -5.05 5.85 -6.80 1.65 -0.85 3.55 -2.10 4.25 -2.85 1 -1.10 1.30 -1.20 1.65 -0.60 0.30 0.40 0.50 1.75 0.50 3 0 6.10 -3.25 10.15 -9 11.20 l-1.75 0.35 1.25 -1.20z"/>
  <path d="M106.55 90.85 c1.80 -1.20 5.05 -6.15 4.85 -7.30 -0.10 -0.40 -0.40 -0.80 -0.70 -0.90 -0.95 -0.30 -5.40 3.05 -6.70 5.05 l-1.25 1.95 -0.15 -2.30 c-0.30 -4.30 2.60 -8.25 8.25 -11.25 3.20 -1.70 6.30 -4.25 6.75 -5.60 0.25 -0.60 0.40 -0.65 0.95 -0.10 1.15 1.05 1.25 9 0.20 12.15 -1.65 4.95 -7.35 9.45 -11.95 9.45 l-1.95 0 1.70 -1.15z"/>
  <path d="M122.10 90 c-2.25 -0.55 -2.50 -0.90 -0.80 -1.25 2.55 -0.60 4.10 -1.30 5.25 -2.55 0.60 -0.65 0.95 -1.35 0.80 -1.55 -0.60 -0.55 -4.35 -0.20 -5.90 0.65 -2.10 1.05 -2.35 0.55 -0.75 -1.55 1.95 -2.55 3.95 -3.35 9.25 -3.80 2.75 -0.25 5.15 -0.75 5.85 -1.20 1.15 -0.75 1.20 -0.75 1.20 0.65 0 2.15 -2.35 6.40 -4.55 8.30 -2.85 2.45 -6.45 3.25 -10.35 2.30z"/>
  <path d="M84.60 88.50 c-2.40 -0.55 -5 -2.85 -7.75 -6.75 -2.95 -4.35 -4.75 -6.20 -6.20 -6.55 -0.65 -0.20 -1.15 -0.50 -1.15 -0.70 0 -0.85 4.80 -2 8.25 -2 4.40 0 7.50 1 10.25 3.35 2.20 1.90 5 6.95 5 9 0 1 -0.25 0.90 -2.20 -1.05 -2.20 -2.15 -6.65 -4.10 -7.45 -3.30 -1.10 1 4.55 7.50 6.50 7.50 0.75 0 0.80 0.10 0.15 0.50 -0.85 0.55 -3.05 0.55 -5.40 0z"/>
  <path d="M61 85.35 c-0.95 -0.35 -3.40 -1.80 -5.45 -3.25 -2.20 -1.55 -4.50 -2.75 -5.65 -2.90 -1.05 -0.20 -1.90 -0.50 -1.90 -0.75 0 -0.75 3.40 -3 6 -4 5 -1.90 10.50 -1 14.40 2.30 1.40 1.15 3.50 4.25 2.95 4.25 -0.15 0 -1.25 -0.45 -2.55 -1.05 -2.50 -1.10 -6.80 -1.15 -7.15 -0.10 -0.30 0.85 3.45 3.20 6.25 3.95 l2.35 0.60 -1.85 0.80 c-2.20 0.95 -5 1 -7.40 0.15z"/>
  <path d="M125.10 78 c-2.35 -0.55 -3.25 -1.50 -1.45 -1.50 2.70 0 7.40 -3.20 6.60 -4.50 -0.50 -0.80 -4.45 -0.20 -6.90 1.05 l-1.90 1 0.80 -1.50 c1.90 -3.70 4.45 -5 10.95 -5.50 3.50 -0.30 5.60 -0.70 6.50 -1.30 l1.30 -0.85 0 1.40 c0 4.35 -5.45 10.70 -10.05 11.65 -2.80 0.60 -3.50 0.60 -5.85 0.05z"/>
  <path d="M105 77.35 c0 -0.15 0.55 -1.20 1.20 -2.40 2 -3.65 2.30 -8.45 0.55 -8.45 -1.10 0 -3.30 3.25 -4.25 6.35 l-0.90 2.90 -0.65 -1.50 c-0.35 -0.80 -0.65 -2.85 -0.65 -4.50 -0.05 -3.50 0.75 -5.30 4.60 -10.40 1.40 -1.85 2.90 -4.40 3.25 -5.70 l0.65 -2.30 1.60 1.95 c2.10 2.50 3.60 7.15 3.60 10.95 0 5.15 -3.15 10.20 -7.85 12.70 -0.65 0.30 -1.15 0.50 -1.15 0.40z"/>
  <path d="M90.75 75.20 c-3.70 -1.90 -5.40 -4.90 -6.55 -11.50 -0.80 -4.50 -1.95 -7.70 -2.75 -7.70 -0.25 0 -0.45 -0.35 -0.45 -0.80 0 -1.20 4.45 -0.55 8.35 1.30 6.80 3.15 9.95 9.30 8.45 16.70 l-0.40 2 -1.20 -3 c-1.20 -3 -4.25 -6.45 -5.35 -6.05 -1.40 0.50 0.30 6.95 2.35 9 0.85 0.80 0.80 0.85 -0.05 0.85 -0.50 0 -1.55 -0.35 -2.40 -0.80z"/>
  <path d="M64.35 72.50 c-2.90 -0.85 -4.75 -2.90 -7.15 -7.80 -1.30 -2.70 -2.85 -5.10 -3.55 -5.55 -1.70 -1.10 -0.70 -1.65 3.15 -1.65 6.45 0 11.40 3.30 12.95 8.70 0.45 1.55 0.75 3.25 0.65 3.85 -0.15 0.90 -0.40 0.70 -1.70 -1.15 -1.50 -2.15 -4.75 -4.25 -5.70 -3.65 -0.80 0.50 0.60 3.40 2.80 5.60 1.90 1.90 2.05 2.15 1.05 2.10 -0.60 0 -1.75 -0.25 -2.50 -0.45z"/>
  <path d="M76.40 69.80 c-3.75 -1.65 -5.75 -5.05 -6.65 -11.30 -0.20 -1.25 -0.85 -3.20 -1.50 -4.35 -1.35 -2.45 -0.95 -2.80 2.20 -2.10 5.25 1.15 9.95 4.95 11 8.75 0.65 2.35 0.70 6.70 0.10 7.65 -0.30 0.50 -0.60 0.15 -1.05 -1.20 -0.70 -2.10 -3.75 -5.75 -4.80 -5.75 -1.35 0 -0.45 4.25 1.55 7.20 1.30 1.95 1.25 2.05 -0.85 1.10z"/>
  <path d="M122.05 67.15 c1.15 -2.25 1.35 -7.15 0.30 -7.15 -1.45 0 -3.20 2.90 -3.80 6.15 l-0.35 2.10 -0.85 -1.60 c-0.50 -0.95 -0.85 -2.75 -0.85 -4.30 0 -2.20 0.30 -3.20 1.80 -5.65 1 -1.60 2.30 -3.70 2.85 -4.65 0.55 -0.95 1.15 -2.50 1.35 -3.50 l0.30 -1.80 1.55 1.65 c3.20 3.35 4.60 10.35 2.90 14.50 -0.85 2 -4.60 6.10 -5.55 6.10 -0.40 0 -0.25 -0.65 0.35 -1.85z"/>
  <path d="M132.50 65.75 c0 -0.15 0.45 -0.90 1.05 -1.70 1.15 -1.55 1.90 -5.55 1.05 -5.55 -0.70 0 -3.45 3.20 -3.85 4.45 -0.45 1.50 -1.25 0.80 -1.25 -1.10 0.05 -2.50 1.70 -5.55 4.20 -7.60 1.25 -1.10 2.65 -2.75 3.10 -3.70 0.80 -1.65 0.85 -1.70 1.50 -0.80 2.55 3.45 2.05 9.95 -0.95 13.15 -1.10 1.20 -4.85 3.40 -4.85 2.85z"/>
  <path d="M96.45 58.85 c-0.90 -0.60 -2.35 -2.05 -3.15 -3.20 -1.35 -1.90 -1.50 -2.70 -2.05 -8.60 -0.40 -4.35 -0.90 -6.95 -1.45 -7.75 -1.10 -1.70 -1.05 -1.80 0.85 -1.80 3.75 0 10.30 4.55 12.50 8.75 1.45 2.65 1.55 9.70 0.25 12 l-0.85 1.50 -0.05 -1.65 c0 -0.90 -0.45 -2.60 -1.05 -3.75 -1.05 -2.10 -3.30 -4.85 -4 -4.85 -1.40 0 -0.60 6.65 1.10 9.05 1.30 1.80 0.35 1.95 -2.10 0.30z"/>
  <path d="M112.50 53 c-2 -2.15 -2.70 -4.55 -2.35 -8.45 0.15 -2.10 0.05 -4 -0.40 -5.20 -0.35 -1 -0.50 -1.95 -0.30 -2.10 0.80 -0.45 5.45 2.25 7.40 4.35 1.55 1.75 2.15 2.85 2.40 4.65 0.45 3 0.05 6.20 -0.95 7.20 -0.75 0.70 -0.80 0.60 -0.80 -1 0 -1.80 -1.70 -4.95 -2.80 -5.30 -1.20 -0.40 -1.15 3.55 0.05 6.50 0.55 1.40 -0.70 1 -2.25 -0.65z"/>
  <path d="M81 52.15 c-0.70 -0.45 -2.65 -2.15 -4.35 -3.75 -1.70 -1.60 -3.50 -2.90 -4.10 -2.90 -3.20 0 1.25 -2.65 5.50 -3.25 3.15 -0.45 6.10 0.45 8.50 2.60 2.05 1.85 3.75 4.50 3.25 5.05 -0.15 0.15 -0.70 -0.15 -1.25 -0.60 -1.25 -1.15 -5.20 -2.30 -6.05 -1.80 -0.95 0.60 2.45 3.90 4.45 4.30 2.40 0.50 1.30 1.20 -1.85 1.20 -1.85 0 -3.30 -0.30 -4.10 -0.85z"/>
  <path d="M141.80 164.45 c-0.50 -1.10 -0.85 -2.10 -0.75 -2.15 1.40 -1.25 7.30 -4.30 8.35 -4.30 2.35 0 2.80 0.60 1.95 2.60 -0.75 1.80 -6.15 5.90 -7.80 5.90 -0.45 0 -1.20 -0.90 -1.75 -2.05z"/>
  <path d="M155 157.85 c0 -0.40 -0.45 -1.10 -1 -1.60 -1.45 -1.30 -1.25 -2.50 0.75 -4.05 0.95 -0.70 1.75 -1.70 1.75 -2.20 0 -1 1.35 -1.50 4.15 -1.50 1.80 0 1.85 0.05 1.85 1.70 0 1.45 -0.50 2.25 -3.25 5 -3.30 3.30 -4.25 3.90 -4.25 2.65z"/>
  <path d="M38 157.65 c-0.40 -0.15 -1.65 -1.10 -2.75 -2.05 -2 -1.80 -3.15 -3.90 -3.20 -5.95 -0.05 -0.95 0.20 -1.15 1.50 -1.15 1.15 0 2.25 0.60 4.30 2.50 1.95 1.80 3.15 2.50 4.20 2.50 1.90 0 1.90 1.10 -0.10 1.85 -0.85 0.35 -1.65 1.05 -1.80 1.60 -0.25 1.05 -0.75 1.20 -2.15 0.70z"/>
  <path d="M26.45 146.15 c-3 -3.25 -3.45 -4.20 -3.45 -6.95 0 -1.50 0.20 -2.70 0.45 -2.70 1.50 0 3.20 1.25 4.90 3.70 1.05 1.55 2.30 2.75 2.80 2.80 0.85 0 1.30 2 0.40 2 -0.25 0 -0.95 0.55 -1.60 1.25 -1.50 1.55 -2 1.55 -3.50 -0.10z"/>
  <path d="M164.40 146 c-0.80 -0.75 -1.40 -1.65 -1.40 -1.95 0 -1.30 4.70 -6.55 6.30 -7.05 2.10 -0.70 2.70 -0.35 2.70 1.55 0 1.65 -4.70 9 -5.65 8.90 -0.35 -0.05 -1.20 -0.70 -1.95 -1.45z"/>
  <path d="M174.30 134.75 c-0.15 -0.40 -0.85 -1 -1.55 -1.35 -1.65 -0.75 -1.60 -1.25 0.50 -5.40 1.20 -2.35 2.20 -3.70 3.25 -4.25 1.35 -0.70 1.50 -0.70 2 0.20 0.25 0.55 0.50 1.60 0.50 2.35 0 1.30 -3.45 9.15 -4.05 9.20 -0.20 0 -0.45 -0.35 -0.65 -0.75z"/>
  <path d="M18.70 134.25 c-0.50 -0.40 -1.70 -0.75 -2.55 -0.75 -1.15 0 -1.65 -0.25 -1.65 -0.75 0 -0.40 0.35 -0.75 0.80 -0.75 0.65 0 0.70 -0.45 0.45 -2.60 -0.40 -3.55 0.25 -5.65 1.70 -5.65 0.90 0 1.55 0.85 3.45 4.45 1.65 3.25 2.10 4.55 1.65 4.70 -0.35 0.10 -1.05 0.65 -1.45 1.15 -1 1.15 -1.15 1.15 -2.40 0.20z"/>
  <path d="M11.80 118.35 c-0.50 -1.70 -1.15 -3.25 -1.45 -3.40 -0.30 -0.25 -0.30 -1.15 0.10 -2.75 0.85 -3.55 1.25 -4 2.65 -3.35 0.90 0.40 1.40 1.35 2.05 3.95 1.50 5.65 1.55 6.20 0.70 6.20 -0.40 0 -1.25 0.55 -1.95 1.20 l-1.20 1.25 -0.90 -3.10z"/>
  <path d="M180.30 119.70 c-0.55 -0.40 -1.40 -0.70 -1.95 -0.70 -1.10 0 -1.05 -0.75 0.50 -5.90 0.70 -2.40 1.30 -3.40 2.35 -4 1.30 -0.80 1.40 -0.80 2.10 0.10 0.40 0.55 0.70 1.45 0.70 2.05 0 1.25 -1.95 8.35 -2.40 8.85 -0.20 0.20 -0.80 0 -1.30 -0.40z"/>
  <path d="M7 105.75 c0 -1.20 0.25 -1.75 0.75 -1.75 1 0 1 -3.65 0.05 -4.65 -0.65 -0.60 -0.55 -1.05 0.45 -3.20 1.50 -3.30 2.05 -3.55 3.65 -1.95 0.75 0.70 1.05 1.30 0.70 1.30 -0.40 0 -0.55 0.60 -0.35 1.90 0.90 7.10 0.90 7 -0.60 7 -0.90 0 -1.80 0.50 -2.65 1.55 -0.75 0.85 -1.50 1.55 -1.65 1.55 -0.20 0 -0.35 -0.80 -0.35 -1.75z"/>
  <path d="M183.85 104.45 c-0.45 -0.30 -1.30 -0.35 -1.85 -0.20 -1.20 0.35 -1.15 0.40 -0.50 -5.25 0.40 -3.30 0.75 -4.45 1.55 -5.10 1.45 -1.20 1.80 -1.15 2.60 0.50 0.55 1.10 0.60 2.20 0.15 5.70 -0.30 2.35 -0.65 4.45 -0.80 4.55 -0.15 0.15 -0.65 0.05 -1.15 -0.20z"/>
  <path d="M181.30 85.25 c-0.25 -3.95 -0.20 -4.95 0.50 -6 0.45 -0.70 1.10 -1.25 1.45 -1.25 1.40 0 1.95 1.70 2.15 6.55 0.20 4.70 0.15 4.90 -0.80 4.60 -0.55 -0.10 -1.45 0 -2 0.30 -0.90 0.50 -0.95 0.25 -1.30 -4.20z"/>
  <path d="M8.40 85.50 c-0.15 -3.15 -0.05 -4 0.85 -5.35 0.55 -0.90 1.30 -1.75 1.70 -1.90 1.35 -0.50 3.70 2.55 2.55 3.25 -0.40 0.25 -0.75 1.90 -0.90 4.10 l-0.20 3.65 -1.90 0 -1.95 0 -0.15 -3.75z"/>
 </g>
 <g fill="#1faa35">
  <path d="M95.50 178 c0 -0.25 -0.60 -0.55 -1.35 -0.60 -0.85 0 -0.55 -0.15 0.85 -0.35 1.25 -0.15 2.35 -0.15 2.40 0.10 0.10 0.20 0.80 0.35 1.50 0.35 1.05 0 1.20 0.10 0.60 0.50 -1 0.65 -4 0.65 -4 0z"/>
  <path d="M104.35 176.85 c-0.05 -0.25 -1.35 -0.60 -2.85 -0.75 l-2.75 -0.25 1.90 -0.65 c1 -0.35 3.15 -0.80 4.75 -1 2.35 -0.25 3.10 -0.15 3.75 0.55 1.55 1.55 1.10 1.90 -3 2.40 -0.90 0.10 -1.70 -0.05 -1.80 -0.30z"/>
  <path d="M88.50 175.50 c-1.50 -0.25 -2.95 -0.30 -3.25 -0.15 -0.25 0.15 -0.20 0 0.15 -0.40 0.85 -0.90 6.15 -0.75 8.85 0.25 l2 0.75 -2.50 -0.05 c-1.35 0 -3.75 -0.20 -5.25 -0.40z"/>
  <path d="M114.50 175.60 c0 -0.50 2.70 -1.20 7 -1.90 3.35 -0.55 2.25 0.15 -1.60 1.05 -2 0.45 -4.05 0.90 -4.50 1.05 -0.50 0.15 -0.90 0.05 -0.90 -0.20z"/>
  <path d="M75.75 175.15 c-3.45 -0.80 -4.75 -1.25 -4.75 -1.65 0 -0.25 0.30 -0.35 0.70 -0.20 0.35 0.15 2.65 0.70 5.10 1.20 3.65 0.75 4.05 0.95 2.20 0.90 -1.25 0 -2.70 -0.10 -3.25 -0.25z"/>
  <path d="M112.50 173.40 c-0.60 -0.50 -1.45 -0.90 -1.85 -0.90 -0.40 0 -1.15 -0.25 -1.65 -0.50 -0.90 -0.50 -0.70 -0.80 2 -3.55 3.50 -3.55 4.55 -3.65 5.20 -0.65 0.45 2.05 0.50 2.10 3 2.35 1.40 0.10 3.25 0.50 4.05 0.85 l1.50 0.65 -1.50 0.35 c-9.75 2.45 -9.50 2.40 -10.75 1.40z"/>
  <path d="M74.50 173 c-2.05 -0.50 -3.90 -0.80 -4.10 -0.70 -0.25 0.15 -0.40 0.05 -0.40 -0.20 0 -0.80 3.90 -2.10 6.25 -2.10 2.15 0 2.25 -0.05 2.25 -1.45 0 -4 1.55 -4 5.45 0 2.40 2.40 2.80 3.05 2.15 3.30 -0.45 0.15 -1.85 0.70 -3.05 1.20 -2.65 1.15 -3.70 1.15 -8.55 -0.05z"/>
  <path d="M62.25 171.05 c-3.10 -1.10 -5.60 -2.40 -6 -3.05 -0.50 -0.85 0.50 -0.55 3.55 1 1.60 0.80 3.70 1.65 4.60 1.80 0.85 0.15 1.60 0.50 1.60 0.75 0 0.65 -0.95 0.55 -3.75 -0.50z"/>
  <path d="M130.75 170.55 c1.40 -0.50 3.20 -1.25 4.10 -1.70 1.70 -0.90 3.15 -1.10 3.15 -0.45 0 0.55 -7.05 3.10 -8.50 3.10 -0.90 -0.05 -0.55 -0.30 1.25 -0.95z"/>
  <path d="M63.75 169.50 c-1.35 -0.45 -3.60 -1.35 -4.90 -1.95 -1.35 -0.60 -2.70 -0.90 -3 -0.75 -0.45 0.25 -0.45 0.20 -0.05 -0.25 0.75 -0.80 3.85 -1.50 6.60 -1.55 1.90 0 2.10 -0.10 2.10 -1.20 0 -0.65 0.40 -1.70 0.95 -2.35 l0.95 -1.15 1.65 1.80 c3.10 3.25 4.45 5 4.20 5.40 -0.10 0.20 -1.05 0.50 -2.05 0.65 -1 0.20 -2.30 0.75 -2.90 1.30 -1.05 0.95 -1.10 0.95 -3.55 0.05z"/>
  <path d="M127.35 169.25 c-0.55 -0.35 -1.80 -0.85 -2.90 -1 -1.05 -0.20 -1.95 -0.60 -1.95 -0.95 0 -0.95 5.85 -6.95 6.45 -6.60 0.30 0.20 0.80 1.25 1.10 2.30 0.60 1.95 0.65 2 3.05 2 2.75 0 5.90 1.10 5.90 2.10 0 0.50 -0.10 0.50 -0.45 -0.05 -0.40 -0.60 -0.70 -0.60 -2.15 0.10 -2.70 1.30 -6.90 2.85 -7.55 2.85 -0.35 0 -1 -0.35 -1.50 -0.75z"/>
  <path d="M142.30 165.20 c-0.40 -1.45 -2.85 -2.70 -5.30 -2.70 -1.50 0 -2.10 -1.05 -1 -1.75 0.30 -0.20 1.05 -1.35 1.70 -2.65 1.55 -2.95 2.90 -3.90 3.95 -2.70 0.40 0.45 0.90 1.35 1.05 1.95 0.30 1 0.60 1.05 4.45 0.85 2.25 -0.10 3.75 -0.05 3.35 0.10 -0.40 0.20 -0.90 0.65 -1.10 0.95 -0.25 0.35 -1.85 1.50 -3.65 2.55 -1.80 1.05 -3.25 2.20 -3.25 2.55 0 0.35 0.10 0.65 0.20 0.65 0.10 0 1.90 -1.15 4 -2.55 2.15 -1.40 4 -2.40 4.15 -2.30 0.50 0.50 -0.35 1.25 -3.60 3.15 -1.80 1.05 -3.25 2.20 -3.25 2.55 0 1.20 -1.40 0.65 -1.70 -0.65z"/>
  <path d="M50.50 165.65 c-1.80 -0.65 -7 -4.35 -7 -4.95 0 -1 0.20 -0.90 2.80 1.10 1.30 0.95 3.20 2.20 4.30 2.75 1.05 0.55 1.90 1.10 1.90 1.20 0 0.30 -1 0.25 -2 -0.10z"/>
  <path d="M52 164.15 c-1.75 -0.60 -8.45 -5.30 -8.15 -5.80 0.20 -0.30 1.75 -0.35 4.20 -0.20 3.50 0.30 3.95 0.20 3.95 -0.55 0 -0.45 0.45 -1.40 1 -2.10 l0.95 -1.25 1.50 1.45 c0.85 0.80 1.70 1.95 1.85 2.50 0.20 0.60 0.75 1.65 1.25 2.40 0.55 0.70 0.95 1.40 0.95 1.55 0 0.10 -1.15 0.35 -2.50 0.45 -1.40 0.15 -2.90 0.60 -3.40 1 -0.45 0.45 -1.20 0.65 -1.60 0.55z"/>
  <path d="M155 157.15 c0 -0.85 6.25 -7.15 7.10 -7.15 1 0 0.15 1.15 -2.85 3.85 -1.80 1.60 -3.25 3.20 -3.25 3.55 0 0.30 -0.20 0.60 -0.50 0.60 -0.25 0 -0.50 -0.40 -0.50 -0.85z"/>
  <path d="M35.30 154.35 c-2.80 -2.60 -4 -4.35 -3.10 -4.35 0.15 0 1.65 1.35 3.40 3 1.70 1.65 3.40 3 3.75 3 0.35 0 0.65 0.35 0.65 0.75 0 1.45 -1.40 0.75 -4.70 -2.40z"/>
  <path d="M153.55 155.80 c-0.50 -0.55 -1.50 -0.80 -3.50 -0.80 l-2.85 0 1 -3.20 c0.60 -1.75 1.50 -3.70 2.05 -4.30 l1 -1.10 1.50 1.75 1.50 1.75 3.10 -0.80 c1.70 -0.45 3.30 -0.65 3.50 -0.40 0.20 0.20 -1.10 1.80 -2.90 3.50 -1.85 1.65 -3.40 3.35 -3.55 3.75 -0.15 0.50 -0.30 0.50 -0.85 -0.15z"/>
  <path d="M36.10 152.25 l-4.15 -3.75 2.30 0 c1.20 0 3.20 0.40 4.35 0.85 1.75 0.70 2.15 0.70 2.30 0.15 0.15 -0.40 0.80 -1.25 1.45 -1.90 1.15 -1.15 1.25 -1.15 2.15 -0.35 0.55 0.50 1.35 2.15 1.80 3.70 0.45 1.55 1.05 3.10 1.30 3.45 0.40 0.45 -0.20 0.60 -2.75 0.60 -1.80 0 -3.45 0.25 -3.60 0.50 -0.55 0.85 -0.90 0.60 -5.15 -3.25z"/>
  <path d="M28.50 146.85 c0 -0.45 -0.30 -0.85 -0.60 -0.90 -0.90 0 -5 -5.85 -4.80 -6.85 0.10 -0.50 0.60 -0.05 1.55 1.35 0.75 1.15 2.20 3 3.20 4.10 1.35 1.50 1.65 2.15 1.25 2.55 -0.45 0.45 -0.60 0.40 -0.60 -0.25z"/>
  <path d="M164.65 146.20 c-1.20 -1.30 -2.85 -1.50 -5.55 -0.75 l-1.65 0.50 0.35 -2.60 c0.75 -6 2.10 -7.50 4.50 -5.10 l1.30 1.30 2.55 -1.30 c4.70 -2.35 4.90 -1.70 1.05 3.25 -1.75 2.30 -2.60 3.80 -2.30 4.10 0.30 0.30 1.40 -0.90 2.95 -3.15 2.30 -3.35 3.65 -4.70 3.65 -3.55 0 0.25 -1.10 1.95 -2.50 3.75 -1.35 1.80 -2.50 3.65 -2.50 4.10 0 1.05 -0.55 0.85 -1.85 -0.55z"/>
  <path d="M30.30 145.25 c0.20 -0.50 0 -0.75 -0.60 -0.75 -0.85 -0.05 -3.80 -3.65 -5.60 -6.85 -0.60 -1.15 -0.60 -1.15 0.75 -0.85 0.75 0.15 2.60 0.90 4.05 1.60 2.40 1.15 2.75 1.20 3.15 0.50 0.25 -0.40 1 -1.15 1.65 -1.60 1.25 -0.80 1.30 -0.75 2.05 0.65 0.40 0.85 0.75 2.30 0.75 3.25 0 0.95 0.25 2.35 0.50 3.10 0.30 0.75 0.45 1.40 0.40 1.45 -0.10 0.10 -1.35 -0.10 -2.80 -0.40 -2 -0.40 -2.90 -0.40 -3.60 0.05 -0.80 0.50 -0.90 0.45 -0.70 -0.15z"/>
  <path d="M19.60 134.35 c-1.20 -1.45 -4.10 -7.95 -3.80 -8.45 0.20 -0.30 1.10 1.10 2 3.05 0.90 1.95 2 3.70 2.40 3.85 0.85 0.35 1.05 1.45 0.35 1.90 -0.25 0.15 -0.65 0 -0.95 -0.35z"/>
  <path d="M166 130.55 c0 -2.65 0.20 -4.65 0.55 -4.80 0.60 -0.40 3.45 0.70 3.45 1.30 0 0.80 1.35 0.45 2.30 -0.60 0.50 -0.60 1.80 -1.50 2.85 -2 1.50 -0.80 1.85 -0.85 1.85 -0.25 0 1.05 1.05 1.55 1.55 0.75 0.30 -0.50 0.45 -0.30 0.45 0.65 0 0.70 -0.20 1.40 -0.45 1.50 -0.25 0.10 -1.30 1.85 -2.30 3.90 -1.05 2.05 -2 3.45 -2.15 3.10 -0.10 -0.35 0.60 -2.30 1.60 -4.30 1.90 -3.80 2.05 -4.30 1.40 -4.30 -0.20 0 -1.25 1.75 -2.30 3.90 -1.75 3.65 -2 3.90 -3.30 3.70 -0.75 -0.10 -2.25 0.25 -3.45 0.85 l-2.05 1.05 0 -4.45z"/>
  <path d="M26.25 133.70 c-0.80 -0.35 -2.30 -0.65 -3.25 -0.55 -1.75 0.10 -1.75 0.05 -4.10 -4.50 -1.25 -2.50 -2.40 -4.55 -2.50 -4.50 -0.10 0.05 0 -0.10 0.20 -0.35 0.55 -0.70 2.70 0.10 5.15 1.95 l2.30 1.80 1.30 -1.05 c2.85 -2.20 3.70 -0.95 3.50 5.15 -0.05 3.05 -0.25 3.15 -2.60 2.05z"/>
  <path d="M19.50 120.40 c-1.20 -0.75 -2.70 -1.40 -3.30 -1.40 -0.70 0 -1.25 -0.45 -1.60 -1.35 -0.65 -1.60 -2.10 -7.25 -2.10 -8.10 0 -1.55 3.15 0.50 5.10 3.35 0.75 1.10 0.80 1.15 2.55 0.30 3.40 -1.60 3.95 -0.40 2.45 5.35 l-0.85 3.25 -2.25 -1.40z"/>
  <path d="M172.80 121.40 c-0.35 -1.05 -0.85 -4 -1.15 -6.50 -0.20 -2.10 -0.15 -2.40 0.70 -2.40 0.50 0 1.55 0.35 2.40 0.80 1.45 0.75 1.50 0.75 3.10 -1.20 0.90 -1.10 2.15 -2.30 2.85 -2.75 l1.20 -0.80 -0.50 2.10 c-1.20 5.55 -2.35 8.35 -3.40 8.35 -0.45 0 -1.80 0.70 -2.95 1.50 -1.40 1.05 -2.15 1.30 -2.25 0.90z"/>
  <path d="M13.10 119.20 c-0.75 -1.50 -2.20 -8.05 -2 -9.05 0.10 -0.50 0.60 0.80 1.10 2.85 0.50 2.05 1.25 4.30 1.65 4.95 0.50 0.75 0.60 1.30 0.25 1.65 -0.35 0.35 -0.65 0.20 -1 -0.40z"/>
  <path d="M180.25 118.65 c0.15 -0.50 0.80 -2.65 1.35 -4.75 1.10 -4.05 2.15 -5.45 1.30 -1.75 -0.95 4.25 -2 7.35 -2.50 7.35 -0.30 0 -0.35 -0.40 -0.15 -0.85z"/>
  <path d="M15.55 106.30 c-0.90 -0.95 -2.30 -1.80 -3.10 -2 -1.25 -0.25 -1.45 -0.50 -1.45 -1.90 0 -0.90 -0.15 -3.15 -0.35 -5 -0.25 -2.90 -0.20 -3.40 0.50 -3.40 0.95 0 2.95 2.30 3.80 4.40 0.55 1.35 0.80 1.50 1.90 1.05 3.75 -1.40 4.50 -0.05 2.40 4.45 -0.70 1.50 -1.25 3 -1.25 3.40 0 1.10 -0.70 0.85 -2.45 -1z"/>
  <path d="M177 107.35 c0 -0.30 -0.55 -1.65 -1.25 -2.95 -0.70 -1.30 -1.25 -3.05 -1.25 -3.95 l0 -1.60 2.45 0.35 c2.30 0.30 2.45 0.25 3 -1.05 0.35 -0.80 1.25 -2.20 2.10 -3.15 l1.50 -1.75 -0.30 4.75 c-0.35 5.15 -0.75 6.25 -2.25 6.75 -0.50 0.15 -1.50 0.95 -2.20 1.80 -1.35 1.60 -1.80 1.80 -1.80 0.80z"/>
  <path d="M9.35 101.20 c-0.45 -5.20 -0.45 -7.20 0.10 -7.20 0.20 0 0.30 0.50 0.20 1.15 -0.10 0.60 0 2.90 0.30 5.10 0.25 2.20 0.30 4.20 0.10 4.40 -0.20 0.20 -0.55 -1.35 -0.70 -3.45z"/>
  <path d="M183.65 103.40 c0.15 -0.65 0.45 -2.90 0.60 -5.05 0.20 -2.15 0.50 -3.80 0.60 -3.65 0.50 0.45 -0.45 9.80 -0.95 9.80 -0.30 0 -0.40 -0.50 -0.25 -1.10z"/>
  <path d="M14.50 92.05 c-0.65 -1.10 -1.70 -2.20 -2.35 -2.50 -1 -0.45 -1.15 -0.90 -1.15 -3.20 0 -4 0.55 -7.35 1.25 -7.35 0.65 0 2.45 3.10 2.95 5.10 0.25 1.20 0.45 1.30 2.05 1.05 1.05 -0.15 2.05 -0.05 2.50 0.35 0.65 0.55 0.65 0.80 -0.05 2.40 -0.40 1 -1.15 2.30 -1.65 2.85 -0.50 0.55 -1.10 1.50 -1.30 2.15 -0.45 1.55 -0.85 1.40 -2.25 -0.85z"/>
  <path d="M176.90 91.05 c-2.45 -3.75 -2.85 -5.35 -1.45 -5.80 0.60 -0.15 1.70 -0.20 2.45 0 1.30 0.25 1.40 0.15 1.95 -1.85 0.65 -2.35 1.90 -4.35 2.40 -3.85 0.15 0.20 0.45 2.35 0.60 4.80 0.30 4.40 0.25 4.45 -1.15 5.90 -0.80 0.85 -1.80 2 -2.20 2.60 -0.75 1.05 -0.80 1 -2.60 -1.80z"/>
  <path d="M9.70 84.10 c0.05 -3.90 0.25 -5.25 0.80 -5.60 1.15 -0.75 1.65 -0.60 0.80 0.25 -0.65 0.70 -1 2.55 -1.50 8.25 -0.10 1.25 -0.15 -0.05 -0.10 -2.90z"/>
  <path d="M183.90 85 c-0.20 -2.35 -0.50 -4.85 -0.70 -5.60 -0.20 -0.85 -0.10 -1.40 0.20 -1.40 0.65 0 1.25 5.30 1 8.75 -0.15 2.15 -0.20 1.90 -0.50 -1.75z"/>
 </g>
 <g fill="#006734">
  <path d="M81.50 190.30 c0 -2.10 6.85 -9.20 10.95 -11.30 0.85 -0.45 1 -0.70 0.55 -1 -0.45 -0.30 -0.45 -0.45 0 -0.75 0.70 -0.40 7.60 0.15 8 0.65 0.15 0.20 1.25 1 2.45 1.80 4.55 2.95 10.55 9.55 9.80 10.80 -0.15 0.30 -1.20 0.50 -2.30 0.50 -2.25 0 -3.40 -0.95 -6.15 -5.25 -0.95 -1.50 -2.75 -3.25 -4.45 -4.40 l-2.85 -1.95 -2.15 1.30 c-2.60 1.50 -5.45 4.50 -6.85 7.25 -1.20 2.40 -2.25 3.05 -4.95 3.05 -1.40 0 -2.05 -0.20 -2.05 -0.70z"/>
  <path d="M74 182.20 c0 -0.55 0.35 -1.60 0.75 -2.40 0.75 -1.40 0.70 -1.45 -1.50 -3.40 -3.35 -2.95 -3.05 -3.45 1.65 -2.35 2.10 0.50 4.35 0.95 4.90 0.95 0.85 0 1 0.25 0.85 1.15 -0.15 0.65 0.35 1.95 1.30 3.35 l1.50 2.25 -1.85 0.40 c-1 0.20 -3.15 0.50 -4.70 0.70 -2.60 0.25 -2.90 0.15 -2.90 -0.65z"/>
  <path d="M115.25 182.50 c-0.55 -0.25 -1.65 -0.45 -2.40 -0.45 -1.60 -0.05 -1.60 0 0.15 -2.80 0.65 -1.05 1.30 -2.40 1.35 -2.95 0.10 -0.55 0.25 -1.05 0.35 -1.15 0.35 -0.35 8.35 -1.75 8.60 -1.50 0.50 0.50 -0.70 2.15 -2.45 3.35 l-1.65 1.15 0.95 1.90 c0.50 1.05 0.80 2.15 0.60 2.45 -0.35 0.60 -4.10 0.60 -5.50 0z"/>
  <path d="M129.75 177.80 c-1.65 -0.25 -3.05 -0.50 -3.15 -0.55 -0.05 -0.05 0.45 -1.20 1.15 -2.55 0.70 -1.30 1.15 -2.70 1.05 -3.05 -0.15 -0.35 0.05 -0.65 0.50 -0.65 0.40 0 2.20 -0.65 4.05 -1.50 5.20 -2.40 6.10 -1.80 2.60 1.80 l-2 2.05 1.05 1.80 c0.60 1 0.95 2 0.80 2.30 -0.45 0.70 -2.80 0.85 -6.05 0.35z"/>
  <path d="M59 177.15 c0 -0.50 0.45 -1.65 1 -2.50 l1 -1.65 -1.20 -0.75 c-1.30 -0.90 -4.10 -4.75 -3.40 -4.75 0.25 0 1.80 0.65 3.40 1.50 1.60 0.80 3.70 1.65 4.60 1.80 1.15 0.20 1.60 0.60 1.60 1.30 0 0.55 0.55 1.95 1.25 3.10 l1.25 2.15 -2.60 0.35 c-4.90 0.55 -6.90 0.40 -6.90 -0.55z"/>
  <path d="M45.90 170.90 c-1.70 -0.60 -1.70 -0.80 -0.15 -3.10 l1.25 -1.80 -1.75 -2.30 c-1.55 -2 -2.25 -3.70 -1.50 -3.70 0.15 0 1.30 0.80 2.55 1.80 1.30 0.95 3.20 2.20 4.30 2.75 1.50 0.75 1.90 1.25 1.90 2.35 0.05 0.75 0.35 1.90 0.75 2.60 0.40 0.70 0.70 1.40 0.75 1.55 0 0.50 -6.60 0.40 -8.10 -0.15z"/>
  <path d="M141 170.80 c0.05 -0.30 0.35 -1.10 0.75 -1.80 0.40 -0.70 0.70 -1.80 0.75 -2.50 0 -1.05 0.75 -1.80 4 -3.90 2.20 -1.45 4.10 -2.60 4.25 -2.60 0.75 0 0.05 2.10 -1.25 3.90 -1.80 2.45 -1.80 2.65 -0.50 3.85 1.35 1.20 1.25 2.65 -0.20 3.25 -1.75 0.65 -7.80 0.50 -7.80 -0.20z"/>
  <path d="M38.50 162.70 c-0.95 -0.35 -2.25 -0.65 -2.90 -0.65 -1.25 -0.05 -4.10 -1.35 -4.10 -1.90 0 -0.20 0.65 -1.05 1.50 -1.90 l1.50 -1.50 -1.30 -3.20 c-0.70 -1.70 -1.15 -3.25 -1.05 -3.35 0.15 -0.15 1.65 1.10 3.40 2.80 1.75 1.65 3.50 3 3.85 3 0.40 0 0.60 0.60 0.55 1.65 -0.05 0.85 0.05 2.55 0.25 3.75 0.20 1.15 0.30 2.05 0.20 2.05 -0.05 -0.05 -0.95 -0.35 -1.90 -0.75z"/>
  <path d="M154.80 159.80 l0.30 -3.55 3.30 -3.10 c1.80 -1.75 3.45 -3.15 3.70 -3.15 0.75 0 0.40 1.80 -0.85 4.30 l-1.25 2.45 1.50 1.15 c0.85 0.65 1.50 1.55 1.50 2.05 0 0.95 -1.90 2.05 -3.65 2.05 -0.60 0.05 -1.95 0.35 -3 0.70 l-1.90 0.70 0.35 -3.60z"/>
  <path d="M25.20 151.05 c-3.20 -1.35 -4.70 -2.35 -4.70 -3.10 0 -0.25 0.90 -1 2.05 -1.70 1.60 -1.05 1.90 -1.45 1.45 -2 -0.55 -0.65 -1.35 -5.75 -0.90 -5.75 0.15 0 0.85 0.90 1.60 2 0.75 1.15 2.05 2.90 2.95 3.90 1.55 1.75 1.60 2.05 1.45 5 -0.10 1.70 -0.35 3.10 -0.50 3.05 -0.20 -0.05 -1.75 -0.65 -3.40 -1.40z"/>
  <path d="M166 150.15 c0 -1.35 -0.20 -2.70 -0.45 -3.10 -0.30 -0.50 0.25 -1.70 1.80 -4 1.25 -1.80 2.65 -3.65 3.15 -4.05 0.45 -0.45 0.95 -1.10 1.15 -1.50 0.60 -1.65 0.30 3 -0.40 5.30 -0.40 1.40 -0.55 2.50 -0.25 2.60 1 0.35 3 2.20 3 2.75 -0.05 0.85 -1.90 2.10 -4.25 2.85 -1.10 0.35 -2.20 0.80 -2.45 1.05 -1 0.90 -1.30 0.40 -1.30 -1.90z"/>
  <path d="M17 138.50 c-3.55 -2.30 -5 -3.50 -5 -4.30 0 -0.75 2.45 -2.20 3.70 -2.20 0.60 0 0.70 -0.25 0.30 -1.30 -0.60 -1.55 -0.65 -4.55 -0.10 -4.90 0.20 -0.15 1.05 1.20 1.80 3 0.80 1.75 1.90 3.55 2.45 3.95 0.90 0.60 0.95 0.90 0.45 1.85 -0.35 0.65 -0.80 2.10 -1 3.25 l-0.35 2.10 -2.25 -1.45z"/>
  <path d="M175.30 139.25 c-0.15 -0.45 -0.30 -1.35 -0.30 -2 0 -0.65 -0.25 -1.75 -0.55 -2.45 -0.50 -1.10 -0.35 -1.80 1.35 -5.15 2.90 -5.95 3.35 -6.15 3.15 -1.50 -0.20 3.75 -0.20 3.85 1.05 4.10 0.70 0.15 1.70 0.60 2.20 1 0.95 0.75 0.95 0.75 -0.25 2.05 -0.65 0.70 -1.85 1.65 -2.70 2.05 -0.80 0.40 -2 1.20 -2.55 1.75 -0.95 0.85 -1.10 0.85 -1.40 0.15z"/>
  <path d="M8.40 122 c-1.60 -1.60 -2.90 -3.25 -2.90 -3.70 0 -0.55 0.75 -1 2.20 -1.40 2.15 -0.55 2.20 -0.65 2.50 -3 0.65 -4.70 1.05 -4.90 2 -0.85 0.50 2.05 1.20 4.15 1.55 4.75 0.55 0.90 0.45 1.40 -0.80 4.10 -0.85 1.70 -1.55 3.10 -1.60 3.05 -0.05 0 -1.40 -1.35 -2.95 -2.95z"/>
  <path d="M182.50 123.15 c-0.35 -1.05 -1.05 -2.35 -1.50 -2.90 -0.90 -0.95 -0.85 -1.15 0.40 -5.60 0.70 -2.60 1.55 -4.65 1.90 -4.65 0.70 0 1.85 4.60 1.40 5.65 -0.20 0.50 0.30 0.80 1.65 1.05 2.85 0.45 3.40 0.95 2.65 2.35 -0.50 0.95 -5.40 5.95 -5.80 5.95 -0.05 0 -0.40 -0.85 -0.70 -1.85z"/>
  <path d="M4.25 105.80 c-2.70 -4.30 -2.65 -5 0.40 -5.20 1.40 -0.10 2.35 -0.40 2.35 -0.75 0 -0.90 2.15 -5.85 2.50 -5.85 0.20 0 0.25 0.50 0.15 1.15 -0.10 0.60 0 2.90 0.30 5.10 0.45 3.55 0.40 4.10 -0.35 4.75 -0.45 0.45 -1.25 1.45 -1.70 2.25 -0.45 0.80 -1 1.55 -1.25 1.60 -0.20 0.05 -1.30 -1.30 -2.40 -3.05z"/>
  <path d="M186.65 107.05 c-0.65 -1.10 -1.60 -2.15 -2.20 -2.30 -0.75 -0.25 -0.95 -0.65 -0.80 -1.40 0.15 -0.60 0.45 -2.85 0.60 -4.95 0.20 -2.15 0.55 -3.90 0.80 -3.90 0.65 0 2.05 2.35 2.40 4.15 0.30 1.45 0.55 1.60 2.55 1.85 2.65 0.30 3.10 1.40 1.50 3.75 -0.55 0.85 -1.50 2.25 -2.05 3.15 -0.60 0.85 -1.20 1.60 -1.35 1.60 -0.20 0 -0.85 -0.90 -1.45 -1.95z"/>
  <path d="M188.35 91.90 c-0.75 -1 -2.05 -2.05 -2.85 -2.40 -1.40 -0.60 -1.50 -0.80 -1.50 -3.30 0 -1.45 -0.25 -3.80 -0.55 -5.20 -0.30 -1.40 -0.40 -2.70 -0.25 -2.85 0.55 -0.55 2.75 1.95 3.90 4.30 0.55 1.25 1.10 2.35 1.15 2.45 0.05 0.05 0.75 -0.10 1.50 -0.40 1.70 -0.65 3.25 -0.20 3.25 0.90 0 0.50 -0.65 2.20 -1.45 3.85 -0.80 1.65 -1.50 3.30 -1.65 3.70 -0.15 0.50 -0.65 0.15 -1.55 -1.05z"/>
  <path d="M4.50 92.15 c0 -0.50 -0.60 -1.80 -1.25 -2.90 -2.25 -3.60 -1.25 -6 1.90 -4.80 1.20 0.45 1.40 0.35 2.80 -2.15 1.65 -2.95 2.80 -4.30 3.70 -4.30 0.40 0 0.40 0.15 -0.05 0.45 -0.90 0.55 -1.55 3.65 -1.60 7.20 0 2.75 -0.10 2.95 -2.35 5.10 -2.55 2.45 -3.15 2.70 -3.15 1.40z"/>
 </g>
</svg>