<?xml version="1.0" encoding="utf-8"?>
<!DOCTYPE svg PUBLIC "-//W3C//DTD SVG 1.0//EN" "http://www.w3.org/TR/2001/REC-SVG-20010904/DTD/svg10.dtd">
<svg version="1.0" xmlns="http://www.w3.org/2000/svg" width="360px" height="360px" viewBox="0 0 360 360" preserveAspectRatio="xMidYMid meet">
 <g fill="#9a0000">
  <path d="M152.9 357.5 c-19.7 -3.2 -37.4 -9.1 -55.9 -18.6 -17 -8.8 -28.7 -17.5 -44 -32.9 -18.6 -18.5 -29.9 -35.4 -39.3 -58.6 -9.4 -22.9 -13 -41.8 -13 -67.9 0 -26.3 4 -46.1 14 -69.8 23.5 -55.7 74.2 -95.8 135.3 -106.9 16.2 -2.9 43.8 -2.9 60 0 37.8 6.9 70.5 23.8 96.9 50.3 26.5 26.4 43.5 59.1 50.3 96.9 2.7 15.1 2.9 42.8 0.4 57.5 -6.6 39.2 -22.8 70.7 -50.6 98.5 -16.1 16.2 -27.6 24.6 -46.5 34 -15.3 7.6 -29.6 12.7 -45 16 -13 2.8 -49.2 3.7 -62.6 1.5z m49.2 -5 c75.3 -10 134 -64.9 149.1 -139.7 2 -9.9 2.3 -14.2 2.2 -33.8 0 -19.4 -0.3 -23.9 -2.3 -33 -5 -23.6 -15.9 -48.7 -28.8 -67 -8.4 -11.7 -29 -32.5 -40.1 -40.4 -30.7 -21.8 -64.6 -32.6 -102.2 -32.6 -37.6 0 -71.5 10.8 -102.2 32.6 -11.1 7.9 -31.7 28.7 -40.1 40.4 -12.9 18.3 -23.8 43.4 -28.8 67 -2 9.1 -2.3 13.6 -2.3 33 -0.1 25.3 1.4 35.6 7.9 55.7 25.8 78.5 105.8 128.7 187.6 117.8z"/>
  <path d="M198.5 343.7 c4 -1.9 5.5 -3.8 6.2 -8.1 0.6 -3.8 -0.5 -4.7 -2.7 -2.1 -1.9 2.3 -6.6 1.9 -8.4 -0.7 -4 -5.7 0.1 -12.8 7.3 -12.8 5.4 0 8.1 3.4 8.1 10.2 0 7.5 -4.1 12.9 -10.6 14.3 l-2.9 0.6 3 -1.4z m5.3 -15.4 c0.4 -4 -1.3 -7.3 -3.6 -7.3 -3.8 0 -5.5 4.8 -3.1 9.1 0.7 1.4 1.9 1.9 3.7 1.7 2.2 -0.2 2.8 -0.9 3 -3.5z"/>
  <path d="M152.6 341.9 c-3.3 -2.6 -3.3 -5.3 0 -8.4 2.4 -2.2 2.5 -2.6 1.1 -4.6 -4.4 -6.2 6.8 -12.4 12.3 -6.9 2.5 2.5 2.5 3.1 0 6.3 -1.7 2.2 -1.8 2.6 -0.5 3.7 0.8 0.7 1.5 2.7 1.5 4.4 0 6.8 -8.6 10.1 -14.4 5.5z m9.2 -0.1 c2 -2 1.3 -5.5 -1.5 -7.8 -3.1 -2.4 -4.3 -2.2 -6.2 1.2 -1.3 2.3 -1.3 2.9 0.2 5.2 1.9 2.8 5.4 3.5 7.5 1.4z m2.8 -15.4 c0.4 -1.4 0.1 -3.1 -0.7 -4 -1.6 -1.9 -5.9 -1.4 -7.3 0.9 -0.9 1.5 -0.6 2.3 1.7 4.2 3.1 2.8 5.4 2.4 6.3 -1.1z"/>
  <path d="M112.3 330.5 c-5.7 -2.6 -6.7 -3.5 -3 -2.8 2.2 0.4 2.8 -0.4 6 -8 2.1 -4.7 3.7 -8.8 3.7 -9.1 0 -0.2 -1.5 -0.7 -3.2 -0.9 -2.3 -0.3 -1.7 -0.4 1.9 -0.5 2.8 -0.1 5.4 0.2 5.7 0.7 0.3 0.5 -1.3 5 -3.6 10 -3.6 7.8 -4 9.5 -3 11.1 0.7 1.1 1.1 2 1 1.9 -0.2 0 -2.7 -1.1 -5.5 -2.4z"/>
  <path d="M237.7 331.2 c-1.9 -2.1 -2.2 -6.7 -0.6 -7.8 0.8 -0.4 0.2 -1.2 -1.5 -2.1 -5.3 -2.8 -5.1 -8.4 0.4 -11.6 3.9 -2.4 6.7 -2.1 8.5 0.7 1.3 1.9 1.4 2.9 0.6 4.4 -0.9 1.7 -0.7 2.2 1.9 3.1 3.2 1.1 5.4 5.1 4.5 8.2 -0.9 2.9 -6.4 6.9 -9.4 6.9 -1.5 0 -3.5 -0.8 -4.4 -1.8z m9.7 -1.8 c1.9 -1.8 2 -2.8 0.6 -5.5 -1.5 -2.8 -8.6 -2.7 -9.5 0.1 -1.6 5 5.2 9.1 8.9 5.4z m-4.6 -14.2 c0.7 -4.6 -4 -6.9 -7.2 -3.6 -2 2 -2 2.9 0 4.9 2.4 2.4 6.8 1.6 7.2 -1.3z"/>
  <path d="M167.2 312 c-52.6 -5.4 -97.1 -41.3 -113.5 -91.5 -4.7 -14.4 -6.1 -23.7 -6.1 -40.5 0 -16.8 1.5 -26.8 6 -40.7 15 -46.1 54 -80.4 102.2 -90 11.9 -2.3 36.5 -2.3 48.4 0 48.2 9.6 87.2 43.9 102.2 90 4.5 13.9 6 23.9 6 40.7 0 21.2 -3.4 36.7 -12.1 56 -8.3 18.3 -26.5 40.1 -43.3 51.9 -25.9 18.2 -59.3 27.2 -89.8 24.1z m40.8 -5.9 c25.3 -5.8 46.9 -18 64.8 -36.5 16.9 -17.5 27.2 -36.3 33.3 -60.6 2.1 -8.4 2.4 -11.8 2.3 -29 0 -16.5 -0.3 -20.9 -2.2 -28.8 -11.9 -51 -53.6 -90.4 -104.2 -98.7 -12.1 -1.9 -31.9 -1.9 -44 0 -43.6 7.1 -81.3 37.6 -98 79.3 -7 17.3 -8.4 25.7 -8.4 48.2 -0.1 17.2 0.2 20.6 2.3 29 6.1 24.3 16.4 43.1 33.3 60.6 20.9 21.6 45.5 34 77.3 38.8 7.3 1.1 35.2 -0.3 43.5 -2.3z"/>
  <path d="M164.2 301 c-27.7 -3.9 -51.5 -15.9 -71.3 -36 -40.9 -41.5 -46.5 -104.8 -13.6 -154 6.4 -9.6 22.1 -25.3 31.7 -31.7 42.7 -28.6 95.3 -28.6 138 0 9.6 6.4 25.3 22.1 31.7 31.7 33.3 49.7 27.3 113.2 -14.7 155 -17.6 17.5 -37.6 28.4 -62 33.5 -8.9 1.9 -31 2.7 -39.8 1.5z m-13 -26.8 c1 -1 2.7 -4.9 3.8 -8.6 3 -10.7 7.4 -19.1 13.1 -25.1 8.8 -9.3 15 -9.3 23.8 0 5.6 6 10.1 14.4 13.1 25 2.3 7.9 4.1 10.2 8.5 11.1 4.3 0.8 8.9 -1.6 10.5 -5.6 1.9 -4.6 -0.8 -15.1 -7 -27.6 -5.7 -11.5 -10.9 -17.9 -19.1 -23.5 -3.2 -2.1 -6.3 -4.8 -6.9 -5.9 -0.5 -1 -1 -5.5 -1 -10 l0 -8.2 2.8 0.7 c12.6 3.1 29.6 21 40.8 43 7.2 14 8.5 15.5 14 15.5 3.5 0 4.7 -0.5 6.8 -3.1 3.8 -4.5 3.3 -7.9 -2.8 -20.1 -7.7 -15.2 -14.6 -24.9 -25.1 -35.3 -10.1 -10.1 -18.6 -15.5 -29.2 -18.8 l-7.3 -2.2 0 -4.2 c0 -3.3 -0.7 -5 -2.9 -7.5 -6.3 -7.1 -17.1 -2.4 -17.1 7.5 l0 4.2 -7.3 2.2 c-10.6 3.3 -19.1 8.7 -29.2 18.8 -10.5 10.4 -17.4 20.1 -25.1 35.3 -6.1 12.2 -6.6 15.6 -2.8 20.1 2.1 2.6 3.3 3.1 6.8 3.1 5.5 0 6.8 -1.5 14 -15.5 11.2 -22 28.2 -39.9 40.9 -43 l2.7 -0.7 0 8.2 c0 4.5 -0.5 9 -1 10 -0.6 1.1 -3.7 3.8 -6.9 5.9 -8.2 5.6 -13.4 12 -19.1 23.5 -6.2 12.5 -8.9 23 -7 27.5 0.7 1.8 2.5 3.8 3.9 4.6 3.2 1.9 8.8 1.2 11.3 -1.3z m-57.5 -59.5 c1.2 -0.7 5 -5.2 8.5 -10.1 15.8 -22.4 37.8 -40.6 55.8 -46.1 3 -0.9 6.8 -2.1 8.3 -2.7 5.5 -2.1 5.7 -3.7 5.7 -38.7 0 -34.5 -0.2 -36.1 -5.1 -38.7 -3.6 -1.8 -6.3 -1.8 -9.8 0.1 -3.7 1.9 -4.4 3.5 -5 12.8 l-0.6 7.8 -10.1 3.3 c-11.1 3.6 -25.1 10.3 -35.2 17 -9.5 6.2 -18.5 13.3 -19.9 15.9 -4 7.2 3.6 16.6 11.1 13.7 1.2 -0.4 6.3 -3.9 11.4 -7.7 10.3 -7.8 24.9 -15.7 36 -19.7 l7.2 -2.6 0 10.6 c0 10.1 -0.1 10.6 -2.2 11.2 -1.3 0.3 -6.2 2.5 -10.9 4.9 -19.5 9.7 -36.6 25.3 -53.3 48.7 -4.5 6.3 -5.6 8.6 -5.6 11.8 0 7.3 7.5 12 13.7 8.5z m183.4 -1.6 c4.8 -4.8 4.1 -9.2 -2.7 -18.7 -16.7 -23.4 -33.8 -39 -53.3 -48.7 -4.7 -2.4 -9.6 -4.6 -10.8 -4.9 -2.2 -0.6 -2.3 -1.1 -2.3 -11.2 l0 -10.6 7.3 2.6 c11 4 25.6 11.9 35.9 19.7 5.1 3.8 10.2 7.3 11.4 7.7 7.5 2.9 15.1 -6.5 11.1 -13.7 -1.4 -2.6 -10.4 -9.7 -19.9 -15.9 -10.1 -6.7 -24.1 -13.4 -35.2 -17 l-10.1 -3.3 -0.6 -7.8 c-0.6 -9.3 -1.3 -10.9 -5 -12.8 -3.5 -1.9 -6.2 -1.9 -9.8 -0.1 -4.9 2.6 -5.1 4.2 -5.1 38.7 0 35 0.2 36.6 5.7 38.7 1.5 0.6 5.3 1.8 8.3 2.7 18 5.5 40 23.7 55.8 46.1 3.5 4.9 7.3 9.4 8.5 10.1 3.8 2.1 7.6 1.5 10.8 -1.6z"/>
  <path d="M328 249 c0 -3.5 -7.7 -12.8 -11.7 -14.1 -3.2 -1 -3.8 -0.9 -5.1 0.7 -1.3 1.8 -1.4 1.7 -0.7 -0.6 0.5 -1.4 1.6 -4.3 2.6 -6.5 1.3 -3 1.8 -3.4 1.8 -1.8 0.1 3.4 5.6 4.8 13.9 3.3 3.7 -0.6 7.3 -1.7 8.1 -2.3 1.2 -1 1.3 -0.8 0.6 1.2 -1.2 4 -3.5 9.1 -4 9.1 -0.2 0 -0.2 -0.7 0.2 -1.7 0.6 -1.4 0 -1.5 -5.2 -0.9 -3.3 0.4 -6.1 0.9 -6.3 1.1 -0.3 0.2 1 2.2 2.8 4.5 3.1 3.9 6 5.3 6 2.8 0 -0.6 0.2 -0.9 0.5 -0.6 0.6 0.5 -2.2 7.8 -3 7.8 -0.3 0 -0.5 -0.9 -0.5 -2z"/>
  <path d="M26.6 240 c-3 -8.2 -3.2 -10.3 -1 -12.4 2.6 -2.6 6.9 -2 9.8 1.5 1.4 1.7 2.6 3.7 2.6 4.5 0 0.8 0.7 1.4 1.5 1.4 2.3 0 7.2 -2.7 7.7 -4.2 0.3 -0.7 1.2 0.9 2.1 3.6 0.9 2.7 1.5 5.2 1.2 5.4 -0.3 0.3 -0.5 0 -0.5 -0.6 0 -0.7 -0.6 -1.2 -1.4 -1.2 -2.6 0 -17.1 6 -18.2 7.5 -0.9 1.3 -1.6 0.2 -3.8 -5.5z m9.9 -3.8 c1.3 -0.7 1.3 -1.1 -0.1 -3 -3.1 -4.5 -10.7 -1.3 -9.7 4.1 0.5 2.5 0.6 2.5 4.4 1.2 2.2 -0.8 4.6 -1.8 5.4 -2.3z"/>
  <path d="M338.8 208 c1.8 -1.1 3.2 -2.8 3.2 -3.9 0 -2.1 -1.9 -2.6 -13.2 -3.7 -6.9 -0.6 -7.6 -0.5 -8.1 1.2 -0.3 1.4 -0.5 1.2 -0.5 -0.6 -0.1 -3.4 1.5 -12.1 1.7 -9.3 0.1 2.4 1 2.7 13.9 4.1 l7.2 0.8 0 -2.7 c0 -1.7 -0.8 -3.4 -2.2 -4.3 -2.2 -1.6 -2.2 -1.6 1.1 -1.6 3 0 3.2 0.2 2.7 2.8 -0.3 1.5 -0.8 5.6 -1.1 9.2 -0.9 9.5 -1.2 10 -4.8 10 l-3.2 0 3.3 -2z"/>
  <path d="M17.7 208 c-0.8 -2.1 -2.4 -18 -1.8 -18.5 0.2 -0.3 1.6 -0.5 2.9 -0.5 l2.5 0 -2.1 2.3 c-2.2 2.4 -3 8.1 -1.3 9.2 0.6 0.3 2.8 0.3 5 -0.1 3.4 -0.6 4.1 -1 4.1 -3 0 -1.5 -1 -2.9 -2.7 -3.8 l-2.8 -1.5 3.7 -0.1 c2 0 4.5 -0.3 5.5 -0.6 1.4 -0.4 1.3 -0.1 -0.4 1.2 -1.5 1 -2.3 2.7 -2.3 4.5 0 2.6 0.2 2.7 3.8 2.3 6.2 -0.9 6.3 -1 6 -5.6 -0.3 -3.8 -0.7 -4.5 -3.8 -6 l-3.5 -1.7 3.7 -0.1 c4.3 0 4.4 0.2 5.4 11.4 0.4 5.5 0.3 7.7 -0.4 7.2 -0.6 -0.3 -5.3 -0.1 -10.6 0.5 -7.2 0.9 -9.6 1.6 -9.9 2.8 -0.3 1.4 -0.5 1.4 -1 0.1z"/>
  <path d="M37.1 170.4 c-0.1 -1.9 -1 -2.3 -9.8 -3.4 -8.8 -1.2 -9.7 -1.2 -10.9 0.4 -1 1.5 -1.1 1.1 -0.7 -2.6 0.7 -5.1 2.1 -9.4 2.2 -6.6 0.1 1 1.1 2 2.4 2.2 5.2 1.1 7.7 1.3 7.7 0.6 0 -1.9 -7.3 -10.1 -8.6 -9.6 -1.6 0.6 -1.8 -3.5 -0.4 -6.9 0.8 -1.8 0.9 -1.8 0.9 0.6 0.1 1.4 1.5 4.5 3.1 6.8 l3.1 4.2 5 -2.8 c2.8 -1.5 6.5 -4 8.1 -5.5 l3 -2.8 -0.7 4.3 c-0.4 2.3 -0.8 4.2 -0.9 4.3 0 0 -2.7 1.5 -5.8 3.3 -3.2 1.8 -5.8 3.6 -5.8 4 0 0.5 1.9 1.1 4.2 1.5 3.3 0.5 4.5 0.3 5.4 -0.9 1 -1.3 1.1 -0.8 0.7 2.7 -0.3 2.4 -0.9 5.2 -1.4 6.3 -0.8 1.9 -0.8 1.9 -0.8 -0.1z"/>
  <path d="M321 168.3 c0 -1.7 -0.3 -4.6 -0.6 -6.4 -0.4 -2.9 -0.3 -3.1 0.6 -1.6 1.1 1.7 2.1 1.8 9.4 1.2 10.1 -0.8 11.6 -1.2 11.7 -3.3 0 -1.4 0.2 -1.3 0.9 0.3 1.1 2.7 1.3 10.4 0.1 8.7 -0.6 -1.1 -2.8 -1.2 -10 -0.7 -7.7 0.6 -9.4 1.1 -10.6 2.9 -1.5 2 -1.5 2 -1.5 -1.1z"/>
  <path d="M317.7 140.9 c-2.5 -1.5 -4.7 -6.3 -4.7 -10.4 0 -2.1 -0.5 -3.5 -1.2 -3.6 -0.7 0 0.5 -0.9 2.7 -1.9 4.7 -2.2 5.6 -1.8 2.8 1.3 -3.1 3.3 -3.7 6.4 -1.9 9.2 2 3 5.1 3.2 6.6 0.6 0.5 -1.1 1 -4.2 1 -6.9 0 -5.4 2 -8.2 5.9 -8.2 4.9 0 7.3 3.2 8.4 11.2 0.5 3.3 0.3 3.7 -2.4 4.7 -3.5 1.2 -3.5 0.9 -0.8 -2.8 2.4 -3.2 2.2 -6.9 -0.3 -8.5 -3.3 -2 -5.2 0.4 -5.8 7.1 -0.3 3.3 -1.1 6.7 -1.9 7.6 -1.5 1.9 -5.7 2.2 -8.4 0.6z"/>
  <path d="M46 130.8 c0 -1.1 -3.1 -2.8 -9.2 -5.3 -8.7 -3.4 -9.3 -3.6 -10.5 -1.9 -1.8 2.5 -1.6 1.4 0.9 -5.2 1.9 -4.8 2.3 -5.4 2.8 -3.5 0.4 1.8 2.4 3.1 9.3 5.8 8.5 3.4 8.8 3.5 10.3 1.7 0.9 -1.2 0.7 0.1 -0.7 3.6 -2.3 6.1 -2.9 7.1 -2.9 4.8z"/>
  <path d="M304.3 111.6 l-2.1 -3.3 2.6 -6.6 c2.3 -6.1 2.7 -6.5 4.2 -5.2 3.8 3.4 9.8 0 8.6 -5 -0.4 -1.4 -1.1 -2.5 -1.6 -2.5 -2 0 -16.9 10.2 -17.2 11.8 -0.2 1 -1.2 0.2 -3 -2.6 -3.1 -4.6 -3.5 -6.1 -1.4 -4.3 2 1.7 17.9 -8.5 17.3 -11.1 -0.8 -3 0.1 -2.1 4.8 4.9 5.2 7.8 5.7 11.5 2.1 13.8 -1.9 1.3 -2.9 1.4 -4.5 0.6 -1.1 -0.6 -2.4 -1.1 -3 -1.1 -0.9 0 -3.7 7.5 -4.3 11.7 -0.3 2.1 -0.5 2 -2.5 -1.1z"/>
  <path d="M57 105.9 c0 -3.4 -12 -12.3 -15.6 -11.6 -2.9 0.5 -2.9 0.3 -0.3 -3.2 2 -2.7 2.6 -2.9 12 -3.6 5.4 -0.3 9.9 -1 9.9 -1.3 0 -0.4 -2.3 -2.2 -5.1 -4.1 -4.3 -2.9 -5.4 -3.3 -7 -2.3 -2.7 1.7 -2.3 0.3 1 -3.8 2.8 -3.3 2.9 -3.3 2.4 -0.9 -0.4 2.3 0.4 3.3 7.7 8.4 4.4 3.1 7.9 6.2 7.7 6.9 -0.2 0.6 -4.2 1.4 -9.8 1.8 -16 1.2 -15.2 0.7 -8.4 5.6 4.3 3.1 6.6 4.1 8.2 3.7 2.9 -0.7 2.8 -0.6 -0.2 3.5 -2.4 3.3 -2.5 3.3 -2.5 0.9z"/>
  <path d="M275.5 75.5 c-4.4 -4.1 -7.1 -7.2 -6 -6.9 1.5 0.4 3.5 -1.2 8.3 -6.6 4.2 -4.6 6.2 -7.6 5.8 -8.6 -0.9 -2.4 0.6 -1.4 7.7 5.1 l6.5 6.1 -1.9 2.4 -1.9 2.5 0 -3.6 c0 -2.5 -0.8 -4.3 -2.5 -5.9 -2.4 -2.3 -2.5 -2.3 -4.6 -0.4 -5.2 4.7 -4.3 9.1 1.5 8 l3 -0.6 -3.4 3.5 c-1.9 1.9 -3.5 3.5 -3.5 3.5 -0.1 0 0 -1.3 0.3 -2.8 0.2 -1.8 -0.2 -3.3 -1.3 -4.2 -1.3 -1.1 -2 -0.9 -4.5 1.5 -3.6 3.5 -3.8 5.4 -0.6 8.4 2.1 2 3.1 2.2 6.3 1.6 l3.8 -0.7 -2.4 2.6 c-1.4 1.4 -2.5 2.6 -2.5 2.6 -0.1 -0.1 -3.7 -3.4 -8.1 -7.5z"/>
  <path d="M76 69.2 c-3.4 -3.4 -4 -4.6 -4 -8.2 0 -5 2.7 -9.3 7.3 -11.7 1.8 -0.8 3.5 -2.1 3.9 -2.7 0.5 -0.7 1.6 0 3.2 1.9 2.7 3.4 2.7 4.1 -0.2 2.6 -1.2 -0.6 -3.2 -1.1 -4.6 -1.1 -7.8 0 -7.4 11.3 0.7 17.4 4.1 3.1 7.7 3.3 10.3 0.5 1.7 -1.9 1.7 -2.3 0.3 -4.7 -1.2 -2.1 -2.2 -2.7 -4.5 -2.5 l-2.9 0.2 2.5 -2 c5.5 -4.3 8.5 -6.3 7.2 -4.7 -1.1 1.4 -1 2.1 0.8 4.6 2.6 3.4 2.1 4.8 -3.3 10.1 -2.6 2.5 -4.7 3.5 -8.1 3.8 -4.3 0.5 -4.8 0.3 -8.6 -3.5z"/>
  <path d="M245 50.8 c0.1 -2.4 0.5 -7.7 1 -11.8 0.5 -4.8 0.5 -8.1 -0.2 -9.3 -0.8 -1.6 -0.1 -1.4 4.1 0.9 3 1.7 4.5 3 3.6 3.2 -1.7 0.4 -2.1 2 -3 11 -0.3 3.4 -0.2 6.2 0.2 6.2 0.4 0 3.5 -2.5 6.8 -5.4 5.2 -4.7 5.8 -5.5 4.6 -7 -1.8 -2.1 -0.4 -2 3.9 0.4 3.1 1.7 3.2 1.9 1.2 2 -1.4 0 -5.9 2.9 -10.9 7 -4.7 3.9 -9.2 7 -9.9 7 -1 0 -1.4 -1.3 -1.4 -4.2z"/>
  <path d="M134.2 41.8 c-1.1 -1.3 -2.8 -5.4 -3.8 -9.1 -1.2 -5.1 -2.2 -7.1 -3.8 -7.7 -1.2 -0.5 -1.6 -0.9 -1.1 -0.9 0.6 -0.1 3.2 -0.8 5.9 -1.6 4.3 -1.3 4.7 -1.3 3.6 0 -1 1.2 -0.9 2.9 0.4 8.2 2.3 8.9 3.9 11.3 7.6 11.3 3.4 0 7 -3.1 7 -5.9 0 -1 -0.9 -4.9 -2 -8.5 -1.7 -5.5 -2.5 -6.6 -4.2 -6.6 -3.1 0 -1.1 -1.6 3.6 -2.9 3.7 -1 3.8 -1 2.1 0.9 -1.7 1.8 -1.7 2.3 -0.1 8.4 2.3 9.2 2.1 11 -1.5 14 -4.1 3.5 -10.6 3.6 -13.7 0.4z"/>
  <path d="M214 42.6 c-3.4 -0.9 -4 -1.3 -2.5 -1.8 1.6 -0.4 2.5 -2.4 4.4 -9.8 2.4 -9.1 2.4 -9.3 0.5 -10.7 -1.9 -1.5 -1.9 -1.5 0.1 -1 9.8 2.7 10.9 3.1 9 3.4 -1.7 0.3 -2.5 2.1 -4.5 9.9 -2 8.2 -2.2 9.7 -0.9 10.5 2 1.2 -0.3 1.1 -6.1 -0.5z"/>
  <path d="M182.4 30 c-3.8 -4.9 -7.2 -9 -7.6 -9 -1 0 -1 13.1 0 14.6 0.4 0.6 1.4 1.4 2.2 1.7 0.8 0.3 -0.7 0.5 -3.5 0.5 -2.7 0 -4.3 -0.2 -3.4 -0.5 2.2 -0.5 2.9 -3.3 2.9 -11.5 0 -5.5 -0.4 -7.2 -2 -8.8 l-2 -2 3.9 0 c3.6 0 4.3 0.5 9.6 7.3 3.2 3.9 6.2 7.6 6.7 8.2 0.4 0.5 0.8 -2.2 0.8 -6.1 0 -6.4 -0.2 -7.2 -2.2 -8.2 -2 -0.9 -1.5 -1.1 3.2 -1.1 5.2 -0.1 5.3 0 3.2 1.5 -2 1.4 -2.2 2.3 -2.2 12 0 8.1 -0.3 10.4 -1.4 10.4 -0.7 0 -4.4 -4 -8.2 -9z"/>
 </g>
</svg>