<?xml version="1.0" encoding="utf-8"?>
<!DOCTYPE svg PUBLIC "-//W3C//DTD SVG 1.0//EN" "http://www.w3.org/TR/2001/REC-SVG-20010904/DTD/svg10.dtd">
<svg version="1.0" xmlns="http://www.w3.org/2000/svg" width="99px" height="98px" viewBox="0 0 99 98" preserveAspectRatio="xMidYMid meet">
 <g fill="#ffffff">
  <path d="M0 49 l0 -49 49.5 0 49.5 0 0 49 0 49 -49.5 0 -49.5 0 0 -49z m53.3 30.3 c6.1 -5.5 11.6 -8.6 17 -9.8 2.3 -0.5 2.7 -1 2.7 -4 0 -3.2 0.3 -3.5 2.9 -3.5 1.6 0 4.1 0.4 5.5 1 1.4 0.5 2.6 0.8 2.6 0.6 0 -1.9 -14.6 -40.9 -17 -45.5 -3.8 -7 -4.2 -6.9 -8.8 1.2 -4.2 7.4 -11.7 15.4 -15.6 16.7 -1.9 0.6 -5.6 3.4 -8.2 6.2 -4 4.3 -6.4 5.8 -15.1 9.2 l-10.2 4.2 6.7 4.8 c3.7 2.7 8.1 5.3 9.8 5.8 6.2 1.7 9.8 5 13.8 13 4.5 9 4 9 13.9 0.1z"/>
 </g>
 <g fill="#f1af38">
  <path d="M37.5 84.4 c-1.9 -4.2 -3.5 -7.8 -3.5 -8 0 -1.2 4.9 -0.1 5.4 1.1 0.4 1.2 2.5 1.5 10.3 1.5 l9.7 0 -3.5 3.6 c-3.1 3.2 -12.3 9.4 -14.1 9.4 -0.4 0 -2.3 -3.4 -4.3 -7.6z"/>
  <path d="M61.1 36 c-1.2 -5.5 -1.5 -20.8 -0.5 -23.4 0.9 -2.3 7 -2.1 8.3 0.2 1.5 2.7 2.4 19 1.4 23.7 -0.8 3.7 -1.2 4 -4.5 4.3 -3.6 0.3 -3.6 0.3 -4.7 -4.8z"/>
 </g>
 <g fill="#529dcf">
  <path d="M95 75.5 c0 -0.9 0.5 -1.5 1.1 -1.3 0.6 0.2 1.1 0.8 1.1 1.3 0 0.5 -0.5 1.1 -1.1 1.3 -0.6 0.2 -1.1 -0.4 -1.1 -1.3z"/>
  <path d="M13.9 64.3 c-3.5 -2.6 -7.9 -5.8 -9.8 -7.1 l-3.4 -2.5 13.3 -5.3 c7.3 -2.9 13.8 -6.1 14.6 -7.1 1.2 -1.6 1.3 -1.4 1.4 1.8 0 3.4 -0.3 3.7 -4.5 5.3 -2.5 1 -4.5 2.3 -4.5 3 0 0.6 0.7 3.8 1.5 6.9 3 11.4 1.4 12.3 -8.6 5z"/>
  <path d="M52.5 20.3 c2.4 -3.8 5.4 -8 6.6 -9.6 2.4 -3.2 5.9 -3.7 5.9 -0.7 0 1.3 -0.7 2 -1.9 2 -1.2 0 -2 0.9 -2.4 2.9 -0.3 1.6 -1.3 3.6 -2.2 4.4 -0.8 0.9 -1.5 2 -1.5 2.6 0 0.6 -0.4 1.1 -0.9 1.1 -0.5 0 -1.1 0.9 -1.4 2 -0.4 1.5 -1.4 2 -3.6 2 l-3.1 0 4.5 -6.7z"/>
 </g>
 <g fill="#5595c4">
  <path d="M21.3 68.5 c-3.4 -1.4 -4.7 -2.9 -1.5 -1.8 1.4 0.6 1.5 0.4 0.5 -0.8 -0.6 -0.8 -1.1 -1.7 -1.1 -2.2 0 -0.4 -0.3 -2.9 -0.8 -5.5 -0.4 -2.6 -0.6 -5.3 -0.5 -6.1 0.1 -0.8 -0.2 -1.7 -0.8 -2 -0.6 -0.4 1.9 -2.1 5.5 -3.8 l6.5 -3 -0.2 3.6 c-0.3 4.7 1 12.1 2.2 12.1 2 0 0.9 6.7 -1.4 8.8 -2.7 2.5 -4 2.6 -8.4 0.7z"/>
  <path d="M37 51.6 c0 -1.9 0.7 -4.1 1.5 -5 0.8 -0.8 1.5 -1.9 1.5 -2.5 0 -0.6 0.7 -1.1 1.5 -1.1 0.9 0 1.5 -0.9 1.5 -2.5 0 -2.2 0.4 -2.5 3.5 -2.5 3.3 0 3.5 0.2 3.5 3.5 0 2.4 -0.5 3.5 -1.5 3.5 -0.9 0 -1.5 0.9 -1.5 2.5 0 1.4 -0.4 2.5 -0.9 2.5 -0.5 0 -1.2 1.1 -1.5 2.5 -0.5 2.1 -1.2 2.5 -4.1 2.5 -3.3 0 -3.5 -0.2 -3.5 -3.4z"/>
  <path d="M45 30.9 c0 -0.7 1.8 -3.1 3.9 -5.5 2.2 -2.3 5.4 -6.8 7.2 -9.8 2.7 -4.9 5.3 -7.6 7.3 -7.6 1.1 0 0.6 4.6 -0.6 5.8 -0.7 0.7 -2 1.2 -3 1.2 -1.4 0 -1.8 0.8 -1.8 3.5 0 1.9 -0.4 3.5 -0.9 3.5 -0.5 0 -1.2 1.4 -1.6 3 -0.4 1.7 -1 3 -1.5 3 -0.4 0 -1 0.9 -1.3 2 -0.4 1.5 -1.4 2 -4.1 2 -2 0 -3.6 -0.5 -3.6 -1.1z"/>
 </g>
 <g fill="#eb8736">
  <path d="M36.5 81 c-1.5 -2.9 -1.5 -2.9 1.7 -3.4 1.8 -0.3 6.3 -1 9.9 -1.6 14.1 -2.2 17.4 -0.7 10 4.4 -3.4 2.4 -4.5 2.7 -8.4 2.1 -2.4 -0.4 -6 -0.2 -8.1 0.3 -3.4 1 -3.7 0.9 -5.1 -1.8z"/>
  <path d="M88.8 76.3 c-1 -0.2 -1.8 -0.9 -1.8 -1.5 0 -0.5 0.7 -0.7 1.6 -0.4 1.4 0.5 1.5 0.4 0.4 -0.9 -1 -1.3 -0.9 -1.5 0.8 -1.5 1.1 0 2.3 0.7 2.6 1.6 1.3 3.4 0.6 3.8 -3.6 2.7z"/>
  <path d="M60.7 56.8 c-1 -26.3 -0.9 -29.8 0.7 -29.8 1 0 1.9 2 2.6 5.6 1.6 7.7 3.5 5.6 3.4 -3.9 0 -12 -2.3 -18.9 -4 -12.2 -0.3 1.4 -1.3 2.5 -2.1 2.5 -1.1 0 -1.3 -1.1 -1.1 -4.2 0.3 -4 0.5 -4.3 3.5 -4.6 6.1 -0.6 7.4 3.5 9.7 31.8 0.9 10 1.8 18.6 2.1 19.1 0.4 0.5 1.7 0.9 3.1 0.9 1.9 0 2.4 0.5 2.4 2.5 0 2.2 -0.3 2.4 -2.5 1.5 -2.9 -1.1 -3.3 -0.3 -0.7 1.6 1.5 1.2 1.5 1.3 -1 1.4 -1.4 0 -4 1.1 -5.6 2.5 -1.9 1.6 -4.2 2.5 -6.4 2.5 l-3.5 0 -0.6 -17.2z"/>
 </g>
 <g fill="#5a86b0">
  <path d="M57.9 79.7 c0.9 -1.1 1 -1.7 0.2 -1.7 -2.3 0 -1 -3.7 2.4 -7 2.6 -2.5 3.5 -3 3.5 -1.7 0 0.9 0.3 1.7 0.6 1.7 1.3 0 8.3 -6.4 7.8 -7.1 -0.3 -0.5 1 -0.9 2.8 -0.9 6 0 20.1 11 17.5 13.7 -0.3 0.2 -4 -0.7 -8.2 -2.2 -10.1 -3.4 -15.2 -2.5 -24.5 4.4 -1.9 1.4 -2.9 1.8 -2.1 0.8z m29.1 -7.8 c-4.8 -4.4 -9.8 -7.4 -10.8 -6.5 -0.3 0.3 -0.3 0.8 -0.1 1 1 0.9 14.5 9.5 14.9 9.5 0.3 0 -1.5 -1.8 -4 -4z"/>
  <path d="M32.6 75.4 c-1 -1.5 -4.1 -3.6 -6.8 -4.9 -4 -1.9 -4.6 -2.4 -3 -2.9 1 -0.4 3 -1.8 4.3 -3.3 1.3 -1.4 1.9 -2.3 1.3 -2 -1.3 0.7 -4 -12.2 -3.1 -14.7 0.4 -1.1 0.1 -1.4 -1.1 -1 -1.2 0.4 -1.1 0.1 0.3 -0.8 1.2 -0.7 4.2 -3.6 6.9 -6.5 2.6 -2.9 6.2 -5.7 8 -6.3 1.8 -0.6 5 -2.8 7.1 -5 2.1 -2.1 4.2 -3.7 4.7 -3.4 0.5 0.3 0.7 0.2 0.6 -0.3 -0.4 -1.2 5.1 -10.3 8.1 -13.6 1.3 -1.5 3.1 -2.7 3.8 -2.7 2.1 0 2.7 2.9 1.1 4.8 -0.8 0.9 -3.4 6.7 -5.8 12.7 -5.7 14.6 -12.2 27.1 -18.6 36 -4.8 6.8 -5.1 7.6 -4.7 11.9 0.6 5.2 -0.3 5.8 -3.1 2z"/>
 </g>
 <g fill="#e47636">
  <path d="M35.1 78.6 c-1.2 -1.8 -2.1 -3.6 -2.1 -4 0 -1 4.8 -0.7 5.2 0.4 0.5 1.4 11.9 -0.8 15.6 -3 4.6 -2.8 5.2 -6.7 5.2 -32.7 0 -22 0.1 -23.3 1.8 -23.3 1.8 0 1.9 1.7 2.6 27.2 0.4 15 0.9 27.5 1.2 27.7 0.2 0.2 1.6 -0.6 3.1 -2 1.6 -1.3 0.1 0.5 -3.1 4.1 -7 7.6 -8.5 9.2 -6.7 6.8 0.7 -1 1.1 -1.8 0.9 -1.8 -1.9 0 -20 3 -20.7 3.5 -0.5 0.3 -1.9 -1 -3 -2.9z"/>
  <path d="M85 69.9 c-5 -4 -7.6 -4.9 -11 -3.9 -2.5 0.7 -3 0.7 -2.1 -0.4 0.6 -0.7 0.9 -1.5 0.6 -1.8 -0.3 -0.3 -1.2 -8.5 -2 -18.4 -0.8 -9.8 -2 -20.5 -2.6 -23.8 -0.6 -3.2 -0.8 -6 -0.5 -6.3 1.5 -1.5 3.6 1.2 4.6 6 0.6 3.1 1.7 5.8 2.4 6 0.8 0.3 2.1 2.6 2.9 5.1 l1.6 4.6 -2.5 0 c-2.3 0 -2.4 0.2 -1.8 4.3 0.8 6.4 3.5 20 4 20.9 0.3 0.4 1.6 0.8 3 0.8 1.9 0 2.4 -0.5 2.4 -2.6 0 -4.1 2.2 -2.3 4.6 3.7 1.6 3.7 1.9 5.5 1.1 5.8 -0.7 0.2 -1.4 0.8 -1.7 1.2 -0.3 0.4 -1.7 -0.1 -3 -1.2z"/>
  <path d="M80.6 54.8 c-0.3 -1.3 -0.6 -3.6 -0.6 -5.1 0 -4.2 2.2 -2.8 4.2 2.6 l1.8 4.7 -2.4 0 c-1.6 0 -2.6 -0.7 -3 -2.2z"/>
  <path d="M63 10.5 c0 -3.5 1.8 -3.2 4.9 0.8 1.2 1.5 1.1 1.7 -1.8 1.7 -2.6 0 -3.1 -0.4 -3.1 -2.5z"/>
 </g>
 <g fill="#e06d36">
  <path d="M32.6 74.4 l-3.6 -5.6 3.6 -4 c7.7 -8.6 15.7 -23 23.3 -41.8 2.3 -5.8 5 -11.6 6.1 -13 1.8 -2.4 1.8 -2.4 4 -0.5 3.4 3.1 6.7 10.4 13.2 28.9 3.2 9.3 7.7 21.6 9.9 27.3 2.3 5.7 3.9 10.6 3.7 10.9 -0.3 0.2 -2.8 -1.9 -5.7 -4.7 -5.3 -5.1 -9.4 -7.4 -11.7 -6.5 -0.8 0.3 -1.1 0 -0.8 -0.8 0.3 -0.8 0.1 -3.1 -0.5 -5.2 -0.6 -2.2 -1.9 -11.1 -3 -19.9 -2.2 -17.5 -4.5 -26.9 -6.4 -26.2 -2 0.6 -2.5 5.4 -2.6 29.2 -0.1 12.7 -0.6 24.7 -1.2 26.8 -0.5 2.1 -2.1 4.4 -3.5 5.4 -2.2 1.4 -16.2 5.1 -20 5.2 -0.6 0.1 -2.8 -2.4 -4.8 -5.5z"/>
  <path d="M64.5 72 c2.1 -2.2 4.1 -4 4.4 -4 0.3 0 -1.3 1.8 -3.4 4 -2.1 2.2 -4.1 4 -4.4 4 -0.3 0 1.3 -1.8 3.4 -4z"/>
  <path d="M33.5 47.9 c-2.2 -1.6 -4.1 -3.4 -4.3 -3.8 -0.1 -0.4 2.1 -0.8 5 -0.8 2.9 0 6.3 -0.3 7.6 -0.7 1.8 -0.6 2.1 -0.4 1.5 1.1 -0.8 2.2 -4.5 7.3 -5.2 7.3 -0.3 0 -2.4 -1.4 -4.6 -3.1z"/>
 </g>
</svg>