<?xml version="1.0" encoding="utf-8"?>
<!DOCTYPE svg PUBLIC "-//W3C//DTD SVG 1.0//EN" "http://www.w3.org/TR/2001/REC-SVG-20010904/DTD/svg10.dtd">
<svg version="1.0" xmlns="http://www.w3.org/2000/svg" width="667px" height="715px" viewBox="0 0 667 715" preserveAspectRatio="xMidYMid meet">
 <g fill="#ffffff">
  <path d="M0 357.50 l0 -357.50 333.50 0 333.50 0 0 357.50 0 357.50 -333.50 0 -333.50 0 0 -357.50z m332.75 313.45 c4.35 -0.50 11.40 -2.10 20.30 -4.60 6.85 -1.95 19.30 -8.35 26.95 -13.85 5.90 -4.20 9.80 -7.65 15.75 -13.80 5.50 -5.70 5.50 -5.70 10 -7.25 4.85 -1.65 22.35 -10.40 28 -14 1.95 -1.25 4.65 -2.90 6 -3.65 1.40 -0.80 5.45 -3.55 9.10 -6.15 5.05 -3.60 7.75 -5.20 11.50 -6.60 10.55 -4.10 14.10 -5.70 18.65 -8.40 9.30 -5.55 13.60 -8.85 21.70 -16.65 5.20 -5 13.95 -15.50 14.80 -17.70 0.25 -0.75 1.35 -2.65 2.40 -4.20 4.90 -7.35 11.15 -23.65 13.40 -34.85 0.40 -2.20 0.95 -8.25 1.20 -13.50 0.40 -9.25 0.45 -9.65 2.40 -15.50 3.15 -9.40 5 -16.15 5.80 -20.60 0.65 -4.05 0.75 -4.20 4.80 -9.20 2.25 -2.85 4.30 -5.65 4.50 -6.25 0.25 -0.65 1.35 -2.45 2.40 -4.05 2.35 -3.40 5.10 -8.75 5.65 -10.90 0.20 -0.80 1.20 -3.60 2.15 -6.20 6.25 -16.30 7.50 -33.20 3.70 -50.05 -1.15 -5.25 -6.15 -19.40 -8.05 -23.05 -3.55 -6.60 -9 -14.75 -13.30 -19.75 -4.20 -4.90 -13.05 -13 -17.45 -15.95 -2.80 -1.90 -3.55 -2.75 -5.85 -6.75 l-2.60 -4.60 -0.10 -7.50 c-0.05 -8.55 -1.70 -19.45 -3.90 -25.85 -2.60 -7.65 -7.75 -19.35 -9.80 -22.15 -0.75 -1.05 -2.25 -3.40 -3.35 -5.15 -2.90 -4.75 -7.15 -9.80 -13.60 -16.05 -6.05 -5.95 -11.15 -9.90 -17.90 -14 -4.10 -2.45 -4.25 -2.65 -4.40 -4.50 -0.05 -1.05 0.05 -2.20 0.30 -2.55 0.20 -0.35 3.10 -1.30 6.35 -2.15 9.80 -2.50 11.60 -3.35 15 -6.75 2.15 -2.15 3.35 -3.80 4 -5.70 l1 -2.70 5.25 -2.35 c2.90 -1.25 6.45 -3.20 7.90 -4.25 3.30 -2.45 5.95 -6.65 6.75 -10.75 l0.65 -3 5.30 -4 c2.90 -2.20 6.20 -5 7.35 -6.30 2.55 -2.90 4.05 -6.85 4.05 -10.65 l0 -2.95 3.90 -3.95 c6.20 -6.35 7.45 -9.55 6.40 -16.45 l-0.40 -2.50 3.50 -4.60 c5.20 -6.80 6.45 -10.85 4.85 -15.35 -1.10 -3.05 -0.95 -3.90 1.70 -8.55 3.85 -6.70 3.95 -12.15 0.25 -17 -2.15 -2.80 -2.20 -4.65 -0.15 -8.40 3.75 -6.85 0.55 -15.05 -7.40 -19.10 -2.80 -1.40 -3.15 -1.45 -9 -1.35 -5.55 0.15 -6.10 0.05 -6.40 -0.80 -0.15 -0.50 -1.45 -2.05 -2.90 -3.40 -4.30 -4.05 -9.90 -5.65 -20.05 -5.65 -5.35 0 -5.45 0 -7.20 -1.55 -1 -0.90 -3.05 -2.20 -4.60 -2.90 -2.50 -1.20 -3.30 -1.30 -9.05 -1.30 l-6.30 0 -1.70 -1.70 c-2.40 -2.40 -6.15 -4.05 -9.20 -4.05 -1.35 0 -4.75 0.55 -7.50 1.25 -6.35 1.60 -8.75 1.60 -11.15 0.05 -5.10 -3.30 -9.55 -2.95 -18.95 1.50 -4.15 2 -5.20 2.05 -8.75 0.65 -4.50 -1.75 -7.75 -1.05 -15.15 3.25 -3.30 1.95 -5.30 2.20 -8.50 1.05 -2.90 -1.05 -3.65 -1 -8.90 0.90 -1.85 0.65 -6.25 4.10 -10.15 7.90 l-3.10 2.95 -3.90 0 c-5.85 0 -8.75 1.55 -15.35 8.10 -5.20 5.15 -13.55 15.75 -15.20 19.25 -0.45 1.05 -1.65 3.25 -2.65 4.90 -2.15 3.60 -5 9.50 -5 10.40 0 0.40 -0.15 0.80 -0.30 1 -0.35 0.35 -2.15 5.30 -3.75 10.25 -1 3.15 -1 3.15 -2.80 3 l-1.75 -0.15 -1.95 -6.25 c-2.85 -9.25 -9.75 -22.70 -15.90 -30.85 -6 -8.05 -13.70 -15.80 -17.85 -18.05 -2.70 -1.40 -3.55 -1.60 -6.90 -1.60 l-3.85 0 -5.10 -4.40 c-6.90 -6 -7.80 -6.55 -11.80 -7.35 -3.05 -0.65 -3.70 -0.65 -5.55 0 -3.55 1.25 -5.30 0.95 -9.45 -1.50 -6.75 -3.90 -10.35 -4.60 -14.50 -2.75 -3.05 1.40 -4.70 1.25 -9 -0.80 -5.15 -2.45 -8.85 -3.70 -11.05 -3.70 -2.50 0 -6.15 1.15 -7.80 2.45 -1.80 1.40 -4.70 1.35 -10.95 -0.20 -8.30 -2.05 -11.60 -1.50 -16.50 2.75 l-2.40 2.10 -4.85 -0.35 c-3.75 -0.25 -5.40 -0.15 -7.50 0.45 -3 0.90 -6.30 2.70 -7.70 4.25 -0.85 0.95 -1.50 1.05 -6.65 1.05 -6.45 0 -12.20 1 -15.90 2.80 -3 1.45 -3.95 2.25 -6.20 5.10 l-1.70 2.20 -5.30 -0.35 -5.30 -0.35 -3.60 1.85 c-8.30 4.15 -11.20 11.75 -7.50 19.35 1.75 3.60 1.75 5.50 -0.10 7.80 -1.95 2.45 -3.25 7 -2.80 9.75 0.50 2.85 2 6.60 3.80 9.40 1.65 2.55 1.75 3.80 0.70 6.70 -1.65 4.65 -0.55 8.05 5 15.45 3.20 4.25 3.35 4.60 3.05 6.50 -1 6.15 -1 6.15 0.70 9.65 1.15 2.25 2.90 4.60 5.55 7.30 l3.90 3.95 0 3.25 c-0.05 6.20 3.80 11.40 13.60 18.30 3.20 2.25 3.30 2.45 3.60 4.80 0.35 3 1.80 5.90 4.20 8.60 2.55 2.80 5.05 4.40 11.30 7.25 2.95 1.35 5.35 2.70 5.35 3.10 0 1.60 2.70 6.15 4.75 8.05 2.70 2.50 3.80 3 11.25 5.20 l5.75 1.65 0.15 1.75 c0.15 1.60 0 1.80 -2.50 3.10 -4.90 2.50 -10.45 5.80 -12.55 7.45 -9.45 7.25 -14.50 12 -19.95 18.85 -3.60 4.45 -10.85 15.60 -11.80 18.20 -0.55 1.40 -1.80 4.30 -2.75 6.35 -5.15 11.10 -7.80 23.90 -7.90 37.90 l0 7.65 -2.80 5.25 c-1.65 3.10 -3.30 5.60 -4.10 6.10 -2.15 1.35 -9.15 7.25 -12.60 10.65 -9.95 9.75 -18.40 23.50 -23.15 37.70 -4.05 12 -5 17.65 -5 30 -0.05 12.15 0.65 16.10 5.20 30.50 1.75 5.55 2.90 8.15 5.90 13.50 1.55 2.75 3.15 5.65 3.55 6.45 0.65 1.40 4.90 7.20 8.45 11.60 1.15 1.45 1.90 3.20 2.60 6.05 0.95 4 1.70 6.55 6.20 21.15 1.25 4 3.45 10.10 4.95 13.50 2.15 4.90 2.85 7.25 3.35 10.75 1.75 13 7.70 27.95 16.25 41.10 7.40 11.25 14.75 19 25.60 26.95 7.55 5.50 12.10 8.25 18.50 10.95 3.45 1.45 6.85 3.40 9.40 5.30 7.25 5.50 12.95 9.50 15.75 11.05 1.50 0.90 4.30 2.60 6.25 3.80 4.25 2.75 23.95 12.80 25.95 13.30 0.85 0.20 3.90 1.40 6.85 2.60 5.20 2.20 5.60 2.50 10.80 7.60 6.65 6.55 15.10 13 22.70 17.25 5.70 3.20 13.15 6.85 13.95 6.85 0.25 0 3.30 0.90 6.85 1.95 15.80 4.80 25.40 5.75 40.90 4z"/>
 </g>
 <g fill="#b41443">
  <path d="M312.25 654.15 c-4.95 -0.55 -14.55 -2.30 -14.95 -2.70 -0.30 -0.25 -1.10 -0.45 -1.85 -0.45 -0.75 0 -1.50 -0.20 -1.65 -0.45 -0.15 -0.20 -1.10 -0.55 -2.05 -0.70 -1.65 -0.25 -17.15 -7.50 -17.75 -8.30 -0.15 -0.15 -2.50 -2 -5.25 -4 -5.95 -4.45 -12.60 -10.95 -16 -15.80 l-2.50 -3.45 -0.15 -4.70 c-0.20 -4.15 -0.05 -4.90 1.10 -7.25 0.70 -1.45 2.10 -3.30 3.15 -4.15 1 -0.80 2.50 -2.05 3.25 -2.80 0.80 -0.80 1.75 -1.40 2.10 -1.40 0.35 0 2.10 -0.95 3.85 -2.05 1.75 -1.15 4.35 -2.50 5.70 -2.95 2.90 -1 7.60 -2.90 8.85 -3.55 0.50 -0.25 1.55 -0.45 2.40 -0.45 0.80 0 1.50 -0.20 1.50 -0.50 0 -0.25 0.90 -0.50 2 -0.50 1.10 0 2 -0.20 2 -0.50 0 -0.25 1.20 -0.50 2.65 -0.50 1.45 0 4.65 -0.45 7.10 -1 6.80 -1.45 14.70 -2.10 27.70 -2.15 12.40 -0.10 20.45 0.45 30.35 2.15 3.25 0.55 6.80 1 7.85 1 1 0 1.85 0.25 1.85 0.50 0 0.30 0.75 0.50 1.70 0.50 0.95 0 1.85 0.20 2 0.45 0.15 0.25 1.10 0.60 2.10 0.80 1.60 0.30 9.75 3.50 13.95 5.45 0.85 0.40 1.95 0.85 2.50 1 0.55 0.15 1.55 1 2.25 1.85 0.70 0.85 2.15 2.55 3.25 3.80 1.10 1.25 2.15 2.75 2.35 3.35 0.55 1.85 0.40 9 -0.30 10.85 -1.40 4 -12.20 16.25 -18.05 20.50 -1.65 1.20 -3.30 2.50 -3.65 2.85 -2.65 2.45 -19.25 11.10 -21.35 11.10 -0.65 0 -1.35 0.25 -1.50 0.50 -0.15 0.30 -0.85 0.50 -1.50 0.50 -0.65 0 -1.35 0.25 -1.50 0.50 -0.15 0.30 -1.10 0.50 -2.05 0.50 -0.95 0 -2.10 0.20 -2.60 0.45 -2.30 1.25 -22.60 2.45 -28.85 1.70z"/>
  <path d="M199.05 588.75 c-5.30 -1.15 -13.15 -3.45 -14.30 -4.20 -0.25 -0.20 -1.85 -0.85 -3.50 -1.50 -5 -1.90 -6.30 -2.55 -9.95 -4.95 -1.90 -1.30 -4.30 -2.80 -5.35 -3.35 -3.05 -1.60 -11.25 -9.10 -15.90 -14.50 -4.35 -5.05 -10.60 -14.15 -12.50 -18.25 -3 -6.50 -6.75 -18.15 -8.05 -25 -0.40 -2 -0.60 -7.95 -0.60 -15.75 0 -11 0.10 -13.05 1.05 -16.90 2.55 -10.65 7.85 -17.25 16.45 -20.35 2.75 -1 3.75 -1.10 11.70 -0.90 8.45 0.20 8.75 0.25 14.15 2.10 5.70 1.95 7.50 2.60 8.75 3.35 11.65 6.60 22.30 14.90 26.85 20.95 1.15 1.60 2.70 3.25 3.40 3.70 1.25 0.85 7.10 7.95 11.15 13.65 1.15 1.65 3.60 5.85 5.35 9.35 1.80 3.55 3.70 7.05 4.25 7.80 1.45 2.05 3.65 8.70 5.95 18.10 1.85 7.45 2.05 8.95 2.05 14.50 0 7.40 -0.70 13.30 -1.95 17.05 -1.90 5.40 -7.85 12.05 -13.05 14.50 -3.15 1.50 -3.45 1.55 -11.75 1.65 -7.45 0.15 -9.20 0 -14.20 -1.05z"/>
  <path d="M419.45 589.25 c-5.15 -1.40 -8.40 -3.30 -11.55 -6.70 -1.65 -1.80 -3.20 -3.75 -3.45 -4.30 -0.25 -0.55 -0.65 -1.35 -0.90 -1.75 -3 -4.75 -3.95 -25 -1.60 -34.70 0.55 -2.50 1.05 -5.25 1.05 -6.10 0 -0.90 0.25 -1.80 0.50 -1.95 0.30 -0.15 0.50 -0.85 0.50 -1.50 0 -0.70 0.60 -2.50 1.30 -4.10 0.70 -1.60 1.60 -3.75 1.95 -4.75 0.70 -1.85 4.60 -10.70 5.15 -11.70 0.20 -0.30 2.05 -3.15 4.15 -6.25 2.10 -3.15 4.55 -6.95 5.50 -8.45 4.10 -6.60 13.90 -17.75 19.55 -22.30 2.35 -1.90 4.70 -4.10 5.15 -4.85 0.45 -0.80 1.35 -1.60 2 -1.85 0.60 -0.25 2.40 -1.45 3.95 -2.75 2.50 -2 11.15 -6.70 16.35 -8.90 1 -0.40 4.70 -1.35 8.15 -2.10 5.85 -1.25 6.65 -1.30 11.20 -0.80 5.50 0.60 11.15 2.45 13.15 4.35 0.70 0.65 1.45 1.20 1.65 1.20 1.10 0 6.35 7.85 7.20 10.75 0.30 1.10 1.05 3.70 1.65 5.75 2.20 7.75 3 12.70 3.30 20.75 0.35 9.30 -0.50 20.15 -1.90 25.40 -1.35 5.05 -3.50 11.95 -4 12.95 -0.25 0.50 -0.45 1.30 -0.45 1.80 0 0.50 -0.20 1.10 -0.45 1.35 -0.20 0.30 -1.60 2.75 -3.05 5.50 -2.80 5.30 -6.55 11.20 -8.85 13.85 -2.85 3.30 -5.95 6.65 -6.90 7.55 -4.20 3.85 -10.45 9.10 -11.65 9.75 -0.75 0.50 -2.55 1.50 -3.90 2.30 -1.35 0.80 -3.90 2.35 -5.65 3.40 -1.80 1.05 -3.55 1.90 -3.90 1.90 -0.35 0 -1.05 0.20 -1.55 0.45 -5.40 2.75 -17.50 5.95 -26.40 7 -5.90 0.70 -14.30 0.60 -17.25 -0.20z"/>
  <path d="M312 565 c-5.90 -0.50 -11.55 -1.90 -19 -4.85 -3.15 -1.20 -6.40 -2.45 -7.15 -2.75 -2.05 -0.80 -12.55 -8 -15 -10.25 -3.55 -3.40 -7.80 -8.10 -9.75 -10.80 -1 -1.45 -2.15 -2.90 -2.50 -3.30 -0.80 -0.80 -4.30 -8.15 -5.60 -11.80 -0.50 -1.35 -1.50 -4.05 -2.20 -5.95 -1.70 -4.45 -2.35 -11.65 -2 -21.15 0.45 -11.70 2 -17.95 6.50 -26 0.95 -1.70 1.70 -3.35 1.70 -3.75 0 -0.35 0.85 -1.75 1.90 -3.15 1.05 -1.35 2.80 -3.85 3.95 -5.50 1.80 -2.65 6.45 -7.45 10.20 -10.55 6.90 -5.70 18.80 -11.60 30.25 -14.95 8.60 -2.50 25.85 -3.15 34.90 -1.25 2.65 0.55 5.20 1.20 5.70 1.40 0.45 0.25 2.55 0.85 4.60 1.35 6.85 1.65 11.60 3.65 16.55 7 2.60 1.80 5.05 3.25 5.35 3.25 0.35 0 0.85 0.45 1.20 1.05 0.35 0.55 1.90 1.95 3.40 3.10 4.25 3.25 4.90 3.85 7.95 7.85 4.85 6.30 6.50 9.20 11.35 19.75 2.10 4.60 3.35 13.15 3.35 23 0 12 -1.40 17.35 -7.85 30.75 -2.75 5.65 -5.65 9.55 -11.95 16 -4.45 4.60 -6.70 6.40 -11.35 9.30 -1.25 0.75 -2.65 1.75 -3.15 2.25 -0.55 0.50 -1.65 1.15 -2.55 1.45 -2.25 0.85 -3.85 1.50 -5.55 2.30 -12.95 5.80 -25.40 7.60 -43.25 6.20z"/>
  <path d="M113.65 462.10 c-0.85 -0.45 -2.75 -2.30 -4.20 -4.10 -1.40 -1.80 -3.30 -4.05 -4.20 -5.05 -1.55 -1.75 -6.10 -9.45 -8.80 -14.95 -4.75 -9.70 -7.45 -26.10 -6.45 -39.50 0.45 -6.25 2.45 -17.10 3.55 -19.10 0.25 -0.50 0.45 -1.35 0.45 -1.90 0 -0.55 0.20 -1.40 0.50 -1.90 0.25 -0.45 1.05 -2.15 1.70 -3.70 2.15 -4.95 7.35 -13.55 10.40 -17.10 1.65 -1.90 3.30 -3.90 3.70 -4.50 1.60 -2.50 13.95 -12.10 18.60 -14.50 1.85 -0.95 7.45 -1.10 9.30 -0.20 0.70 0.30 1.40 0.95 1.55 1.40 0.15 0.50 1 1.65 1.90 2.60 1.50 1.60 3.80 6.70 4.60 10.15 1.10 4.90 1.45 11.20 1.45 27.50 -0.05 18.55 -0.35 23.40 -2.20 31.75 -0.55 2.60 -1.35 6.55 -1.75 8.75 -0.75 4 -3.45 14.10 -4.30 16 -0.25 0.55 -1.10 3.05 -1.90 5.60 -3.15 9.70 -10 20.30 -14.60 22.65 -2.45 1.25 -7.05 1.30 -9.30 0.10z"/>
  <path d="M514.35 458.90 c-7 -5.95 -14.50 -23.15 -17.85 -40.65 -0.25 -1.35 -1.15 -5.75 -1.95 -9.75 -1.35 -6.40 -2.35 -13.25 -4.15 -27.25 -0.55 -4.70 -0.25 -24.75 0.50 -30.50 0.65 -5 1.70 -9.05 3.45 -13.25 1.65 -4.05 2.65 -5.45 3.80 -5.50 0.45 0 0.85 -0.20 0.85 -0.50 0 -0.30 1.40 -0.50 3.25 -0.50 3.05 0 5.10 0.55 6.75 1.85 0.40 0.30 2.65 1.85 5 3.45 10.15 6.80 18.15 15.10 23.85 24.70 5.20 8.80 7 13.45 9.15 23.75 2.75 13.35 2.35 27 -1.25 39.50 -0.70 2.50 -1.65 5.70 -2.05 7.20 -0.40 1.50 -0.90 3 -1.15 3.25 -0.20 0.30 -1.50 2.60 -2.80 5.05 -1.35 2.50 -2.95 5.40 -3.65 6.50 -1.80 2.85 -6.90 9.05 -10 12.15 l-2.60 2.60 -3.40 0 c-3.20 -0.05 -3.45 -0.15 -5.75 -2.10z"/>
  <path d="M217.50 444.25 c-5.80 -1.10 -14.15 -4.15 -20.80 -7.60 -4.30 -2.25 -13.90 -10.90 -16.80 -15.15 -2.75 -4 -6.35 -10.30 -7.45 -13.05 -4 -10 -5.95 -27.45 -4.45 -39.30 0.60 -4.65 2.90 -15.55 3.55 -16.75 0.25 -0.50 0.45 -1.30 0.45 -1.75 0 -1.45 8.90 -18.65 11.15 -21.65 1.15 -1.50 2.45 -3.30 2.90 -4 2.90 -4.60 17.15 -17.30 22.35 -19.95 1.20 -0.60 3.35 -1.90 4.85 -2.85 1.50 -0.90 2.80 -1.70 2.95 -1.70 0.15 0 1.95 -0.80 4 -1.75 2.05 -0.95 4 -1.75 4.30 -1.75 0.30 0 0.90 -0.20 1.40 -0.45 0.45 -0.25 3.55 -0.95 6.85 -1.60 5.20 -1.05 7.40 -1.20 16.25 -1.15 8.90 0 10.75 0.15 14.20 1.10 2.20 0.60 4.40 1.10 4.90 1.10 0.50 0 1.35 0.25 1.90 0.50 0.55 0.30 1.45 0.75 2 1 0.55 0.30 1.20 0.50 1.40 0.50 0.50 0 9.65 5 10.10 5.45 0.15 0.20 1.15 0.90 2.25 1.65 5.75 3.95 13.70 13.25 16.70 19.55 2.70 5.75 5.90 15.25 6.80 20.60 0.85 4.55 1 19.35 0.30 23.10 -0.25 1.30 -0.75 4.10 -1.05 6.15 -0.90 5.55 -1.75 8.90 -3.75 14.35 -2.90 8.05 -4.40 10.85 -10.40 19.90 -1.25 1.85 -6.50 8.40 -9 11.25 -2 2.25 -9.90 9.25 -11.25 9.95 -0.75 0.40 -2.25 1.40 -3.35 2.30 -2.85 2.25 -9 5.75 -10.10 5.75 -0.55 0 -1.15 0.20 -1.45 0.45 -0.65 0.65 -9.35 3.80 -14 5.10 -3.35 0.95 -5.45 1.15 -13.95 1.25 -7.05 0.10 -11.10 -0.05 -13.75 -0.55z"/>
  <path d="M410.75 441.75 c-1.90 -0.35 -4.30 -0.70 -5.25 -0.70 -3.60 -0.10 -15.90 -3.45 -19.10 -5.20 -1.75 -0.95 -4.50 -2.45 -6.15 -3.35 -1.65 -0.90 -3.60 -2.05 -4.35 -2.55 -0.70 -0.55 -1.55 -0.95 -1.85 -0.95 -0.30 0 -0.55 -0.20 -0.55 -0.50 0 -0.25 -0.45 -0.50 -1 -0.50 -0.95 0 -10.60 -9.20 -16.75 -16 -6.75 -7.50 -14.90 -23.35 -17.95 -34.90 -3.40 -12.80 -3.70 -31.40 -0.65 -42.60 1.85 -6.65 5.15 -14.10 8.35 -18.80 0.85 -1.20 2.20 -3.20 3 -4.40 1.70 -2.50 8.10 -8.65 11.25 -10.80 1.15 -0.80 3.55 -2.10 5.30 -2.90 12.85 -5.85 15.90 -6.60 28.25 -6.60 9.15 0 16.40 1.05 21.05 3.05 1.25 0.50 2.80 0.95 3.45 0.95 0.65 0 1.20 0.20 1.20 0.50 0 0.25 0.80 0.60 1.85 0.80 1 0.20 3.15 1.10 4.75 2 1.65 0.95 3.10 1.70 3.20 1.70 0.05 0 2.40 1.45 5.10 3.20 7.35 4.80 12.30 9.20 20.05 17.75 2.40 2.70 3.55 4.20 5.40 7.30 5.30 8.85 7.55 12.75 7.80 13.80 0.15 0.65 1.35 4.25 2.60 7.95 5 14.55 6.10 25.20 4.20 40.10 -1 7.95 -5.20 20.10 -8.85 25.85 -2.40 3.75 -8.35 10.95 -10.10 12.25 -0.80 0.60 -2.65 2 -4.10 3.15 -3.70 2.90 -8.40 5.65 -9.65 5.65 -0.60 0 -1.95 0.45 -3.05 0.95 -4.40 2.15 -16.60 4.65 -21.95 4.50 -1.10 0 -3.55 -0.35 -5.50 -0.70z"/>
  <path d="M488.10 317.55 c-1.40 -0.50 -3 -1.25 -3.50 -1.70 -0.50 -0.50 -1.25 -0.85 -1.70 -0.85 -0.40 0 -2.60 -1.10 -4.90 -2.50 -2.30 -1.35 -4.35 -2.50 -4.55 -2.50 -0.20 0 -1 -0.50 -1.80 -1.15 -0.75 -0.65 -2.50 -1.80 -3.85 -2.55 -1.35 -0.80 -3.60 -2.30 -5 -3.35 -1.40 -1.10 -2.75 -1.95 -2.95 -1.95 -0.45 0 -0.75 -0.25 -5.45 -4.60 -2 -1.85 -4.60 -3.85 -5.75 -4.40 -1.20 -0.55 -2.15 -1.20 -2.15 -1.40 0 -0.20 -0.40 -0.60 -0.95 -0.85 -1.85 -0.95 -7.85 -5.85 -12.80 -10.40 -6.10 -5.65 -18.60 -17.80 -21.45 -20.85 -13.30 -14.20 -16.30 -18 -17.70 -22.40 -1.85 -5.55 -1.35 -9.10 1.30 -9.10 0.75 0 2.75 -0.35 4.40 -0.75 8 -1.85 26.40 -1.90 34.45 0 1.80 0.40 3.85 0.75 4.55 0.75 0.65 0 1.20 0.25 1.20 0.50 0 0.30 0.60 0.50 1.40 0.50 1.90 0 4.90 1.15 11.55 4.30 3.15 1.50 6 2.70 6.35 2.70 0.40 0 0.70 0.20 0.70 0.50 0 0.25 0.85 0.95 1.90 1.50 3.30 1.80 3.90 2.25 8.85 6.35 1.90 1.60 4.50 4 5.75 5.40 1.25 1.35 3 3.15 3.90 4 1.50 1.35 5.10 6.55 9.45 13.50 3.15 5 6.90 15.45 8.95 24.75 1.70 7.75 2.30 23.35 1 25.90 -0.80 1.60 -0.85 1.60 -4.70 1.60 -2.40 -0.05 -4.85 -0.40 -6.50 -0.95z"/>
  <path d="M138.10 316.35 c-1 -1.15 -1.25 -8.20 -0.60 -15.50 0.75 -8.55 2.20 -15.20 5 -22.60 1.15 -3 2.30 -6.30 2.60 -7.25 0.30 -0.95 2.35 -4.55 4.60 -8 5.95 -9.05 11.05 -14.80 18.65 -20.85 5.35 -4.30 5.80 -4.65 6.50 -4.65 0.35 0 0.85 -0.45 1.15 -0.95 0.25 -0.55 1 -1.10 1.60 -1.30 0.65 -0.15 3.20 -1.30 5.65 -2.45 6.30 -3.05 8.15 -3.80 9.25 -3.80 0.50 0 1.10 -0.20 1.25 -0.50 0.15 -0.25 0.75 -0.50 1.30 -0.50 0.50 0 1.35 -0.20 1.85 -0.45 1.25 -0.65 8.60 -1.95 14.60 -2.60 10.45 -1.15 29.40 0.60 32.15 2.95 0.60 0.55 0.85 1.50 0.85 3.60 0 1.55 -0.20 3 -0.40 3.25 -0.25 0.30 -0.85 1.65 -1.35 3 -0.70 2 -3.75 6.45 -5.30 7.75 -0.15 0.15 -0.85 1.10 -1.55 2.15 -1.70 2.50 -6.45 7.90 -9.75 11.10 -12.10 11.65 -23.95 22.25 -30.80 27.50 -2.10 1.65 -4.80 3.75 -6 4.65 -1.15 0.95 -2.75 2.15 -3.55 2.75 -0.85 0.60 -2.85 2.25 -4.50 3.60 -1.65 1.40 -3.75 2.95 -4.65 3.50 -0.85 0.55 -4.35 2.70 -7.75 4.80 -9.80 6.05 -13 7.85 -15.15 8.65 -1.10 0.40 -3 1.15 -4.25 1.75 -2.70 1.25 -10.50 1.50 -11.40 0.40z"/>
  <path d="M310.50 290.45 c0 -0.25 -1.80 -0.45 -3.95 -0.45 -2.20 0 -4.15 -0.20 -4.30 -0.50 -0.15 -0.25 -0.90 -0.50 -1.60 -0.50 -1.45 0 -10.45 -2.55 -15.10 -4.30 -1.75 -0.65 -3.60 -1.20 -4.05 -1.20 -0.50 0 -1.25 -0.30 -1.60 -0.60 -0.35 -0.35 -1.35 -0.90 -2.15 -1.20 -2.95 -1.05 -12.50 -7.35 -15.35 -10.10 -2.05 -2 -3.55 -4.15 -5.25 -7.50 -2.25 -4.40 -2.40 -5 -2.60 -9.20 -0.20 -5.25 0.50 -9.40 2.25 -13.35 0.95 -2.05 2.50 -4.05 6.20 -7.65 2.70 -2.65 5.55 -5.20 6.35 -5.70 0.75 -0.50 2.65 -1.85 4.20 -3.05 1.55 -1.15 3.90 -2.70 5.20 -3.40 1.30 -0.70 2.65 -1.45 2.95 -1.65 0.30 -0.25 1.55 -0.85 2.80 -1.35 1.25 -0.50 3.50 -1.45 5 -2.15 3.80 -1.70 9.55 -3.60 10.80 -3.60 0.55 0 1.80 -0.40 2.75 -0.90 1.50 -0.75 3.45 -0.85 17.95 -0.85 l16.25 0 7.35 2.35 c4.05 1.30 7.75 2.55 8.25 2.80 2.05 1.10 7.55 3.60 7.85 3.60 0.20 0 1.35 0.70 2.55 1.50 1.20 0.85 2.30 1.50 2.45 1.50 0.50 0 7.35 5.05 10.50 7.75 5.95 5.05 11.70 12.15 12.95 16 0.55 1.65 0.90 4.60 0.95 8.55 0.15 6.10 0.10 6.35 -2.05 10.55 -0.95 1.90 -5.15 7.15 -7.30 9.25 -1.65 1.60 -8.35 5.75 -11.50 7.15 -1.10 0.45 -3.10 1.40 -4.50 2 -5.05 2.25 -15.80 4.90 -22.60 5.60 -1.45 0.15 -2.65 0.45 -2.65 0.70 0 0.30 -5.90 0.45 -14.50 0.40 -8.45 0 -14.50 -0.20 -14.50 -0.50z"/>
 </g>
 <g fill="#070000">
  <path d="M309.50 672.80 c-6.45 -0.80 -10.85 -1.80 -19.15 -4.35 -3.55 -1.05 -6.60 -1.95 -6.85 -1.95 -0.80 0 -8.25 -3.65 -13.95 -6.85 -7.60 -4.25 -16.05 -10.70 -22.70 -17.25 -5.20 -5.10 -5.60 -5.40 -10.80 -7.60 -2.95 -1.20 -6 -2.40 -6.85 -2.60 -2 -0.50 -21.70 -10.55 -25.95 -13.30 -1.95 -1.20 -4.75 -2.90 -6.25 -3.80 -2.80 -1.55 -8.50 -5.55 -15.75 -11.05 -2.55 -1.90 -5.95 -3.85 -9.40 -5.30 -10.40 -4.45 -23.40 -13.55 -31.35 -22 -6.20 -6.55 -8.45 -9.35 -12.75 -15.90 -8.55 -13.15 -14.50 -28.10 -16.25 -41.10 -0.50 -3.50 -1.20 -5.85 -3.35 -10.75 -1.50 -3.40 -3.70 -9.50 -4.95 -13.50 -4.50 -14.60 -5.25 -17.15 -6.20 -21.15 -0.70 -2.85 -1.45 -4.60 -2.60 -6.05 -3.55 -4.40 -7.80 -10.20 -8.45 -11.60 -0.40 -0.80 -2 -3.70 -3.55 -6.45 -3.60 -6.45 -4.65 -9.10 -7.95 -20.25 -4.50 -15.15 -4.70 -33.90 -0.50 -49.25 2.95 -10.70 5.75 -17.50 10.55 -25.60 4.50 -7.55 9.90 -14.65 14.95 -19.60 3.45 -3.40 10.45 -9.30 12.65 -10.65 0.75 -0.50 2.40 -2.90 3.95 -5.75 l2.60 -4.90 0.15 -7.80 c0.30 -14.90 2.95 -27.45 8.05 -38.45 0.95 -2.05 2.20 -4.95 2.75 -6.35 0.95 -2.60 8.20 -13.75 11.80 -18.20 4 -5 9.05 -10.15 13.35 -13.60 8.50 -6.90 8.40 -6.85 18.95 -12.60 1.60 -0.90 2.70 -1.75 2.50 -1.85 -0.25 -0.15 -2.90 -1 -5.95 -1.85 -7.15 -2.10 -8.30 -2.65 -11 -5.10 -2.05 -1.90 -4.75 -6.45 -4.75 -8.05 0 -0.40 -2.40 -1.75 -5.35 -3.10 -6.25 -2.85 -8.75 -4.45 -11.30 -7.25 -2.40 -2.70 -3.85 -5.60 -4.20 -8.60 -0.30 -2.35 -0.40 -2.55 -3.60 -4.80 -9.70 -6.85 -13.50 -11.90 -13.80 -18.45 l-0.15 -3.45 -3.75 -3.80 c-4.95 -5.10 -6.85 -8.85 -6.80 -13.40 0.05 -1.80 0.20 -3.85 0.40 -4.55 0.30 -1 -0.25 -2 -2.85 -5.50 -4.55 -6 -5.60 -8.45 -5.55 -12.75 0 -1.90 0.30 -4.35 0.65 -5.35 0.60 -1.75 0.60 -2 -0.60 -3.70 -4.85 -7.15 -5.30 -16.95 -1.05 -22.35 l1.50 -1.85 -1.40 -2.90 c-1.10 -2.25 -1.45 -3.70 -1.60 -6.95 -0.30 -7.55 2.40 -12.10 9.20 -15.45 l3.75 -1.85 5.25 0.25 5.25 0.30 1.65 -2.10 c2.15 -2.75 3.15 -3.55 6.10 -5 3.70 -1.80 9.45 -2.80 15.90 -2.80 5.15 0 5.80 -0.10 6.65 -1.05 1.40 -1.55 4.70 -3.35 7.75 -4.25 2 -0.60 4 -0.75 7.65 -0.60 l4.90 0.25 2.30 -2 c4.95 -4.25 9.90 -4.90 19.70 -2.50 5.25 1.25 5.60 1.30 6.85 0.50 3 -1.90 5 -2.50 8.85 -2.75 4.65 -0.25 6.85 0.35 13.50 3.50 l4.05 1.90 2.20 -1 c2.70 -1.20 8.35 -1.35 11.50 -0.25 1.20 0.45 3.90 1.80 6.05 3.05 l3.90 2.30 2.45 -0.85 c2.90 -0.95 6.35 -0.90 9.80 0.15 3.15 0.95 4.30 1.75 10.60 7.20 l5.10 4.40 3.85 0 c3.35 0 4.20 0.20 6.90 1.60 4.15 2.25 11.85 10 17.90 18.10 5.90 7.90 13.35 22.35 15.95 31.05 0.90 3.05 1.80 5.70 2 5.95 0.20 0.20 0.85 -1 1.40 -2.75 1 -3.15 3.50 -10.20 3.60 -10.20 0 0 0.10 -0.35 0.20 -0.75 0.25 -1.25 3.30 -7.55 5.25 -10.75 1 -1.65 2.20 -3.85 2.65 -4.90 1.65 -3.50 10 -14.10 15.20 -19.25 6.60 -6.55 9.50 -8.10 15.35 -8.10 l3.90 0 3.10 -2.95 c3.90 -3.80 8.30 -7.25 10.15 -7.90 5.30 -1.90 8.45 -2.15 12.05 -0.90 2.10 0.75 2.15 0.75 5.25 -1 6 -3.45 7.40 -3.95 11.60 -4.15 3.15 -0.15 4.55 0.05 6.55 0.80 l2.50 1 3.50 -1.65 c5.90 -2.80 8.55 -3.50 13.45 -3.50 4.55 0 6.05 0.40 9.35 2.55 1.25 0.85 1.50 0.80 7 -0.50 9.75 -2.40 15.50 -1.60 19.80 2.70 l1.60 1.65 6.40 0.05 c5.75 0.05 6.60 0.20 9.10 1.35 1.55 0.70 3.60 2 4.60 2.90 1.75 1.55 1.85 1.55 7.20 1.55 10.15 0 15.75 1.60 20.05 5.65 1.45 1.35 2.75 2.85 2.90 3.30 0.20 0.75 1.10 0.85 6.40 0.80 5.80 0 6.25 0.10 9 1.45 3.40 1.75 6.50 4.90 8 8.20 0.85 1.85 1.10 3.25 1.05 6.60 0 3.80 -0.15 4.55 -1.65 7.35 l-1.65 3.10 1.60 1.95 c1.95 2.50 3.05 6 3.05 9.85 -0.05 4.90 -0.70 6.80 -4.20 12.45 -1.15 1.80 -1.15 2 -0.50 4 1.05 2.85 0.85 7.20 -0.35 10.50 -0.60 1.50 -2.60 4.80 -4.50 7.25 -3.40 4.45 -3.40 4.55 -2.90 6.40 0.80 2.95 0.15 7.80 -1.45 10.80 -0.75 1.40 -3.05 4.25 -5.10 6.30 l-3.65 3.70 -0.15 3.05 c-0.20 4.05 -1.80 8.15 -4.30 11 -1.15 1.30 -4.45 4.10 -7.35 6.30 l-5.30 4 -0.65 3 c-0.80 4.10 -3.45 8.30 -6.75 10.75 -1.45 1.05 -5 3 -7.90 4.25 l-5.25 2.35 -1 2.70 c-0.65 1.90 -1.85 3.55 -4 5.70 -3.40 3.40 -5.20 4.25 -15 6.75 -5.60 1.45 -6.95 2.10 -6.60 3.20 0.10 0.25 2.05 1.60 4.40 3 6.75 4.10 11.80 8.05 17.85 14 6.45 6.25 10.70 11.30 13.60 16.05 1.10 1.75 2.60 4.10 3.35 5.15 2.05 2.80 7.20 14.50 9.80 22.15 2 5.90 3.75 17.10 4.05 26.05 l0.25 7.85 2.45 4.30 c2.15 3.75 2.95 4.65 5.70 6.50 7.30 4.85 18.15 15.85 23.10 23.25 6.75 10.20 8.25 13.05 11.75 22.75 4.65 12.90 6.05 20.60 6.05 33.50 -0.05 12.30 -1.65 21.40 -5.75 32.30 -1 2.60 -1.90 5.25 -2.05 5.85 -0.35 1.75 -3.55 7.95 -5.80 11.25 -1.05 1.60 -2.15 3.40 -2.40 4.05 -0.20 0.60 -2.25 3.40 -4.50 6.25 -4.05 5 -4.15 5.15 -4.80 9.20 -0.75 4.35 -2.60 10.90 -5.75 20.55 -1.80 5.45 -2 6.45 -2.25 13.25 -0.15 4 -0.60 9.70 -1 12.60 -1.55 11.35 -8.20 29.65 -13.80 38.05 -1.05 1.55 -2.15 3.45 -2.40 4.20 -0.85 2.20 -9.60 12.70 -14.80 17.70 -8.10 7.80 -12.40 11.10 -21.70 16.65 -4.55 2.70 -8.10 4.30 -18.65 8.40 -3.75 1.40 -6.45 3 -11.50 6.60 -3.65 2.60 -7.70 5.35 -9.10 6.15 -1.35 0.75 -4.05 2.40 -6 3.65 -5.65 3.60 -23.15 12.35 -28 14 -4.50 1.55 -4.50 1.55 -10 7.25 -5.95 6.15 -9.85 9.60 -15.75 13.80 -7.65 5.50 -20.10 11.90 -26.95 13.85 -8.60 2.45 -15.90 4.10 -20.05 4.60 -7.40 0.90 -19.35 1.05 -25 0.35z m21.90 -20.60 c4.05 -0.40 7.75 -0.95 8.20 -1.25 0.50 -0.25 1.65 -0.45 2.60 -0.45 0.95 0 1.90 -0.20 2.05 -0.50 0.15 -0.25 0.85 -0.50 1.50 -0.50 0.65 0 1.35 -0.20 1.50 -0.50 0.15 -0.25 0.85 -0.50 1.50 -0.50 2.10 0 18.70 -8.65 21.35 -11.10 0.35 -0.35 2 -1.65 3.65 -2.85 5.85 -4.25 16.65 -16.50 18.05 -20.50 0.70 -1.90 0.85 -6.05 0.30 -7.85 -0.20 -0.60 -1.25 -2.10 -2.35 -3.35 -1.10 -1.25 -2.55 -2.95 -3.25 -3.80 -0.70 -0.85 -1.70 -1.70 -2.25 -1.85 -0.55 -0.15 -1.65 -0.60 -2.50 -1 -4.20 -1.95 -12.35 -5.15 -13.95 -5.45 -1 -0.20 -1.95 -0.55 -2.10 -0.80 -0.15 -0.25 -1.05 -0.45 -2 -0.45 -0.95 0 -1.70 -0.20 -1.70 -0.50 0 -0.25 -0.85 -0.50 -1.85 -0.50 -1.05 0 -4.55 -0.45 -7.85 -1 -9.90 -1.70 -17.55 -2.25 -28.65 -2.15 -11.95 0.10 -19.80 0.75 -26.40 2.15 -2.45 0.55 -5.65 1 -7.10 1 -1.45 0 -2.65 0.25 -2.65 0.50 0 0.30 -0.90 0.50 -2 0.50 -1.10 0 -2 0.25 -2 0.50 0 0.30 -0.70 0.50 -1.50 0.50 -0.85 0 -1.90 0.20 -2.40 0.45 -1.25 0.65 -5.95 2.55 -8.85 3.55 -1.35 0.45 -3.95 1.80 -5.70 2.95 -1.75 1.10 -3.50 2.05 -3.85 2.05 -0.35 0 -1.30 0.60 -2.10 1.40 -0.75 0.75 -2.25 2 -3.25 2.80 -1.05 0.85 -2.45 2.70 -3.15 4.15 -1.10 2.20 -1.30 3.15 -1.10 5.80 0.15 2.85 0.45 3.55 2.65 6.65 3.40 4.80 10.05 11.30 16 15.75 2.75 2 5.10 3.85 5.25 4 0.60 0.80 16.10 8.05 17.75 8.30 0.95 0.15 1.90 0.50 2.05 0.70 0.15 0.25 0.90 0.45 1.65 0.45 0.75 0 1.55 0.20 1.85 0.45 0.40 0.40 10 2.15 14.95 2.70 3.75 0.45 10.95 0.30 17.65 -0.45z m-107.90 -65.55 c5.20 -2.45 11.15 -9.05 13.05 -14.50 1.20 -3.50 1.95 -9.55 1.95 -15.55 0 -3.80 -0.40 -6.30 -2.05 -13 -2.30 -9.40 -4.50 -16.05 -5.95 -18.10 -0.55 -0.75 -2.45 -4.25 -4.25 -7.80 -1.75 -3.50 -4.20 -7.70 -5.35 -9.35 -4.05 -5.70 -9.90 -12.80 -11.15 -13.65 -0.70 -0.45 -2.25 -2.10 -3.40 -3.70 -4.55 -6.05 -15.20 -14.35 -26.85 -20.95 -1.25 -0.75 -3.05 -1.40 -8.75 -3.35 -5.15 -1.75 -5.95 -1.90 -12.65 -2.10 -6.45 -0.20 -7.45 -0.10 -10.15 0.90 -8.60 3.10 -14 9.75 -16.50 20.30 -0.90 3.75 -1.05 6 -1.05 15.45 0 6.50 0.25 12.40 0.60 14.30 1.25 6.75 5.05 18.45 8.05 24.95 1.90 4.10 8.15 13.20 12.50 18.25 4.65 5.40 12.85 12.90 15.90 14.50 1.05 0.55 3.45 2.05 5.35 3.35 3.65 2.40 4.95 3.05 9.95 4.95 1.65 0.65 3.25 1.30 3.50 1.50 1.15 0.75 9 3.05 14.30 4.20 4.80 1.05 6.80 1.20 12.70 1.05 6.60 -0.15 7.20 -0.20 10.25 -1.65z m211.70 1.30 c8.90 -1.05 21 -4.25 26.40 -7 0.50 -0.25 1.20 -0.45 1.55 -0.45 0.35 0 2.10 -0.85 3.90 -1.90 1.75 -1.05 4.30 -2.60 5.65 -3.40 1.35 -0.80 3.15 -1.80 3.90 -2.30 1.20 -0.65 7.45 -5.90 11.65 -9.75 0.95 -0.90 4.05 -4.25 6.90 -7.55 2.30 -2.65 6.05 -8.55 8.85 -13.85 1.45 -2.75 2.85 -5.20 3.05 -5.50 0.25 -0.25 0.45 -0.85 0.45 -1.35 0 -0.50 0.20 -1.30 0.45 -1.80 0.50 -1 2.65 -7.90 4 -12.95 1.35 -5.05 2.25 -16.15 1.90 -23.90 -0.30 -6.55 -1.30 -12.30 -3.30 -19.25 -0.60 -2.05 -1.35 -4.65 -1.65 -5.75 -0.85 -2.90 -6.10 -10.75 -7.20 -10.75 -0.20 0 -0.95 -0.55 -1.65 -1.20 -1.85 -1.75 -7.55 -3.75 -12.25 -4.25 -2.20 -0.25 -4.20 -0.35 -4.45 -0.20 -0.20 0.10 -1.15 0.35 -2.10 0.45 -2.45 0.30 -8.25 1.65 -10 2.30 -4.30 1.65 -14.55 7.15 -17.05 9.15 -1.55 1.30 -3.35 2.50 -3.95 2.75 -0.65 0.25 -1.55 1.05 -2 1.85 -0.45 0.75 -2.80 2.95 -5.15 4.85 -5.65 4.55 -15.45 15.70 -19.55 22.30 -0.95 1.50 -3.40 5.30 -5.50 8.45 -2.10 3.10 -3.95 5.95 -4.15 6.25 -0.55 1 -4.45 9.85 -5.15 11.70 -0.35 1 -1.25 3.15 -1.95 4.75 -0.70 1.60 -1.30 3.40 -1.30 4.10 0 0.65 -0.20 1.35 -0.50 1.50 -0.25 0.15 -0.50 1.05 -0.50 1.95 0 0.85 -0.50 3.60 -1.05 6.10 -0.60 2.45 -1.20 6.70 -1.35 9.45 -0.35 7.65 1.20 19.50 2.95 22.25 0.25 0.40 0.65 1.20 0.90 1.75 0.25 0.55 1.80 2.50 3.45 4.30 5.85 6.35 13.40 8.40 25.80 6.90z m-104.70 -24.45 c7.65 -0.65 15.45 -2.70 23.25 -6.20 1.70 -0.80 3.30 -1.45 5.55 -2.30 0.90 -0.30 2 -0.95 2.55 -1.45 0.50 -0.50 1.90 -1.50 3.15 -2.25 4.65 -2.90 6.90 -4.70 11.35 -9.30 6.30 -6.45 9.20 -10.35 11.95 -16 4.80 -10 5.85 -13 7.35 -21 0.80 -4.60 0.50 -18.45 -0.50 -21 -0.20 -0.40 -0.30 -0.90 -0.25 -1.10 0.10 -0.60 -1.40 -6.10 -2.10 -7.65 -4.85 -10.55 -6.50 -13.45 -11.35 -19.75 -3.05 -4 -3.70 -4.60 -7.95 -7.85 -1.50 -1.15 -3.05 -2.55 -3.40 -3.10 -0.35 -0.60 -0.85 -1.05 -1.20 -1.05 -0.30 0 -2.75 -1.45 -5.35 -3.25 -4.95 -3.35 -9.70 -5.35 -16.55 -7 -2.05 -0.50 -4.15 -1.10 -4.60 -1.35 -0.50 -0.20 -3.05 -0.85 -5.70 -1.40 -8.70 -1.80 -23.40 -1.20 -31.90 1.25 -11.45 3.35 -23.35 9.25 -30.25 14.95 -3.75 3.10 -8.40 7.90 -10.20 10.55 -1.15 1.65 -2.90 4.15 -3.95 5.50 -1.05 1.40 -1.90 2.80 -1.90 3.15 0 0.40 -0.75 2.05 -1.70 3.75 -2.35 4.20 -5.15 11.55 -5.55 14.60 -0.75 5.60 -1.10 16.30 -0.70 21.05 0.30 3.30 0.90 6.30 1.75 8.50 0.70 1.90 1.70 4.60 2.20 5.95 1.30 3.65 4.80 11 5.60 11.80 0.35 0.40 1.50 1.85 2.50 3.30 1.95 2.70 6.20 7.40 9.75 10.80 2.45 2.25 12.95 9.45 15 10.25 0.75 0.30 4 1.55 7.15 2.75 5.20 2.05 8.95 3.20 13.25 4.10 5 1.05 15.10 1.40 22.75 0.75z m-208.70 -103.15 c4.30 -2.20 11.20 -13.15 14.25 -22.50 0.80 -2.55 1.60 -4.95 1.80 -5.35 0.15 -0.40 0.35 -0.95 0.40 -1.25 0.10 -0.25 0.85 -2.80 1.70 -5.65 0.85 -2.80 1.85 -7 2.25 -9.25 0.45 -2.25 1.25 -6.25 1.80 -8.85 1.80 -8.20 2.15 -13.25 2.20 -30.25 0 -14.85 -0.35 -21.20 -1.45 -26 -0.80 -3.45 -3.10 -8.55 -4.60 -10.15 -0.90 -0.95 -1.75 -2.10 -1.90 -2.60 -0.60 -1.95 -5.05 -2.65 -7.85 -1.20 -4.65 2.40 -17 12 -18.60 14.50 -0.40 0.60 -2.05 2.60 -3.70 4.50 -3.05 3.55 -8.25 12.15 -10.40 17.10 -0.65 1.55 -1.45 3.25 -1.70 3.70 -0.30 0.50 -0.50 1.40 -0.50 2.05 0 0.65 -0.15 1.35 -0.35 1.55 -0.20 0.15 -0.40 0.60 -0.45 0.95 -0.05 0.35 -0.70 3.10 -1.40 6.10 -3.10 13.10 -2.25 29.35 2.30 43 1.80 5.40 8.35 17.60 11.15 20.70 0.90 1 2.80 3.25 4.20 5.05 1.45 1.80 3.35 3.65 4.20 4.10 1.85 1.05 4.40 0.95 6.65 -0.25z m402.80 -3.45 c3.10 -3.10 8.20 -9.30 10 -12.15 0.70 -1.10 2.30 -4 3.65 -6.50 1.30 -2.45 2.60 -4.75 2.80 -5.05 0.25 -0.25 0.75 -1.75 1.15 -3.25 0.40 -1.50 1.20 -4.25 1.75 -6.20 2.75 -9.20 3.90 -20 3.05 -27.85 -1.10 -9.70 -3.80 -20.55 -6.55 -26.05 -7.05 -13.95 -15.55 -23.75 -27.95 -32.05 -2.35 -1.60 -4.60 -3.15 -5 -3.45 -2.05 -1.65 -7 -2.60 -7 -1.35 0 0.30 -0.40 0.50 -0.85 0.50 -2.35 0.05 -6.05 9.65 -7.25 18.75 -0.75 5.90 -1.05 22.90 -0.50 27.50 1.80 14.10 2.80 20.85 4.15 27.25 0.80 4 1.70 8.40 1.95 9.75 1.20 6.35 2.60 11.50 4.70 17.40 5.30 14.95 12.45 25.30 17.40 25.35 1.60 0 2.25 -0.40 4.50 -2.60z m-280.90 -14.85 c4.65 -1.30 13.35 -4.45 14 -5.10 0.30 -0.25 0.90 -0.45 1.45 -0.45 1.10 0 7.25 -3.50 10.10 -5.75 1.10 -0.90 2.60 -1.90 3.35 -2.30 1.35 -0.70 9.25 -7.70 11.25 -9.95 2.50 -2.85 7.75 -9.40 9 -11.25 6 -9.05 7.50 -11.85 10.40 -19.90 2 -5.45 2.85 -8.80 3.75 -14.35 0.30 -2.05 0.80 -4.85 1.05 -6.15 0.70 -3.65 0.50 -15.60 -0.30 -20.10 -0.90 -5.35 -4.10 -14.85 -6.80 -20.60 -3 -6.30 -10.95 -15.60 -16.70 -19.55 -1.10 -0.75 -2.10 -1.45 -2.25 -1.65 -0.45 -0.45 -9.60 -5.45 -10.10 -5.45 -0.20 0 -0.80 -0.20 -1.30 -0.45 -1.20 -0.65 -2.70 -1.20 -3.60 -1.30 -0.40 -0.05 -2.75 -0.65 -5.25 -1.30 -4 -1.05 -5.55 -1.20 -13.50 -1.15 -7.65 0 -9.70 0.20 -13.75 1.15 -2.60 0.65 -5.20 1.25 -5.75 1.30 -0.55 0.05 -1.45 0.25 -2 0.45 -1.70 0.65 -2.50 0.95 -2.75 1.05 -0.15 0.05 -1.55 0.65 -3.20 1.40 -1.60 0.75 -3 1.35 -3.15 1.35 -0.10 0 -1.40 0.80 -2.90 1.70 -1.50 0.95 -3.65 2.25 -4.85 2.85 -5.20 2.65 -19.45 15.35 -22.35 19.95 -0.45 0.70 -1.75 2.50 -2.90 4 -2.25 3 -11.15 20.20 -11.15 21.65 0 0.45 -0.20 1.25 -0.45 1.75 -0.65 1.20 -2.95 12.10 -3.55 16.75 -1.40 10.70 0.55 26.55 4.45 36.30 1.10 2.75 4.70 9.05 7.45 13.05 2.90 4.25 12.50 12.85 16.80 15.15 7.25 3.80 16 6.90 21.55 7.60 1.35 0.15 2.60 0.45 2.75 0.60 0.15 0.15 4.10 0.15 8.75 0 6.70 -0.15 9.35 -0.45 12.45 -1.30z m177.20 -1.55 c4.85 -0.65 13 -2.70 15.80 -4.05 1.10 -0.50 2.45 -0.95 3.05 -0.95 1.25 0 5.95 -2.75 9.65 -5.65 1.45 -1.15 3.30 -2.55 4.10 -3.15 1.75 -1.30 7.75 -8.55 10.05 -12.25 2.05 -3.15 5.40 -11.15 6.85 -16.20 1.40 -4.85 2.05 -8.25 2.45 -13.50 0.95 -11.95 -0.20 -20.45 -4.60 -33.25 -1.25 -3.70 -2.45 -7.30 -2.60 -7.95 -0.25 -1.05 -2.50 -4.95 -7.80 -13.80 -1.85 -3.10 -3 -4.60 -5.40 -7.30 -7.75 -8.55 -12.70 -12.95 -20.05 -17.75 -2.70 -1.75 -5.05 -3.20 -5.10 -3.20 -0.10 0 -1.55 -0.75 -3.20 -1.70 -1.60 -0.90 -3.75 -1.80 -4.75 -2 -1.05 -0.20 -1.85 -0.50 -1.85 -0.70 0 -0.20 -0.50 -0.40 -1.10 -0.45 -0.60 -0.05 -2.20 -0.55 -3.60 -1.10 -4.85 -1.95 -11.85 -3.05 -19.50 -3.05 -8.30 0 -14.25 1.05 -19.85 3.50 -7.60 3.35 -10.15 4.60 -12.20 6 -3.15 2.15 -9.55 8.30 -11.25 10.80 -0.80 1.20 -2.15 3.20 -3 4.40 -3.20 4.70 -6.50 12.15 -8.35 18.80 -4 14.85 -2.10 36.50 4.60 50.85 5.60 12.10 9.40 18.50 14 23.65 6.15 6.80 15.80 16 16.75 16 0.55 0 1 0.25 1 0.50 0 0.30 0.25 0.50 0.55 0.50 0.30 0 1.15 0.40 1.85 0.95 0.75 0.50 2.70 1.65 4.35 2.55 1.65 0.90 4.40 2.40 6.15 3.35 3.20 1.75 15.50 5.10 19.10 5.20 0.95 0 3.35 0.35 5.25 0.70 4.50 0.85 3.90 0.85 8.65 0.25z m76.90 -125.10 c1.15 -2.25 0.75 -14.60 -0.80 -21.90 -1.85 -9.15 -5.95 -20.65 -9.15 -25.75 -4.35 -6.95 -7.95 -12.15 -9.45 -13.50 -0.90 -0.85 -2.65 -2.65 -3.90 -4 -1.25 -1.40 -3.85 -3.80 -5.75 -5.40 -4.95 -4.10 -5.55 -4.55 -8.85 -6.35 -1.05 -0.55 -1.90 -1.25 -1.90 -1.55 0 -0.25 -0.30 -0.45 -0.60 -0.40 -0.35 0.05 -3.25 -1.15 -6.40 -2.70 -6.60 -3.20 -9.65 -4.35 -11.60 -4.35 -0.80 0 -1.40 -0.20 -1.40 -0.50 0 -0.25 -0.55 -0.50 -1.20 -0.50 -0.70 0 -2.75 -0.35 -4.60 -0.80 -7.55 -1.75 -23.50 -1.70 -31.30 0.05 -1.85 0.40 -3.95 0.75 -4.65 0.75 -2.20 0 -2.60 1.80 -1.25 5.95 1.50 4.55 4.40 8.20 17.80 22.55 2.85 3.05 15.35 15.20 21.45 20.85 4.95 4.55 10.95 9.45 12.80 10.40 0.55 0.25 0.95 0.65 0.95 0.85 0 0.20 0.95 0.85 2.15 1.40 1.15 0.55 3.75 2.55 5.75 4.40 4.70 4.35 5 4.60 5.45 4.60 0.20 0 1.55 0.85 2.95 1.95 1.40 1.05 3.65 2.55 5 3.35 1.35 0.75 3.10 1.90 3.85 2.55 0.80 0.65 1.60 1.15 1.80 1.15 0.20 0 2.25 1.15 4.55 2.50 2.30 1.40 4.50 2.50 4.90 2.50 0.45 0 1.20 0.35 1.70 0.85 1.35 1.20 5.85 2.60 8.50 2.65 2.15 0 2.45 -0.15 3.20 -1.60z m-351.60 -0.25 c0.15 -0.20 0.60 -0.40 0.95 -0.45 0.35 -0.10 2.25 -0.80 4.25 -1.65 4.20 -1.75 4.55 -1.95 23.75 -13.80 0.90 -0.55 3 -2.10 4.65 -3.50 1.65 -1.35 3.65 -3 4.50 -3.60 0.80 -0.60 2.40 -1.80 3.55 -2.75 1.20 -0.90 3.90 -3 6 -4.65 6.85 -5.25 18.70 -15.85 30.80 -27.50 3.30 -3.20 8.05 -8.60 9.75 -11.10 0.70 -1.05 1.40 -2 1.55 -2.15 1.55 -1.30 4.60 -5.75 5.30 -7.75 0.50 -1.35 1.10 -2.70 1.35 -2.95 0.70 -0.85 0.45 -3.10 -0.45 -3.90 -1.30 -1.10 -11.10 -2.90 -17.65 -3.25 -6.50 -0.35 -15.50 0.45 -21 1.80 -2.05 0.55 -3.95 0.85 -4.25 0.70 -0.35 -0.10 -0.85 0.15 -1.20 0.55 -0.30 0.35 -1 0.60 -1.50 0.45 -0.50 -0.15 -1.10 0 -1.25 0.30 -0.20 0.30 -0.80 0.55 -1.30 0.55 -1.10 0 -2.95 0.75 -9.25 3.80 -2.45 1.15 -5 2.30 -5.65 2.45 -0.60 0.20 -1.35 0.75 -1.60 1.30 -0.30 0.50 -0.80 0.95 -1.15 0.95 -0.70 0 -1.15 0.35 -6.50 4.65 -7.60 6.05 -12.70 11.80 -18.65 20.85 -2.25 3.45 -4.30 7.05 -4.60 8 -0.30 0.95 -1.45 4.25 -2.60 7.25 -2.80 7.45 -3.90 12.20 -4.80 20.75 -0.75 7.25 -0.60 13.15 0.40 14.40 0.55 0.65 5.95 0.85 6.60 0.25z m191.80 -26.05 c0 -0.30 1.20 -0.60 2.65 -0.75 6.80 -0.70 17.55 -3.35 22.60 -5.60 1.40 -0.60 3.40 -1.55 4.50 -2 3.15 -1.40 9.85 -5.55 11.50 -7.15 2.25 -2.20 6.35 -7.40 7.40 -9.50 0.55 -1 1.20 -2.25 1.45 -2.80 0.80 -1.50 0.50 -10.25 -0.45 -13.05 -1.25 -3.85 -7 -10.95 -12.95 -16 -3.15 -2.70 -10 -7.75 -10.50 -7.75 -0.15 0 -1.25 -0.65 -2.45 -1.50 -1.20 -0.80 -2.35 -1.50 -2.55 -1.50 -0.30 0 -5.80 -2.50 -7.85 -3.60 -1.10 -0.55 -12.95 -4.30 -15.10 -4.75 -2.75 -0.60 -27.75 -0.75 -27.75 -0.20 0 0.30 -0.90 0.50 -2 0.45 -1.15 -0.05 -2.30 0.20 -2.60 0.50 -0.35 0.35 -1.15 0.60 -1.85 0.60 -1.50 0 -7 1.80 -11.05 3.60 -1.50 0.70 -3.75 1.65 -5 2.15 -1.25 0.50 -2.50 1.10 -2.80 1.35 -0.30 0.20 -1.65 0.95 -2.95 1.65 -1.30 0.70 -3.65 2.25 -5.20 3.40 -1.55 1.20 -3.45 2.55 -4.20 3.05 -0.80 0.50 -3.65 3.05 -6.35 5.70 -3.70 3.60 -5.25 5.60 -6.20 7.65 -1.65 3.75 -2.45 8.25 -2.20 11.95 0.30 4.35 3.90 11.35 7.80 15.10 2.85 2.75 12.40 9.05 15.35 10.10 0.80 0.30 1.80 0.85 2.15 1.20 0.40 0.35 0.90 0.45 1.15 0.30 0.30 -0.15 1.50 0.20 2.70 0.75 3 1.40 15.15 5.05 16.85 5.05 0.75 0 1.50 0.25 1.65 0.50 0.15 0.30 2.10 0.50 4.30 0.50 2.15 0 3.95 0.15 3.95 0.40 0 0.20 5.85 0.45 13 0.50 8.15 0.10 13 0 13 -0.30z m-120.25 -80.45 c2.50 -0.40 5.40 -0.85 6.50 -0.95 1.10 -0.15 2.35 -0.40 2.75 -0.60 0.40 -0.15 2.35 -0.70 4.25 -1.20 4.05 -1.10 4.90 -1.35 11 -3.15 4.80 -1.40 12 -5.20 16.85 -8.90 6.65 -5 14.20 -15.60 15.10 -21.15 l0.35 -2 -7.45 -7.30 c-6.95 -6.80 -13.25 -12.20 -20.05 -17.25 -1.55 -1.15 -3.90 -2.95 -5.30 -4 -2.95 -2.30 -13.40 -9.55 -17.40 -12.05 -1.55 -1.05 -4.95 -3.25 -7.55 -4.95 -2.60 -1.65 -6.35 -4 -8.40 -5.15 -2 -1.20 -5.95 -3.55 -8.75 -5.30 -2.85 -1.75 -5.45 -3.20 -5.85 -3.20 -0.40 0 -0.85 -0.20 -1 -0.45 -0.35 -0.55 -10.20 -5.95 -20.30 -11.20 l-7.25 -3.80 0 -1.90 c0 -1.75 0.10 -1.90 1.55 -2.05 0.95 -0.10 4.10 0.80 8.25 2.40 3.70 1.40 9.30 3.55 12.45 4.70 4.95 1.85 10.15 4.10 24.70 10.70 1.65 0.75 5.15 2.55 7.75 4 2.65 1.40 5 2.60 5.25 2.60 0.60 0 9.15 4.35 10.80 5.50 0.70 0.45 3.65 2.10 6.60 3.65 2.90 1.55 6.75 3.85 8.55 5.10 1.80 1.25 3.45 2.25 3.70 2.25 0.25 0 2.45 1.40 4.95 3.10 2.45 1.65 6.45 4.40 8.95 6.05 5.20 3.50 11.90 8.55 15.70 11.90 3.10 2.75 2.55 2.85 8.90 -1.40 10.10 -6.80 15.20 -17.80 13.70 -29.40 -1.65 -12.15 -10.35 -31.35 -19.45 -42.75 -3.65 -4.60 -7.10 -8 -7.10 -7 0 0.40 -0.55 1.95 -1.25 3.40 -1.15 2.50 -1.30 2.60 -3.15 2.60 -1.75 0 -2.20 -0.25 -3.90 -2.35 -5.65 -7 -13.55 -15.65 -14.25 -15.65 -0.15 0 -0.45 1.10 -0.60 2.50 -0.35 2.95 -1.40 4.70 -3.30 5.50 -2.70 1.10 -3.80 0.50 -7.65 -3.95 -2 -2.35 -5.05 -5.30 -6.70 -6.60 l-3.05 -2.40 -0.30 2.20 c-0.20 1.15 -0.70 3.05 -1.15 4.20 -0.75 1.85 -1 2.05 -2.55 2.05 -1.60 0 -3.55 -0.70 -4.15 -1.45 -0.85 -1.10 -9.35 -7.35 -12.50 -9.20 l-2.25 -1.30 0.15 3.25 c0.15 2.35 -0.05 3.60 -0.60 4.45 -1.30 2 -3.35 1.65 -9.95 -1.80 -3.25 -1.65 -7.65 -3.70 -9.85 -4.50 l-4 -1.45 0.75 1.50 c0.45 0.85 0.75 2.75 0.75 4.75 l0 3.25 -2.95 0 c-1.90 0 -3.85 -0.40 -5.35 -1 -1.90 -0.85 -13.80 -4 -14.95 -4 -0.20 0 0.05 0.50 0.45 1.10 0.55 0.75 0.80 2.25 0.80 4.50 0 3.20 -0.05 3.40 -1.25 3.70 -1.95 0.50 -5.65 -0.10 -11.25 -1.75 -6 -1.80 -13.45 -2.80 -16.80 -2.30 l-2.35 0.35 2.60 2.60 c1.95 2 2.55 2.95 2.55 4.15 0 1 -0.30 1.65 -0.85 1.90 -1.10 0.40 -25.10 1.20 -26.05 0.85 -0.35 -0.10 0.35 1.30 1.55 3.20 3.85 5.95 6.85 13.80 6.85 17.95 l0 2.35 -5.45 -0.20 c-6.45 -0.20 -6.40 -0.40 -0.95 5.15 4.05 4.15 6.50 6.30 9.75 8.50 2.10 1.50 2.15 1.55 2.15 4.45 l0 2.95 -2.80 0.55 c-1.55 0.35 -4 0.50 -5.50 0.40 l-2.75 -0.15 8 7.90 c4.40 4.30 8.20 7.85 8.50 7.85 0.85 0 0.65 3.80 -0.20 4.50 -0.40 0.30 -2.30 0.85 -4.30 1.20 l-3.55 0.60 4.75 3.85 c2.65 2.15 6.30 4.90 8.20 6.10 7.40 4.80 7.15 4.60 7.15 6.50 0 1.40 -0.25 1.85 -1.50 2.50 -0.85 0.45 -2.75 0.95 -4.30 1.15 l-2.70 0.35 4.85 3.30 c2.70 1.80 8.35 4.95 12.55 6.95 l7.65 3.70 -0.15 1.75 c-0.10 1.35 -0.55 2.05 -1.85 2.90 -0.95 0.65 -2.35 1.15 -3.10 1.15 -5.10 0 2.50 3.40 14.55 6.55 8.85 2.25 8.50 2.10 8.50 4.35 0 2.25 -1 3.80 -3.15 4.95 l-1.60 0.80 2.20 0.65 c3.40 1 11.25 2.15 17.80 2.65 7.95 0.60 8.75 0.90 8.75 3.60 0 1.75 -0.30 2.40 -1.90 4 -1.80 1.75 -1.85 1.90 -0.90 2.10 1.70 0.35 10.20 -0.20 15.05 -1z m224.55 1.05 l1.45 -0.30 -1.85 -1.95 c-1.55 -1.60 -1.90 -2.35 -1.90 -3.95 0 -1.80 0.10 -1.95 2.15 -2.65 1.15 -0.45 4.60 -0.90 7.60 -1.05 5.90 -0.35 9.30 -0.80 15.25 -2.10 3.15 -0.70 3.60 -0.95 2.80 -1.40 -2.95 -1.75 -3.80 -2.85 -3.80 -5.10 0 -2.60 -0.20 -2.45 7 -4.20 2.60 -0.60 5.15 -1.35 5.60 -1.55 0.50 -0.25 1.30 -0.45 1.75 -0.45 1.40 0 10.65 -4.10 10.35 -4.55 -0.15 -0.25 -0.85 -0.45 -1.60 -0.45 -0.75 0 -2.10 -0.45 -2.95 -1 -1.40 -0.85 -1.65 -1.25 -1.65 -3 l0 -2 6.90 -3.30 c3.75 -1.85 9.25 -4.95 12.20 -6.90 l5.40 -3.55 -3.15 -0.50 c-4.35 -0.75 -5.35 -1.40 -5.35 -3.50 0 -1.45 0.35 -2 2.10 -3.25 1.10 -0.80 2.25 -1.50 2.45 -1.50 0.75 0 9.15 -6.25 13.65 -10.15 l2 -1.70 -2.75 -0.30 c-1.55 -0.20 -3.50 -0.60 -4.35 -0.90 -1.45 -0.50 -1.60 -0.70 -1.60 -2.75 0 -1.20 0.15 -2.20 0.40 -2.20 0.60 0 11.35 -9.95 14.10 -13.10 l2.50 -2.80 -1.95 0.25 c-1.05 0.15 -3.50 0 -5.50 -0.35 l-3.55 -0.60 0 -2.60 c0 -3 0.25 -3.35 4.25 -6.40 3.15 -2.40 11 -10 11.75 -11.40 0.40 -0.75 -0.10 -0.80 -5.05 -0.60 l-5.45 0.25 0 -2.35 c0 -1.25 0.45 -3.45 1 -4.90 0.55 -1.45 1 -3 1 -3.40 0 -1 4.20 -9.25 5.80 -11.30 l1.15 -1.60 -12.35 -0.25 c-6.80 -0.15 -12.95 -0.45 -13.70 -0.60 -1.15 -0.30 -1.40 -0.65 -1.40 -1.90 0 -1.20 0.60 -2.15 2.55 -4.15 l2.60 -2.60 -2.70 -0.35 c-4.55 -0.55 -13.20 0.90 -19.95 3.30 -1.90 0.70 -3.70 0.95 -5.75 0.85 l-3 -0.15 -0.15 -3.45 c-0.10 -2.45 0.05 -3.75 0.65 -4.60 0.40 -0.65 0.65 -1.20 0.55 -1.20 -0.15 0 -2.10 0.45 -4.40 1.05 -2.30 0.55 -4.95 1.20 -5.90 1.45 -0.95 0.20 -3.10 0.85 -4.75 1.45 -1.65 0.55 -4.20 1.05 -5.60 1.05 -2.40 0 -2.65 -0.10 -2.95 -1.25 -0.40 -1.65 0.05 -4.10 1.25 -6.40 0.50 -1 0.75 -1.85 0.50 -1.85 -1.05 0 -8.70 3.30 -13.85 6.05 -6.10 3.15 -8 3.55 -9.65 1.90 -0.90 -0.90 -1 -1.50 -0.85 -4.50 0.10 -1.90 0.10 -3.45 0 -3.45 -0.85 0 -10 6.55 -13.80 9.90 -2.15 1.90 -2.70 2.15 -4.50 2 -2.40 -0.20 -3.55 -1.80 -4.15 -5.85 l-0.40 -2.65 -4.05 3.55 c-2.20 1.95 -5.20 5.05 -6.65 6.80 -2.15 2.65 -2.90 3.25 -4.10 3.25 -3.45 0 -5.05 -1.85 -5.45 -6.25 l-0.25 -3 -4.65 4.75 c-2.60 2.60 -6.40 6.85 -8.50 9.35 -3.55 4.35 -3.90 4.65 -5.70 4.65 -2 0 -2.70 -0.80 -4.10 -4.90 l-0.60 -1.70 -3.80 4.15 c-5.05 5.60 -13.20 17.90 -14.40 21.80 -0.25 0.80 -1.35 3.45 -2.45 6 -3.50 8 -6.05 17.35 -6.05 22.35 0 2.90 1.25 8.90 2.45 11.60 2.85 6.40 9.60 13.35 16.45 16.90 l1.60 0.80 2.70 -2.35 c3.90 -3.40 12.55 -10.15 15.30 -11.90 1.30 -0.80 4.75 -3.05 7.65 -5 9.20 -6.05 14 -9 18.85 -11.60 2.60 -1.40 6.10 -3.35 7.75 -4.35 1.65 -1.05 4.45 -2.55 6.25 -3.35 1.80 -0.85 6.75 -3.30 11.10 -5.50 4.30 -2.15 8.05 -3.95 8.40 -3.95 0.30 0 3.05 -1.20 6.15 -2.70 3.10 -1.45 7.50 -3.40 9.85 -4.30 2.35 -0.90 6.40 -2.50 9 -3.55 8.75 -3.55 17.05 -6.45 18.55 -6.45 1.40 0 1.45 0.10 1.45 2.15 l0 2.10 -8.15 4 c-4.45 2.20 -10.45 5.35 -13.35 7.05 -2.90 1.65 -6.70 3.75 -8.50 4.70 -1.80 0.90 -4.95 2.75 -7 4.05 -2.05 1.35 -5.20 3.25 -7 4.25 -5.55 3.15 -18.25 11.35 -27.05 17.55 -14.90 10.45 -28.65 21.95 -37.30 31.20 l-2.35 2.50 1.10 3.40 c1.35 4.05 6.05 11.35 10 15.45 1.60 1.55 4.90 4.25 7.35 5.90 4.30 2.85 10.60 6.20 11.75 6.20 0.30 0 3.50 0.90 7.15 2.05 8.10 2.45 13 3.65 19.85 4.65 7.55 1.15 12.10 1.45 14.30 1z"/>
 </g>
 <g fill="#75a927">
  <path d="M199.15 211.10 c-1.70 -0.20 -3.20 -0.50 -3.40 -0.70 -0.20 -0.15 0.90 -0.90 2.40 -1.65 2.60 -1.20 5.85 -4.15 5.85 -5.30 0 -0.95 -2.80 -1.55 -9 -2 -7.85 -0.60 -14 -1.65 -19.65 -3.30 -4.65 -1.40 -5.30 -2.20 -2.05 -2.70 1.05 -0.15 2.70 -0.65 3.55 -1.10 1.90 -1 3.50 -3.20 2.85 -3.80 -0.65 -0.60 -11.25 -3.55 -11.75 -3.30 -0.20 0.15 -0.50 0.05 -0.70 -0.25 -0.15 -0.25 -0.75 -0.50 -1.30 -0.50 -2.05 0 -14.80 -5.80 -15.45 -7 -0.35 -0.65 0.20 -0.75 3.40 -0.80 2.45 0 4.40 -0.35 5.40 -0.85 3.35 -1.75 3.25 -1.90 -4.95 -5.85 -7.20 -3.50 -15.30 -8.55 -19.50 -12.10 l-1.90 -1.65 4.65 0 c3.55 0 5.05 -0.20 6.35 -0.90 1.55 -0.85 1.60 -1 0.90 -1.75 -0.45 -0.40 -2.50 -1.80 -4.55 -3.05 -6.65 -4.05 -19 -14.50 -18.15 -15.35 0.10 -0.15 1.55 -0.05 3.20 0.25 3.40 0.55 7.20 -0.05 8.25 -1.30 0.55 -0.70 0.55 -0.85 -0.05 -1.05 -1.85 -0.60 -19.55 -18.80 -19.55 -20.05 0 -0.20 1.50 0.05 3.40 0.50 4.05 1.05 4.80 1.10 8.10 0.40 2.30 -0.50 2.50 -0.65 2.50 -1.95 0 -1.15 -0.45 -1.75 -2.15 -2.95 -7.40 -5.05 -16.50 -15.15 -15.65 -17.35 0.15 -0.40 0.80 -0.45 2.40 -0.15 1.20 0.25 3.90 0.60 6.05 0.75 4.40 0.30 4.35 0.35 3.05 -3.95 -1.50 -4.85 -3.80 -9.60 -7.05 -14.50 -1.80 -2.70 -3.15 -5 -3.05 -5.05 0.05 -0.05 1.50 0 3.15 0.15 4.25 0.40 24.40 -0.20 25.40 -0.80 0.75 -0.40 0.35 -1 -2.90 -4.10 -2.10 -2.05 -3.70 -3.75 -3.60 -3.85 0.70 -0.75 6.85 -1.25 11.35 -1 5.65 0.35 9.40 1.05 15.85 3.10 5.30 1.70 6.65 1.45 6.65 -1.20 0 -2.50 -1.90 -5.15 -4.45 -6.35 -3.75 -1.70 -2 -2.25 3.75 -1.20 5.60 1 15.05 3.40 17.40 4.45 1.30 0.55 3.05 1 3.85 1 1.35 0 1.45 -0.15 1.45 -1.75 0 -2.45 -1.10 -4.35 -3.75 -6.50 -1.25 -1.05 -2.25 -2.05 -2.25 -2.25 0 -0.65 5.85 0.45 10.30 2.05 2.45 0.85 7.25 3 10.70 4.75 l6.25 3.25 0.90 -1.10 c1.65 -2 0.95 -5.30 -1.60 -7.75 -1.50 -1.40 -2 -2.70 -1.05 -2.70 1.70 0 7.90 3.25 12.95 6.75 2.40 1.70 7.65 5.80 8.05 6.30 0.15 0.15 0.80 0.60 1.45 0.95 1.40 0.70 1.70 0.40 2.75 -3.05 0.75 -2.45 0.55 -4.55 -0.60 -6.35 -1.05 -1.60 -0.05 -1.40 3.05 0.60 4.90 3.20 7.60 5.60 11.30 9.90 3.40 4 3.80 4.25 4.85 3.80 2.45 -1.15 3.75 -5.10 2.75 -8.65 -0.30 -1.05 -0.40 -2.05 -0.30 -2.15 0.35 -0.35 5.15 3.55 7.80 6.25 2.35 2.45 7.20 8.05 10.65 12.25 1.05 1.35 2.10 2.40 2.35 2.40 0.70 0 2.40 -3.75 3 -6.55 l0.55 -2.55 3.25 3.15 c7.50 7.35 14.70 18.20 19.20 29 5.25 12.50 6.90 19 6.85 26.70 -0.05 8.20 -2.45 14.65 -8.05 21.30 -2.55 3.10 -11.95 9.45 -13.95 9.45 -0.35 0 -2 -1.20 -3.65 -2.65 -4.10 -3.60 -10.60 -8.60 -16 -12.20 -2.50 -1.65 -6.50 -4.40 -8.95 -6.05 -2.50 -1.70 -4.70 -3.10 -4.95 -3.10 -0.25 0 -1.90 -1 -3.70 -2.25 -1.80 -1.25 -5.65 -3.55 -8.55 -5.10 -2.95 -1.55 -5.90 -3.20 -6.60 -3.65 -1.65 -1.15 -10.20 -5.50 -10.80 -5.50 -0.25 0 -2.60 -1.20 -5.25 -2.60 -2.60 -1.45 -6.10 -3.25 -7.75 -4 -14.55 -6.60 -19.75 -8.85 -24.70 -10.70 -3.15 -1.15 -8.65 -3.25 -12.25 -4.60 -3.55 -1.40 -6.70 -2.40 -6.90 -2.25 -0.65 0.40 -0.10 0.75 7.90 4.90 9.70 5 19.20 10.25 19.55 10.80 0.15 0.25 0.60 0.45 1 0.45 0.40 0 3 1.45 5.85 3.20 2.80 1.75 6.75 4.10 8.75 5.30 2.05 1.15 5.80 3.50 8.40 5.15 2.60 1.70 6 3.90 7.55 4.95 4 2.50 14.45 9.75 17.40 12.05 1.40 1.05 3.75 2.85 5.30 4 6.85 5.10 13.15 10.55 20.35 17.55 8.50 8.30 7.95 7.30 6.85 12.50 -0.65 3.20 -5.45 10.95 -9.55 15.50 -5.30 5.85 -14.85 11.85 -22.45 14.05 -6.10 1.80 -6.95 2.05 -11 3.15 -1.90 0.50 -3.85 1.05 -4.25 1.20 -0.40 0.20 -1.65 0.45 -2.75 0.60 -1.10 0.10 -4 0.60 -6.50 1 -5.35 0.90 -15.75 1.35 -20.10 0.90z"/>
  <path d="M434.25 211.20 c-9.20 -0.90 -17.20 -2.50 -26.25 -5.30 -3.70 -1.10 -7.20 -2.10 -7.75 -2.15 -3.60 -0.45 -15.35 -7.80 -19.80 -12.35 -5.55 -5.65 -11.45 -16.30 -11.45 -20.60 0 -0.80 2 -3.10 6.65 -7.65 8.30 -8.20 14.25 -13.25 25.10 -21.40 9.70 -7.25 27.35 -19 35.25 -23.45 1.80 -1 4.95 -2.90 7 -4.25 2.05 -1.30 5.20 -3.15 7 -4.05 1.80 -0.95 5.60 -3.05 8.50 -4.70 2.90 -1.70 8.90 -4.85 13.35 -7.05 4.50 -2.20 8.15 -4.25 8.15 -4.60 0 -0.65 -6.20 1.45 -14 4.70 -2.35 0.95 -5.70 2.25 -7.50 2.90 -4.45 1.55 -8.80 3.40 -14.85 6.30 -2.80 1.35 -5.35 2.45 -5.65 2.45 -0.35 0 -4.10 1.80 -8.40 3.95 -4.35 2.20 -9.30 4.65 -11.10 5.50 -1.80 0.80 -4.60 2.30 -6.25 3.35 -1.65 1 -5.15 2.95 -7.75 4.35 -4.85 2.60 -9.65 5.55 -18.85 11.60 -2.90 1.95 -6.35 4.20 -7.65 5 -2.80 1.80 -11.25 8.40 -15.85 12.35 l-3.30 2.85 -2.50 -1.25 c-7.70 -3.90 -14.35 -10.60 -17.40 -17.40 -4.15 -9.45 -2.95 -22.05 3.60 -36.95 1.10 -2.55 2.10 -5 2.20 -5.50 0.80 -3.65 10.25 -17.60 16.15 -23.85 l4.95 -5.25 0.60 2.65 c0.60 2.80 2.30 6.60 2.95 6.60 0.25 0 2.10 -2.10 4.20 -4.65 6.30 -7.60 14.65 -15.85 16.05 -15.85 0.20 0 0.35 1.60 0.35 3.55 0 3.90 0.85 6 2.80 6.90 1.05 0.45 1.40 0.20 3.70 -2.65 1.40 -1.70 4.05 -4.50 5.95 -6.15 3.35 -3.05 9.50 -7.35 9.90 -6.95 0.15 0.10 -0.25 1.15 -0.85 2.30 -0.80 1.55 -1 2.60 -0.75 3.95 0.35 2.05 1.95 5.05 2.70 5.05 0.25 0 1.55 -0.95 2.85 -2.15 6.05 -5.30 12.60 -9.55 17.20 -11.20 4.25 -1.50 4.50 -1.45 2.65 0.50 -3.10 3.25 -4.05 6.95 -2.20 8.80 0.95 0.95 1.05 0.90 8.15 -2.65 8.15 -4.10 12.85 -5.80 17.15 -6.15 l3 -0.25 -2.60 2.60 c-2.50 2.50 -4.25 5.95 -3.80 7.40 0.30 0.85 1.95 0.75 5.40 -0.45 1.65 -0.60 3.80 -1.25 4.75 -1.45 0.95 -0.25 4 -0.95 6.75 -1.65 6.15 -1.55 11.25 -2.15 11.25 -1.40 0 0.30 -0.85 1.10 -1.95 1.75 -3 1.90 -4.10 3.65 -3.95 6 0.15 1.85 0.30 2.05 1.60 2.20 0.80 0.10 2.70 -0.30 4.25 -0.85 7.65 -2.80 18.35 -4.15 24.50 -3.10 1.75 0.30 3.25 0.60 3.40 0.70 0.10 0.15 -1.55 1.85 -3.60 3.90 l-3.80 3.70 1.40 0.45 c0.75 0.25 7.50 0.50 15 0.50 8.90 0.05 13.45 0.20 13.25 0.55 -0.15 0.30 -1.25 1.75 -2.40 3.25 -2.10 2.70 -6.90 11.50 -6.50 11.90 0.15 0.10 -0.30 1.65 -1 3.40 -1.85 4.95 -1.85 4.90 2.70 4.55 2.10 -0.20 4.90 -0.50 6.25 -0.65 2 -0.30 2.35 -0.20 2.35 0.50 0 2.15 -7.60 10.50 -13.75 15.20 -3.60 2.70 -4.25 3.45 -4.25 4.90 0 0.95 0.40 1.15 3 1.60 3.05 0.55 6.90 0.20 9.65 -0.85 0.80 -0.30 1.35 -0.35 1.35 -0.05 0 1.55 -17.25 19.15 -19.50 19.90 -1.10 0.40 -0.40 1.55 1.25 2.10 2.20 0.75 4.35 0.85 7.65 0.35 1.55 -0.25 2.60 -0.20 2.60 0.10 0 1.55 -14.90 13.55 -20.15 16.25 -1 0.50 -2.20 1.35 -2.65 1.85 -0.75 0.80 -0.70 0.95 0.90 1.75 1.25 0.70 2.80 0.90 6.30 0.95 l4.70 0 -1.95 1.65 c-2.15 1.90 -13.85 9.80 -14.35 9.70 -0.75 -0.20 -12.35 6.05 -12.15 6.55 0.50 1.50 3.50 2.55 7.40 2.55 2.20 0.05 3.95 0.20 3.95 0.40 0 0.20 -0.55 0.75 -1.25 1.20 -1.90 1.25 -13.10 6.15 -14.45 6.35 -0.70 0.05 -1.40 0.30 -1.60 0.50 -0.20 0.20 -0.80 0.35 -1.30 0.35 -1.95 0 -11 2.70 -11.25 3.35 -0.60 1.50 2.90 3.95 6.50 4.55 1.15 0.20 2.10 0.60 2.10 0.85 0 1.75 -17.20 5.25 -25.95 5.25 -2.60 0 -6.80 1.20 -6.80 1.95 0 1.05 3.40 4.20 5.80 5.35 1.95 0.95 2.60 1.50 2.10 1.75 -0.80 0.45 -12.20 0.95 -15.15 0.65z"/>
 </g>
</svg>