<?xml version="1.0" encoding="utf-8"?>
<!DOCTYPE svg PUBLIC "-//W3C//DTD SVG 1.0//EN" "http://www.w3.org/TR/2001/REC-SVG-20010904/DTD/svg10.dtd">
<svg version="1.0" xmlns="http://www.w3.org/2000/svg" width="197px" height="172px" viewBox="0 0 197 172" preserveAspectRatio="xMidYMid meet">
 <g fill="#ffffff">
  <path d="M0 86 l0 -86 98.50 0 98.50 0 0 86 0 86 -98.50 0 -98.50 0 0 -86z m111.75 71.95 c19.20 -3.90 36.65 -15.60 47.50 -31.75 2.90 -4.35 7.30 -12.85 8.15 -15.70 0.30 -0.95 1 -3.05 1.55 -4.65 1.95 -5.55 2.75 -12 2.70 -22.10 0 -10.50 -0.80 -15.75 -3.75 -24.25 -2.35 -6.65 -7.55 -17 -8.25 -16.35 -0.10 0.15 0.25 0.90 0.80 1.70 0.55 0.75 1.35 2.30 1.80 3.40 0.85 2.35 0.60 1.95 -2.75 -3.65 -1.35 -2.35 -2.30 -4.50 -2.15 -4.90 0.20 -0.50 0 -0.75 -0.40 -0.70 -1.40 0.20 -1.95 0 -1.95 -0.80 0 -0.40 0.25 -0.60 0.50 -0.45 0.30 0.15 0.50 0.05 0.50 -0.20 0 -0.30 -0.45 -0.55 -1.05 -0.55 -0.75 0 -0.95 -0.25 -0.75 -0.80 0.15 -0.45 0.10 -0.60 -0.20 -0.45 -0.30 0.20 -1.30 -0.55 -2.25 -1.60 -0.90 -1.05 -1.45 -2 -1.20 -2.20 0.30 -0.15 0.10 -0.60 -0.35 -1 -0.60 -0.45 -0.75 -0.50 -0.50 -0.10 0.65 1.15 -0.50 0.65 -1.85 -0.75 -0.75 -0.80 -1.20 -1.60 -1 -1.85 0.25 -0.20 0.15 -0.25 -0.15 -0.10 -0.30 0.20 -1.40 -0.35 -2.35 -1.20 -2.75 -2.35 -8 -5.95 -8.70 -5.95 -0.35 0 -0.65 -0.20 -0.65 -0.45 0 -0.55 -9.25 -5.25 -12.95 -6.60 -4.15 -1.45 -7.80 -2.40 -11.50 -3 -1.80 -0.30 -4.40 -0.75 -5.80 -0.95 -3.30 -0.55 -12.30 -0.55 -15.75 0.05 -1.50 0.25 -4.10 0.65 -5.75 0.90 -3.95 0.60 -8.90 1.95 -10.60 2.85 -0.80 0.35 -1.70 0.70 -2.05 0.70 -0.35 0 -2.80 1.15 -5.45 2.50 -2.65 1.40 -5.10 2.50 -5.50 2.50 -0.35 0 -0.65 0.20 -0.65 0.40 0 0.25 -1.15 1.20 -2.55 2.10 -1.40 0.90 -3.55 2.40 -4.80 3.35 -1.20 0.90 -2.45 1.55 -2.75 1.35 -0.35 -0.20 -0.40 -0.15 -0.20 0.20 0.20 0.30 -0.50 1.35 -1.55 2.30 -2.15 2 -3.30 2.40 -1.85 0.70 l0.90 -1.15 -1.15 1.05 c-0.60 0.55 -1.15 1.35 -1.20 1.75 -0.20 1.25 -0.85 1.90 -1.60 1.60 -0.45 -0.15 -0.80 0.05 -0.80 0.40 -0.05 0.40 -0.10 0.95 -0.15 1.20 -0.10 0.70 -3.40 4.80 -3.70 4.55 -0.10 -0.15 0.40 -1.05 1.15 -2 0.75 -1 1.15 -1.80 0.95 -1.80 -0.50 0.05 -4.15 5 -6.65 9 -4.40 7.20 -8.45 17.70 -10 26 -0.65 3.55 -1.30 11.20 -1.15 13.75 0.65 14.25 2.65 22.85 7.35 32.50 11.95 24.25 34.40 39.80 61.50 42.45 4.40 0.40 16.15 -0.30 21 -1.25z m47 -116.95 c-0.50 -0.55 -1 -0.90 -1.15 -0.75 -0.15 0.15 0.15 0.70 0.65 1.25 0.50 0.55 1 0.90 1.15 0.75 0.15 -0.15 -0.15 -0.70 -0.65 -1.25z"/>
  <path d="M87.75 154.75 c-6.45 -0.75 -15 -3.10 -20.15 -5.55 -2 -0.90 -3.70 -1.70 -3.80 -1.70 -0.50 0 -7.40 -4.25 -9.95 -6.15 -4.65 -3.40 -12.65 -11.60 -16.10 -16.55 -9.85 -14.15 -13.80 -28.30 -13 -46.55 1.10 -25.60 17.10 -49.20 41.15 -60.80 10.05 -4.80 18.80 -6.70 31.10 -6.70 8.15 0 13.10 0.55 18.50 2.10 10.35 3 16.15 5.75 24.75 11.90 3 2.15 13.75 12.40 13.75 13.10 0 0.15 0.95 1.65 2.15 3.35 2.10 2.95 3.90 5.95 6.55 11 1.45 2.70 4.25 11.15 5.50 16.60 0.65 2.75 0.85 6.05 0.85 14.15 0 9.15 -0.15 11.20 -1.05 14.95 -2.30 9.40 -4.50 15 -8.30 21.50 -11.80 20 -31.50 32.85 -54.20 35.40 -7.35 0.80 -10.30 0.80 -17.75 -0.05z m17.15 -5.75 c2.65 -0.30 6.05 -0.85 7.45 -1.30 1.45 -0.40 3.95 -1.10 5.50 -1.55 5.80 -1.65 15.55 -7.15 21.70 -12.20 3.15 -2.60 8.05 -7.65 9.90 -10.25 0.65 -0.95 1.40 -1.70 1.65 -1.70 0.20 0 0.40 -0.20 0.40 -0.45 0 -0.30 0.65 -1.50 1.45 -2.65 4 -5.95 7.75 -15.25 9.55 -23.80 0.95 -4.50 1.05 -6.25 0.90 -13.75 -0.25 -9.10 -0.70 -11.75 -3.50 -20.10 -7.55 -22.60 -28.95 -40.45 -52.75 -44.05 -6.05 -0.90 -14.55 -0.90 -20.50 0 -5.45 0.85 -9.30 2 -16.15 4.80 -11.10 4.60 -23.75 15.65 -30.35 26.50 -8.25 13.60 -11.60 31.50 -8.60 46.15 3.45 16.80 10.80 29.05 24.20 40.35 2.85 2.40 8 5.55 13 7.95 4.80 2.35 6.55 2.95 13 4.75 5.95 1.65 15 2.15 23.15 1.30z"/>
  <path d="M64.75 131.50 c-1.20 -0.30 -0.80 -0.40 1.75 -0.45 1.80 -0.05 3.80 -0.20 4.50 -0.40 1.15 -0.30 1.20 -0.30 0.40 0.50 -0.90 0.90 -3.90 1.05 -6.65 0.35z"/>
  <path d="M80.05 130.80 c0.10 -0.10 0.90 -0.30 1.70 -0.50 1.10 -0.25 1.30 -0.20 0.75 0.20 -0.70 0.45 -2.95 0.75 -2.45 0.30z"/>
  <path d="M79.75 127.65 c0.30 -0.30 1.40 -1 2.50 -1.60 1.10 -0.65 1.55 -0.75 1 -0.30 -1.10 0.90 -4.30 2.65 -3.50 1.90z"/>
  <path d="M155.50 87.65 c0 -0.30 -0.75 -1.70 -1.70 -3.10 -1.95 -2.85 -1.95 -3.10 -0.05 -1.35 1.30 1.20 2.60 4.10 2.05 4.65 -0.15 0.20 -0.30 0.10 -0.30 -0.20z"/>
  <path d="M149.95 79.65 l-1.70 -1.90 1.90 1.70 c1 0.95 1.85 1.80 1.85 1.90 0 0.40 -0.40 0 -2.05 -1.70z"/>
  <path d="M147.75 73.65 c-1.65 -1.90 -2.45 -2.95 -1.80 -2.40 1.30 1.10 5.25 5.75 4.95 5.75 -0.15 0 -1.55 -1.50 -3.15 -3.35z"/>
  <path d="M131.65 70.65 c0.45 -0.10 1.25 -0.10 1.75 0 0.45 0.15 0.05 0.25 -0.90 0.25 -0.95 0 -1.35 -0.10 -0.85 -0.25z"/>
  <path d="M66.60 50 c0 -0.95 0.10 -1.35 0.25 -0.85 0.10 0.45 0.10 1.25 0 1.75 -0.15 0.45 -0.25 0.05 -0.25 -0.90z"/>
  <path d="M66.60 43.50 c0 -0.95 0.10 -1.35 0.25 -0.85 0.10 0.45 0.10 1.25 0 1.75 -0.15 0.45 -0.25 0.05 -0.25 -0.90z"/>
  <path d="M71.25 29 c1.05 -1.10 2.15 -2 2.35 -2 0.25 0 -0.20 0.90 -0.90 2 -0.85 1.25 -1.70 2 -2.35 2 -0.90 0 -0.80 -0.25 0.90 -2z"/>
  <path d="M24.80 99.45 c-0.40 -2.10 0 -2.50 0.45 -0.45 0.20 0.85 0.25 1.70 0.10 1.80 -0.10 0.15 -0.35 -0.50 -0.55 -1.35z"/>
  <path d="M23.25 90.65 c-0.45 -4.20 -0.35 -14.75 0.15 -17.15 0.25 -1 0.40 3.05 0.40 9.40 0 6.10 -0.05 11.10 -0.10 11.10 -0.05 0 -0.25 -1.50 -0.45 -3.35z"/>
  <path d="M170 89.15 c0 -1.80 0.20 -3.15 0.50 -3.15 0.65 0 0.65 4.50 0 5.50 -0.35 0.55 -0.50 -0.15 -0.50 -2.35z"/>
  <path d="M170.40 80.35 c-0.25 -0.50 -0.35 -2.65 -0.35 -4.75 l0.05 -3.85 0.50 2.45 c0.55 2.85 0.35 7.60 -0.20 6.15z"/>
  <path d="M24.35 69 c0.35 -3.15 1.65 -8 2.45 -9.50 0.80 -1.55 0.90 -0.60 0.15 1.35 -0.35 0.75 -1.10 3.45 -1.75 5.90 -0.65 2.50 -1.05 3.50 -0.85 2.25z"/>
  <path d="M168.80 67.20 c-0.20 -1 -0.25 -1.90 -0.15 -2 0.15 -0.15 0.40 0.55 0.55 1.60 0.20 1 0.25 1.90 0.15 2 -0.15 0.15 -0.40 -0.55 -0.55 -1.60z"/>
  <path d="M167.10 61.05 c-0.85 -2.40 -0.70 -3.15 0.20 -1.10 0.40 0.95 0.65 1.95 0.55 2.25 -0.10 0.30 -0.45 -0.25 -0.75 -1.15z"/>
  <path d="M27.55 57.60 c-0.10 -1.85 8.40 -17.60 9.45 -17.60 0.25 0 -0.60 1.50 -1.85 3.40 -1.90 2.90 -3.20 5.40 -6.75 13.10 -0.45 0.95 -0.85 1.45 -0.85 1.10z"/>
  <path d="M164.60 54.45 c-0.85 -2 -1.50 -3.75 -1.35 -3.85 0.30 -0.30 3.30 6.45 3.15 7 -0.10 0.25 -0.90 -1.15 -1.80 -3.15z"/>
 </g>
 <g fill="#f7f7f7">
  <path d="M90.75 159.20 c-23.45 -2.30 -43.75 -14.40 -56.30 -33.45 -6.75 -10.30 -10.70 -20.85 -11.70 -31.25 -0.15 -1.25 0.20 -0.20 0.75 2.25 2.75 12.50 6.80 21.95 13.15 30.90 11.50 16.10 28.75 26.75 48.75 30.10 6.90 1.15 20.25 0.85 27.10 -0.65 19.40 -4.20 36.65 -16.40 47.65 -33.75 1 -1.55 1.85 -3 1.85 -3.20 0 -0.15 0.30 -0.70 0.65 -1.10 0.90 -1.05 4.05 -8.60 5.35 -12.65 1.20 -3.70 3 -11.55 3.05 -13.40 0.05 -0.80 0.15 -0.95 0.30 -0.40 0.35 1.30 -1.25 9.90 -2.40 13.25 -0.55 1.60 -1.25 3.70 -1.55 4.65 -0.85 2.85 -5.25 11.35 -8.15 15.70 -10.85 16.15 -28.30 27.85 -47.50 31.75 -4.85 0.95 -16.60 1.65 -21 1.25z"/>
  <path d="M71 131.55 c0 -0.25 0.35 -0.60 0.80 -0.75 0.40 -0.15 0.60 -0.10 0.45 0.15 -0.15 0.30 0.60 0.60 1.60 0.70 1.75 0.15 1.70 0.20 -0.45 0.25 -1.35 0.05 -2.40 -0.10 -2.40 -0.35z"/>
  <path d="M95.75 122 c0.80 -0.80 1.60 -1.50 1.80 -1.50 0.20 0 -0.30 0.70 -1.05 1.50 -0.75 0.85 -1.60 1.50 -1.80 1.50 -0.20 0 0.25 -0.65 1.05 -1.50z"/>
  <path d="M169.90 93.50 c0.10 -0.80 0.30 -1.50 0.40 -1.50 0.10 0 0.20 0.70 0.20 1.50 0 0.85 -0.20 1.50 -0.40 1.50 -0.25 0 -0.35 -0.65 -0.20 -1.50z"/>
  <path d="M21.90 86.75 c-0.10 -1.45 0.05 -2.75 0.35 -3.10 0.75 -0.70 0.95 2.70 0.30 4.45 -0.35 0.95 -0.45 0.75 -0.65 -1.35z"/>
  <path d="M171.65 87.25 c0 -1.10 0.10 -1.50 0.20 -0.85 0.10 0.60 0.10 1.50 0 2 -0.15 0.45 -0.25 -0.05 -0.20 -1.15z"/>
  <path d="M170 85.10 c0 -0.50 0.30 -2 0.65 -3.35 0.35 -1.45 0.50 -3.55 0.30 -5 -0.15 -1.35 -0.10 -2.95 0.10 -3.50 0.30 -0.70 0.40 -0.30 0.50 1.50 0.05 1.40 0.15 4.25 0.25 6.40 0.10 2.40 0 3.75 -0.30 3.60 -0.30 -0.20 -0.50 0.05 -0.50 0.45 0 0.45 -0.20 0.80 -0.50 0.80 -0.25 0 -0.50 -0.40 -0.50 -0.90z"/>
  <path d="M21.65 82.35 c0.20 -0.50 0.50 -3 0.65 -5.65 0.45 -5.95 1 -5.65 0.80 0.40 -0.15 3.35 -0.40 4.75 -1 5.35 -0.75 0.75 -0.75 0.70 -0.45 -0.10z"/>
  <path d="M169.10 80.50 c0 -0.95 0.10 -1.35 0.25 -0.85 0.10 0.45 0.10 1.25 0 1.75 -0.15 0.45 -0.25 0.05 -0.25 -0.90z"/>
  <path d="M24.65 75.50 c0 -1.25 0.10 -1.75 0.20 -1.10 0.10 0.60 0.10 1.60 0 2.25 -0.10 0.60 -0.20 0.10 -0.20 -1.15z"/>
  <path d="M23.35 71.40 c-0.20 -0.65 0.20 -3.45 0.95 -6.55 0.25 -1.10 0.45 -1.25 1 -0.80 0.40 0.30 0.70 0.85 0.70 1.15 0 0.30 -0.20 0.25 -0.45 -0.15 -0.50 -0.80 -1.05 1.05 -1.30 4.50 -0.15 2.15 -0.50 2.85 -0.90 1.85z"/>
  <path d="M169.95 71.75 c-0.05 -0.25 -0.05 -0.90 0 -1.35 0.05 -0.50 -0.10 -0.90 -0.35 -0.90 -0.25 0 -0.35 -0.60 -0.20 -1.30 0.15 -0.85 0.05 -1.25 -0.25 -1.05 -0.30 0.20 -0.40 -0.20 -0.25 -1 0.15 -0.90 0.05 -1.20 -0.35 -0.95 -0.80 0.50 -0.70 -0.45 0.15 -1.15 0.55 -0.45 0.80 0.15 1.40 3.15 0.40 2.10 0.55 4.05 0.35 4.40 -0.25 0.35 -0.45 0.45 -0.50 0.15z"/>
  <path d="M167.95 63.25 c-0.05 -0.30 -0.05 -0.70 0 -0.95 0.15 -0.80 -0.55 -2.30 -0.95 -2.05 -0.20 0.15 -0.30 -0.20 -0.15 -0.75 0.15 -0.55 0 -1 -0.30 -1 -0.25 0 -0.40 -0.30 -0.25 -0.70 0.15 -0.40 0.05 -1.20 -0.30 -1.75 -0.30 -0.60 -0.35 -1.05 -0.10 -1.05 0.75 0 3.20 7.60 2.60 8.20 -0.30 0.30 -0.50 0.30 -0.55 0.05z"/>
  <path d="M25 62.85 c0 -1.90 5.15 -13.65 8.05 -18.35 2.50 -4 6.15 -8.95 6.65 -9 0.20 0 -0.20 0.80 -0.90 1.75 -0.75 0.95 -1.20 2 -1.05 2.25 0.15 0.30 0 0.50 -0.40 0.50 -0.95 0 -5 6.35 -4.55 7.10 0.20 0.30 0.15 0.40 -0.15 0.25 -0.65 -0.40 -1.30 1 -0.80 1.75 0.20 0.35 0.05 0.40 -0.35 0.15 -0.50 -0.30 -0.60 -0.20 -0.35 0.45 0.20 0.45 0.15 0.75 -0.10 0.60 -0.55 -0.35 -1.65 2.15 -1.25 2.80 0.25 0.35 0.10 0.40 -0.30 0.15 -0.50 -0.30 -0.60 -0.15 -0.40 0.65 0.20 0.60 0.15 1 -0.10 0.85 -0.20 -0.15 -0.65 0.50 -1 1.40 -1.95 5.10 -3 7.50 -3 6.70z"/>
  <path d="M125.80 62.60 c-0.15 -0.25 0.40 -0.30 1.25 -0.20 0.80 0.10 1.45 0.30 1.45 0.40 0 0.40 -2.45 0.20 -2.70 -0.20z"/>
  <path d="M164.80 54.25 c0.35 -0.80 -1.10 -3.75 -1.85 -3.75 -0.30 0 -0.40 -0.20 -0.25 -0.40 0.30 -0.50 -1.90 -5.35 -2.65 -5.80 -0.30 -0.20 -0.55 -0.60 -0.55 -0.95 0 -1.10 1.45 0.90 3.60 5.15 2.85 5.50 3 5.85 2.15 6.20 -0.45 0.15 -0.60 0 -0.45 -0.45z"/>
  <path d="M66.65 46.75 c0 -1.10 0.10 -1.50 0.20 -0.85 0.10 0.60 0.10 1.50 0 2 -0.15 0.45 -0.25 -0.05 -0.20 -1.15z"/>
  <path d="M158.75 42.05 c-0.15 -0.30 -0.55 -0.45 -0.80 -0.25 -0.25 0.15 -0.45 0.10 -0.40 -0.15 0.15 -1 -0.10 -1.70 -0.55 -1.40 -0.25 0.15 -0.50 -0.05 -0.50 -0.45 0 -0.45 0.15 -0.80 0.40 -0.75 0.55 0 2.75 2.95 2.45 3.25 -0.15 0.15 -0.40 0 -0.60 -0.25z"/>
  <path d="M41.65 34.95 c-0.65 -0.65 -0.30 -1.95 0.45 -1.95 0.35 0 0.30 0.25 -0.05 0.65 -0.40 0.50 -0.35 0.85 0.05 1.25 0.35 0.35 0.50 0.60 0.35 0.60 -0.15 0 -0.50 -0.25 -0.80 -0.55z"/>
  <path d="M150.20 33.85 l-0.95 -1.10 1.15 0.95 c1 0.85 1.35 0.75 1.15 -0.30 -0.05 -0.55 0.85 -0.50 1.15 0 0.10 0.20 -0.20 0.65 -0.70 0.95 -0.75 0.50 -1.05 0.40 -1.80 -0.50z"/>
  <path d="M43.90 31.15 c0.30 -0.55 0.95 -1.30 1.45 -1.70 0.70 -0.55 0.70 -0.45 -0.10 0.50 -0.55 0.65 -0.95 1.30 -0.85 1.45 0.10 0.20 -0.10 0.40 -0.40 0.50 -0.45 0.15 -0.45 -0.05 -0.10 -0.75z"/>
 </g>
 <g fill="#efefef">
  <path d="M84.75 157.70 c-4.90 -0.85 -12 -2.85 -15.30 -4.30 -3.90 -1.65 -2.60 -1.55 1.80 0.15 5.05 1.95 13.45 3.85 19.40 4.40 4.25 0.40 4.35 0.40 1.35 0.45 -1.80 0 -5.05 -0.30 -7.25 -0.70z"/>
  <path d="M99.90 158.15 c1.15 -0.10 2.95 -0.10 4 0 1 0.10 0.05 0.20 -2.15 0.20 -2.20 0 -3.05 -0.10 -1.85 -0.20z"/>
  <path d="M107.75 157.45 c2.55 -0.50 4.60 -0.50 2.50 0.05 -0.80 0.20 -2.15 0.40 -3 0.40 -1.25 0 -1.20 -0.10 0.50 -0.45z"/>
  <path d="M116.75 155.55 c12.60 -3.70 22.20 -9.30 32.30 -18.75 2.05 -1.95 1.60 -1.40 -1.10 1.25 -5.30 5.30 -11.55 9.70 -18.65 13.15 -5.40 2.60 -12.15 5.05 -15.30 5.50 -1.30 0.15 -0.15 -0.30 2.75 -1.15z"/>
  <path d="M62.85 150.40 c-1.55 -0.85 -2.80 -1.65 -2.70 -1.70 0.10 -0.10 1.60 0.60 3.40 1.55 1.75 0.95 3 1.75 2.70 1.75 -0.25 -0.05 -1.80 -0.75 -3.40 -1.60z"/>
  <path d="M55.25 145.80 c-4.20 -2.80 -9.90 -7.75 -13.10 -11.40 -1.05 -1.20 0.45 0.10 3.35 2.85 2.90 2.75 7.25 6.30 9.65 7.90 3.75 2.55 4.80 3.35 4.20 3.35 -0.05 0 -1.90 -1.20 -4.10 -2.70z"/>
  <path d="M151.50 132.25 c0.95 -0.95 1.80 -1.75 1.95 -1.75 0.15 0 -0.50 0.80 -1.45 1.75 -0.95 0.95 -1.80 1.75 -1.95 1.75 -0.15 0 0.50 -0.80 1.45 -1.75z"/>
  <path d="M72.15 130.80 c0 -0.55 0.25 -0.65 0.95 -0.25 0.50 0.25 0.90 0.60 0.90 0.70 0 0.15 -0.40 0.25 -0.90 0.25 -0.50 0 -0.95 -0.35 -0.95 -0.70z"/>
  <path d="M36.55 127.50 c-1.40 -1.90 -2.55 -3.65 -2.55 -3.80 0 -0.35 0.75 0.60 3.70 4.70 1.05 1.40 1.75 2.60 1.65 2.60 -0.15 0 -1.40 -1.55 -2.80 -3.50z"/>
  <path d="M37.55 126.80 l-1.20 -1.55 1.40 1.35 c0.80 0.75 1.35 1.45 1.20 1.55 -0.10 0.15 -0.75 -0.50 -1.40 -1.35z"/>
  <path d="M158 126 c0.60 -0.80 1.20 -1.50 1.30 -1.50 0.15 0 -0.20 0.70 -0.80 1.50 -0.60 0.85 -1.20 1.50 -1.30 1.50 -0.15 0 0.20 -0.65 0.80 -1.50z"/>
  <path d="M33.05 120.65 c0.60 -0.75 0.60 -0.80 -0.15 -0.50 -0.50 0.15 -1 0.05 -1.20 -0.25 -0.25 -0.35 -0.10 -0.40 0.30 -0.15 0.50 0.30 0.60 0.20 0.30 -0.50 -0.35 -0.90 -0.30 -0.90 0.70 0 0.75 0.70 0.85 1.05 0.45 1.60 -0.30 0.35 -0.70 0.65 -0.80 0.65 -0.15 0 0.05 -0.40 0.40 -0.85z"/>
  <path d="M160.55 120.80 c-0.45 -0.50 -0.35 -0.85 0.30 -1.35 0.80 -0.65 0.85 -0.60 0.25 0.15 -0.40 0.50 -0.45 0.95 -0.15 1.10 0.25 0.15 0.60 0 0.70 -0.30 0.20 -0.45 0.30 -0.50 0.30 -0.05 0.05 0.95 -0.80 1.20 -1.40 0.45z"/>
  <path d="M162.50 118.90 c0.30 -0.35 0.50 -0.95 0.50 -1.35 0 -0.55 -0.20 -0.50 -0.75 0.25 -0.40 0.50 -0.70 0.75 -0.70 0.45 0 -0.25 0.30 -0.95 0.70 -1.45 0.55 -0.70 0.75 -0.80 0.75 -0.25 0.05 0.40 0.40 0.10 0.80 -0.70 0.40 -0.75 0.60 -1.60 0.45 -1.85 -0.15 -0.30 -0.05 -0.50 0.25 -0.50 0.35 0 0.45 -0.40 0.25 -0.95 -0.15 -0.50 0.05 -1.20 0.50 -1.55 0.40 -0.35 0.75 -1.10 0.75 -1.70 0 -0.55 0.20 -1.35 0.45 -1.70 0.35 -0.55 0.45 -0.55 0.70 0.10 0.35 0.85 -3.40 10.15 -4.50 11.20 -0.40 0.35 -0.45 0.35 -0.15 0z"/>
  <path d="M27.05 109.90 c-0.35 -0.95 -0.40 -1.75 -0.10 -2.05 0.55 -0.55 1.10 0.30 1.30 1.95 0.20 1.85 -0.60 1.90 -1.20 0.10z"/>
  <path d="M25.60 105.40 c-0.35 -1.30 -0.35 -2.40 -0.10 -2.85 0.35 -0.65 0.45 -0.50 0.50 0.60 0 0.75 0.20 1.35 0.45 1.35 0.40 0 0.35 2.40 -0.10 2.80 -0.10 0.15 -0.45 -0.70 -0.75 -1.90z"/>
  <path d="M167.40 106.70 c-0.20 -0.20 -0.15 -0.75 0.15 -1.30 0.30 -0.55 0.40 -1.25 0.30 -1.65 -0.15 -0.35 0 -1.20 0.40 -1.85 0.35 -0.70 0.90 -2.50 1.30 -3.95 0.35 -1.50 0.85 -2.90 1.10 -3.20 0.35 -0.30 0.40 -0.20 0.20 0.40 -0.20 0.50 -0.60 2.35 -0.90 4.10 -0.35 1.75 -0.80 3.10 -1.05 2.95 -0.20 -0.15 -0.25 0.05 -0.15 0.40 0.35 0.85 -0.90 4.55 -1.35 4.10z"/>
  <path d="M24.30 99.95 c-0.70 -2.25 -1.15 -4.95 -0.80 -4.95 0.40 0 1.55 5.10 1.20 5.45 -0.10 0.10 -0.25 -0.10 -0.40 -0.50z"/>
  <path d="M22.50 89.90 c0 -1.40 0.10 -2.45 0.20 -2.35 0.40 0.45 0.65 4.95 0.25 4.95 -0.25 0 -0.45 -1.15 -0.45 -2.60z"/>
  <path d="M170.90 89.40 c0.25 -4.75 0.45 -5.20 0.55 -1.25 0 2.10 -0.10 3.85 -0.30 3.85 -0.25 0 -0.35 -1.20 -0.25 -2.60z"/>
  <path d="M153.50 83.10 c0 -0.30 -0.75 -1.30 -1.60 -2.15 -0.90 -0.90 -1.15 -1.20 -0.50 -0.70 0.60 0.50 1.10 0.70 1.10 0.45 0.05 -0.25 0.40 0.20 0.80 0.95 0.45 0.80 0.65 1.55 0.50 1.75 -0.15 0.15 -0.30 0 -0.30 -0.30z"/>
  <path d="M170.10 82 c0 -0.95 0.10 -1.35 0.25 -0.85 0.10 0.45 0.10 1.25 0 1.75 -0.15 0.45 -0.25 0.05 -0.25 -0.90z"/>
  <path d="M96.15 77.15 c0.45 -0.10 1.25 -0.10 1.75 0 0.45 0.15 0.05 0.25 -0.90 0.25 -0.95 0 -1.35 -0.10 -0.85 -0.25z"/>
  <path d="M170.60 72.50 c0 -0.95 0.10 -1.35 0.25 -0.85 0.10 0.45 0.10 1.25 0 1.75 -0.15 0.45 -0.25 0.05 -0.25 -0.90z"/>
  <path d="M61.15 53.75 c0 -1.35 0.10 -1.90 0.20 -1.10 0.10 0.75 0.10 1.85 0 2.50 -0.10 0.60 -0.20 0 -0.20 -1.40z"/>
  <path d="M66.15 43.75 c0 -1.10 0.10 -1.50 0.20 -0.85 0.10 0.60 0.10 1.50 0 2 -0.15 0.45 -0.25 -0.05 -0.20 -1.15z"/>
  <path d="M68.35 32.90 c0.20 -0.35 0.40 -0.85 0.40 -1.10 0 -0.25 0.40 -0.50 0.95 -0.60 0.80 -0.10 0.80 0 -0.25 1.10 -1.20 1.30 -1.75 1.60 -1.10 0.60z"/>
  <path d="M95.15 10.15 c1 -0.10 2.70 -0.10 3.75 0 1 0.10 0.15 0.20 -1.90 0.20 -2.05 0 -2.90 -0.10 -1.85 -0.20z"/>
 </g>
 <g fill="#e6e6e6">
  <path d="M95.65 158.15 c0.45 -0.10 1.25 -0.10 1.75 0 0.45 0.15 0.05 0.25 -0.90 0.25 -0.95 0 -1.35 -0.10 -0.85 -0.25z"/>
  <path d="M89.40 157.65 c0.60 -0.10 1.50 -0.10 2 0 0.45 0.15 -0.05 0.25 -1.15 0.20 -1.10 0 -1.50 -0.10 -0.85 -0.20z"/>
  <path d="M102.05 157.80 c0.10 -0.10 1.80 -0.30 3.70 -0.45 2.70 -0.20 3.05 -0.20 1.50 0.15 -2 0.45 -5.60 0.65 -5.20 0.30z"/>
  <path d="M85.65 157.15 c0.45 -0.10 1.25 -0.10 1.75 0 0.45 0.15 0.05 0.25 -0.90 0.25 -0.95 0 -1.35 -0.10 -0.85 -0.25z"/>
  <path d="M74.35 154.70 c-2.20 -0.70 -3.85 -1.35 -3.75 -1.45 0.10 -0.10 2.20 0.45 4.65 1.25 2.50 0.80 4.15 1.45 3.75 1.45 -0.40 0 -2.50 -0.55 -4.65 -1.25z"/>
  <path d="M115.25 155.50 c0.55 -0.25 1.35 -0.45 1.75 -0.45 0.45 0 0.40 0.20 -0.25 0.45 -0.55 0.25 -1.35 0.45 -1.75 0.45 -0.45 0 -0.40 -0.20 0.25 -0.45z"/>
  <path d="M120.45 153.95 c1.50 -0.50 2.80 -0.85 2.90 -0.75 0.25 0.25 -4.30 1.80 -5.05 1.75 -0.30 0 0.65 -0.45 2.15 -1z"/>
  <path d="M65 151 c-0.95 -0.55 -1.50 -0.95 -1.25 -0.95 0.30 0 1.30 0.40 2.25 0.95 0.95 0.55 1.55 0.95 1.25 0.95 -0.25 0 -1.30 -0.40 -2.25 -0.95z"/>
  <path d="M127.55 151.30 c0.50 -0.45 4.45 -2.30 4.45 -2.05 0 0.25 -3.75 2.25 -4.30 2.25 -0.20 0 -0.25 -0.10 -0.15 -0.20z"/>
  <path d="M55.85 145.75 c-1 -0.70 -1.85 -1.40 -1.85 -1.55 0 -0.10 0.90 0.40 2 1.10 1.75 1.15 2.35 1.70 1.85 1.70 -0.05 0 -0.95 -0.55 -2 -1.25z"/>
  <path d="M136 146.85 c0 -0.15 1.10 -0.95 2.50 -1.85 1.50 -0.95 2.35 -1.85 2.15 -2.20 -0.15 -0.30 -0.15 -0.40 0.10 -0.20 0.20 0.20 1.20 -0.25 2.15 -1 1 -0.75 1.65 -1.10 1.45 -0.80 -0.60 1.05 -8.35 6.65 -8.35 6.05z"/>
  <path d="M49.85 141.25 c-1.85 -1.55 -3.25 -3 -3.10 -3.30 0.20 -0.25 0.55 -0.35 0.80 -0.15 0.25 0.15 0.35 0.45 0.20 0.65 -0.40 0.65 1.60 2.20 2.35 1.75 0.35 -0.20 0.50 -0.15 0.25 0.05 -0.40 0.45 1 2.25 1.80 2.25 0.25 0 0.15 -0.40 -0.20 -0.85 -0.65 -0.85 -0.65 -0.85 0.35 0 0.55 0.45 1.25 0.70 1.45 0.50 0.25 -0.25 0.20 -0.05 -0.15 0.40 -0.30 0.45 -0.45 0.95 -0.25 1.10 0.15 0.20 0.20 0.35 0.10 0.35 -0.15 0 -1.75 -1.25 -3.60 -2.75z"/>
  <path d="M145.80 139.45 c0.50 -0.60 0.95 -1.20 0.95 -1.40 0 -0.15 0.15 -0.25 0.35 -0.20 0.15 0.05 0.60 -0.25 1 -0.70 0.55 -0.75 0.55 -0.80 -0.35 -0.45 -0.75 0.25 -0.85 0.20 -0.45 -0.20 0.30 -0.30 0.95 -0.60 1.35 -0.70 1.20 -0.15 2.85 -1.85 2.50 -2.50 -0.15 -0.30 -0.10 -0.40 0.10 -0.15 0.25 0.20 0.90 -0.05 1.45 -0.50 0.60 -0.50 -0.85 1.10 -3.20 3.50 -2.30 2.40 -4.30 4.35 -4.45 4.35 -0.10 0 0.20 -0.45 0.75 -1.05z"/>
  <path d="M45.05 136.80 c-0.85 -1 0.10 -1.40 1.25 -0.55 0.95 0.75 0.95 0.75 0 0.40 -0.65 -0.20 -0.85 -0.15 -0.60 0.25 0.50 0.85 0.05 0.75 -0.65 -0.10z"/>
  <path d="M41.70 133.40 c-3.05 -3.25 -3.35 -3.75 -2.65 -4.20 0.40 -0.25 0.45 -0.15 0.20 0.30 -0.30 0.50 -0.20 0.60 0.55 0.30 0.50 -0.20 0.75 -0.20 0.55 0 -0.20 0.20 -0.10 0.65 0.20 1.05 0.30 0.35 0.40 0.65 0.20 0.65 -0.20 0 -0.10 0.35 0.25 0.75 0.35 0.40 0.80 0.65 1 0.50 0.20 -0.15 0.65 0.10 1 0.50 0.35 0.40 0.45 0.75 0.25 0.75 -0.20 0 -0.10 0.35 0.25 0.75 1.30 1.55 0.15 0.65 -1.80 -1.35z"/>
  <path d="M76.35 131.45 c-0.50 -0.30 -1.25 -0.40 -1.60 -0.25 -0.40 0.15 -0.85 0.05 -1 -0.20 -0.20 -0.30 -0.25 -0.50 -0.15 -0.50 0.10 0 0.90 -0.20 1.80 -0.45 1 -0.30 1.50 -0.30 1.35 0 -0.20 0.25 0.10 0.45 0.60 0.50 0.55 0 0.65 0.15 0.25 0.30 -0.30 0.10 -0.50 0.45 -0.30 0.70 0.35 0.55 0.20 0.55 -0.95 -0.10z"/>
  <path d="M153.35 131.20 c0.35 -0.15 0.50 -0.55 0.35 -0.90 -0.25 -0.65 1.20 -1.55 1.65 -1.10 0.45 0.40 -1.10 2.30 -1.85 2.25 -0.45 0 -0.55 -0.10 -0.15 -0.25z"/>
  <path d="M155.40 127.75 c0.60 -0.45 1.10 -1.15 1.10 -1.60 0 -0.45 0.15 -0.70 0.30 -0.50 0.35 0.35 1.95 -1.10 1.95 -1.70 0 -0.25 0.40 -0.85 0.85 -1.40 0.45 -0.55 0.65 -1.15 0.50 -1.35 -0.20 -0.20 -0.05 -0.20 0.30 0 0.55 0.30 0.55 0.55 0 1.20 -0.35 0.50 -0.85 1 -1.15 1.20 -0.25 0.20 -0.35 0.40 -0.10 0.40 0.85 0 -2.80 4.20 -3.80 4.35 l-1.10 0.20 1.15 -0.80z"/>
  <path d="M161.10 119.90 c0.05 -0.75 0.45 -1.50 0.80 -1.65 0.40 -0.15 0.55 -0.60 0.40 -1.05 -0.15 -0.40 -0.10 -0.60 0.20 -0.45 0.30 0.15 0.50 -0.05 0.50 -0.45 0 -0.45 0.20 -0.80 0.50 -0.80 0.50 0 -0.15 1.80 -1.60 4.25 l-0.90 1.50 0.10 -1.35z"/>
  <path d="M30.60 117.25 c-0.30 -0.70 -0.40 -1.25 -0.15 -1.25 0.25 0 0.55 0.45 0.70 1.05 0.20 0.65 0.50 0.90 0.90 0.65 0.40 -0.20 0.50 -0.15 0.25 0.20 -0.55 0.90 -1.10 0.70 -1.70 -0.65z"/>
  <path d="M28.85 113.40 c-0.45 -1.15 -0.75 -2.20 -0.60 -2.30 0.15 -0.15 0.50 0.45 0.80 1.30 0.30 0.90 0.70 1.50 0.90 1.40 0.20 -0.15 0.35 0.20 0.35 0.75 0 1.55 -0.60 1.10 -1.45 -1.15z"/>
  <path d="M164.35 113.15 c-0.10 -0.20 0.25 -0.85 0.80 -1.40 l1 -1 -0.65 1.25 c-0.80 1.60 -0.85 1.65 -1.15 1.15z"/>
  <path d="M98.15 103.50 c0 -1.50 0.10 -2.15 0.20 -1.35 0.10 0.75 0.10 1.95 0 2.75 -0.10 0.75 -0.20 0.10 -0.20 -1.40z"/>
  <path d="M98.10 98.50 c0 -0.95 0.10 -1.35 0.25 -0.85 0.10 0.45 0.10 1.25 0 1.75 -0.15 0.45 -0.25 0.05 -0.25 -0.90z"/>
  <path d="M93.60 89.75 c-0.85 -1.85 -0.70 -2.25 0.20 -0.60 0.45 0.80 0.70 1.55 0.55 1.65 -0.10 0.10 -0.45 -0.35 -0.75 -1.05z"/>
  <path d="M169.15 89.25 c0 -1.10 0.10 -1.50 0.20 -0.85 0.10 0.60 0.10 1.50 0 2 -0.15 0.45 -0.25 -0.05 -0.20 -1.15z"/>
  <path d="M30.65 80.25 c0 -1.10 0.10 -1.50 0.20 -0.85 0.10 0.60 0.10 1.50 0 2 -0.15 0.45 -0.25 -0.05 -0.20 -1.15z"/>
  <path d="M150.35 79.20 c-1.05 -0.95 -2.15 -1.60 -2.45 -1.40 -0.30 0.20 -0.40 0.15 -0.20 -0.20 0.15 -0.30 0.10 -0.65 -0.20 -0.85 -0.25 -0.15 -0.50 -0.65 -0.50 -1 0 -0.60 0.20 -0.60 0.95 0.10 0.55 0.45 0.85 1.05 0.70 1.35 -0.20 0.30 0 0.25 0.45 -0.10 0.70 -0.55 0.95 -0.50 1.65 0.60 0.50 0.70 1.05 1.15 1.30 1 0.25 -0.15 0.30 0.15 0.10 0.60 -0.20 0.60 -0.15 0.75 0.25 0.50 0.40 -0.25 0.50 -0.10 0.30 0.40 -0.15 0.45 -0.35 0.80 -0.40 0.80 0 0 -0.90 -0.80 -1.95 -1.80z"/>
  <path d="M163.10 78 c0 -0.95 0.10 -1.35 0.25 -0.85 0.10 0.45 0.10 1.25 0 1.75 -0.15 0.45 -0.25 0.05 -0.25 -0.90z"/>
  <path d="M169.10 76 c0 -0.95 0.10 -1.35 0.25 -0.85 0.10 0.45 0.10 1.25 0 1.75 -0.15 0.45 -0.25 0.05 -0.25 -0.90z"/>
  <path d="M83 74 c-0.95 -0.55 -1.50 -0.95 -1.25 -0.95 0.30 0 1.30 0.40 2.25 0.95 0.95 0.55 1.55 0.95 1.25 0.95 -0.25 0 -1.30 -0.40 -2.25 -0.95z"/>
  <path d="M126.25 70.50 c-1.30 -0.30 -1.10 -0.40 1.15 -0.45 1.65 -0.05 2.55 0.15 2.35 0.45 -0.35 0.55 -1.30 0.55 -3.50 0z"/>
  <path d="M61.30 57.70 c-0.20 -0.70 -0.25 -1.45 -0.10 -1.55 0.15 -0.15 0.40 0.35 0.60 1.05 0.15 0.75 0.20 1.45 0.05 1.60 -0.10 0.15 -0.40 -0.35 -0.55 -1.10z"/>
  <path d="M61.35 51.80 c-0.20 -0.50 -0.25 -1.05 -0.10 -1.20 0.45 -0.45 0.85 0.30 0.65 1.25 -0.15 0.85 -0.20 0.85 -0.55 -0.05z"/>
  <path d="M66.15 49 c0 -1.50 0.10 -2.15 0.20 -1.35 0.10 0.75 0.10 1.95 0 2.75 -0.10 0.75 -0.20 0.10 -0.20 -1.40z"/>
  <path d="M62.90 45.20 c0.15 -1 0.40 -1.55 0.75 -1.35 0.30 0.20 0.40 0 0.20 -0.55 -0.20 -0.45 0.20 -1.95 0.90 -3.45 0.70 -1.40 1.15 -2.85 1.05 -3.20 -0.15 -0.35 -0.10 -0.60 0.10 -0.60 0.95 0.15 1.65 -0.10 1.40 -0.50 -0.15 -0.20 0.50 -1.30 1.50 -2.35 1.50 -1.65 1.60 -1.75 0.85 -0.45 -0.50 0.85 -1.10 1.65 -1.30 1.80 -0.25 0.20 -0.50 1.35 -0.55 2.60 0 1.25 -0.15 2.15 -0.25 2.05 -0.30 -0.25 -1.50 3.25 -1.60 4.55 -0.05 0.70 -0.20 0.50 -0.45 -0.50 l-0.40 -1.50 -0.05 1.65 c-0.05 1.05 -0.30 1.60 -0.80 1.60 -0.40 0 -0.75 0.30 -0.75 0.70 0 0.40 -0.20 0.85 -0.40 1 -0.20 0.10 -0.30 -0.55 -0.20 -1.50z"/>
 </g>
 <g fill="#dedede">
  <path d="M88 157.25 c-2.35 -0.35 -3.75 -0.65 -3.10 -0.70 0.60 0 1.10 -0.30 1.10 -0.60 0 -0.25 0.25 -0.35 0.55 -0.20 0.45 0.30 3.65 0.85 5.35 0.90 0.30 0 0.60 0.20 0.60 0.45 0 0.60 7.40 0.50 9.65 -0.15 1 -0.25 2.45 -0.60 3.25 -0.70 0.75 -0.10 1.80 -0.35 2.30 -0.55 0.70 -0.25 0.85 -0.20 0.60 0.20 -0.25 0.40 0.05 0.60 0.80 0.65 0.65 0.05 -0.85 0.35 -3.35 0.70 -5.55 0.80 -12.15 0.80 -17.75 0z"/>
  <path d="M110.30 156.05 c-0.30 -0.50 1.20 -1.25 1.60 -0.80 0.15 0.15 -0.05 0.25 -0.45 0.30 -0.40 0 -0.30 0.20 0.30 0.45 0.95 0.40 0.95 0.45 -0.10 0.45 -0.60 0.05 -1.20 -0.15 -1.35 -0.40z"/>
  <path d="M113.40 155.65 c0.30 -0.10 0.50 -0.40 0.35 -0.65 -0.10 -0.20 0.35 -0.35 1.10 -0.35 0.75 0 1.45 -0.25 1.55 -0.55 0.10 -0.40 0.35 -0.40 0.85 0.05 0.50 0.50 0.20 0.70 -1.45 1.20 -2 0.60 -3.70 0.85 -2.40 0.30z"/>
  <path d="M77.05 155.05 c-1.05 -0.30 -1.10 -0.40 -0.35 -1 0.50 -0.45 0.80 -0.50 0.80 -0.10 0 0.30 0.75 0.55 1.65 0.60 1.35 0 1.45 0.10 0.60 0.45 -1.15 0.50 -1.15 0.50 -2.70 0.05z"/>
  <path d="M73 153.75 l-1.75 -0.65 1.65 -0.05 c0.85 -0.05 1.60 0.15 1.60 0.45 0 0.25 0.35 0.30 0.85 0.15 0.55 -0.20 0.70 -0.15 0.45 0.25 -0.45 0.70 -0.55 0.70 -2.80 -0.15z"/>
  <path d="M68 151.85 c-0.70 -0.35 -1.30 -0.95 -1.40 -1.35 -0.10 -0.65 0 -0.60 0.50 0.05 0.35 0.45 1.05 0.75 1.50 0.65 0.50 -0.05 1 0.10 1.15 0.30 0.45 0.75 -0.45 0.90 -1.75 0.35z"/>
  <path d="M125.50 151.60 c0 -0.20 0.40 -0.60 0.90 -0.95 0.75 -0.45 0.95 -0.40 0.95 0.15 0 0.35 -0.20 0.55 -0.45 0.40 -0.20 -0.15 -0.40 0 -0.40 0.25 0 0.30 -0.20 0.55 -0.50 0.55 -0.25 0 -0.50 -0.15 -0.50 -0.40z"/>
  <path d="M64.15 150.20 c-0.90 -0.40 -1.65 -0.95 -1.65 -1.25 0 -0.25 -0.20 -0.35 -0.50 -0.20 -0.25 0.15 -0.50 0.10 -0.50 -0.15 0 -0.25 -0.30 -0.45 -0.65 -0.45 -0.85 0 -4.85 -2.65 -4.85 -3.25 0 -0.25 -0.25 -0.30 -0.55 -0.15 -0.30 0.20 -0.65 -0.15 -0.80 -0.75 -0.20 -0.70 -0.40 -0.90 -0.65 -0.50 -0.25 0.40 -0.50 0.40 -0.70 0.10 -0.15 -0.25 0.05 -0.65 0.45 -0.80 0.50 -0.20 0.95 0.10 1.25 0.85 0.25 0.65 0.45 0.80 0.50 0.35 0 -0.60 0.15 -0.55 0.55 0.15 0.25 0.45 0.95 0.85 1.45 0.85 0.60 0 0.85 0.25 0.70 0.65 -0.15 0.40 0.20 0.65 0.85 0.70 0.60 0.05 1.45 0.40 1.90 0.80 0.45 0.40 1.20 0.85 1.70 1 0.55 0.20 0.75 0.60 0.55 0.90 -0.25 0.40 0.05 0.50 0.95 0.35 0.95 -0.20 1.35 0 1.50 0.70 0.15 0.50 0.20 0.90 0.20 0.85 -0.05 0 -0.85 -0.35 -1.70 -0.75z"/>
  <path d="M128.35 150.05 c0.15 -0.65 0.55 -0.85 1.20 -0.70 1.10 0.30 1.10 0.30 -0.40 1.05 -0.90 0.50 -1 0.45 -0.80 -0.35z"/>
  <path d="M130.75 149 c-0.15 -0.30 0.10 -0.65 0.60 -0.85 0.50 -0.15 1.25 -0.60 1.65 -0.95 0.40 -0.35 1.45 -0.75 2.25 -0.90 1.35 -0.25 1.40 -0.20 0.60 0.45 -0.55 0.35 -1.30 0.55 -1.75 0.40 -0.50 -0.20 -0.65 -0.10 -0.40 0.25 0.20 0.35 -0.30 0.85 -1.15 1.35 -0.95 0.45 -1.60 0.55 -1.80 0.25z"/>
  <path d="M138.25 144.50 c-0.20 -0.30 -0.05 -0.45 0.30 -0.40 0.35 0.10 0.65 -0.15 0.70 -0.45 0 -0.70 0.40 -0.85 1.35 -0.55 0.30 0.10 -0.05 0.60 -0.75 1.05 -0.80 0.50 -1.40 0.65 -1.60 0.35z"/>
  <path d="M51.10 141.90 c-0.35 -0.35 -0.60 -0.95 -0.60 -1.35 0.05 -0.65 0.15 -0.65 0.55 0.10 0.30 0.45 0.70 0.75 1 0.60 0.25 -0.15 0.30 0.05 0.15 0.45 -0.35 0.95 -0.35 0.95 -1.10 0.20z"/>
  <path d="M141.30 141.75 c0.20 -0.40 0.55 -0.75 0.90 -0.75 0.30 0 0.85 -0.45 1.20 -1 0.35 -0.60 0.85 -0.90 1.05 -0.75 0.25 0.15 1.20 -0.45 2.10 -1.35 1.05 -1.10 1.40 -1.30 1.05 -0.55 -0.70 1.25 -3.20 3.40 -5.15 4.40 -1.25 0.70 -1.40 0.70 -1.15 0z"/>
  <path d="M47.95 139.20 c-1.05 -1.20 -1.10 -1.30 -0.15 -0.80 1.25 0.65 2.50 2.10 1.85 2.10 -0.25 0 -1 -0.60 -1.70 -1.30z"/>
  <path d="M46.20 137.60 c0.20 -0.35 0.15 -0.60 -0.15 -0.60 -0.25 0 -1.35 -0.95 -2.40 -2.05 -1.05 -1.15 -2.35 -2.50 -2.90 -3.05 -0.80 -0.75 -0.85 -0.90 -0.15 -0.65 0.45 0.20 1.20 0.90 1.65 1.55 0.40 0.65 1.10 1.20 1.50 1.20 0.40 0 0.75 0.25 0.75 0.50 0 0.30 0.55 1.10 1.25 1.75 0.95 0.80 1.10 1.25 0.70 1.55 -0.40 0.20 -0.45 0.15 -0.25 -0.20z"/>
  <path d="M148.90 135.75 c0.70 -1.25 4.05 -4.50 4.35 -4.20 0.10 0.15 -0.95 1.35 -2.35 2.70 -1.40 1.35 -2.30 2 -2 1.50z"/>
  <path d="M77.25 130.50 c-0.85 -0.30 -0.65 -0.55 1.50 -1.55 1.35 -0.65 2.85 -1.60 3.35 -2.05 0.50 -0.50 1.15 -0.90 1.40 -0.90 0.30 0 1.20 -0.75 2.05 -1.60 0.85 -0.90 1.40 -1.35 1.20 -1 -0.25 0.50 -0.05 0.50 0.95 0 1 -0.40 1.60 -0.40 2.60 0.05 1.15 0.50 1.20 0.70 0.65 1.40 -0.60 0.70 -0.60 0.80 0 0.40 0.45 -0.25 0.60 -0.20 0.40 0.10 -1.05 1.70 -12.30 5.80 -14.10 5.15z"/>
  <path d="M37.30 127.55 c-1 -1.35 -1.80 -2.60 -1.80 -2.85 0 -0.20 0.70 0.55 1.55 1.70 0.85 1.15 1.70 2 1.90 1.90 0.20 -0.15 0.35 0.20 0.35 0.75 0 0.50 -0.05 0.95 -0.10 0.95 -0.05 0 -0.90 -1.10 -1.90 -2.45z"/>
  <path d="M87.65 122.10 c0 -0.60 0.15 -0.95 0.30 -0.85 0.10 0.15 0.55 -0.05 1 -0.35 0.50 -0.40 0.40 -0.15 -0.20 0.60 -0.55 0.70 -1.05 1.35 -1.10 1.45 -0.05 0.10 -0.05 -0.30 0 -0.85z"/>
  <path d="M148.65 77.20 c0.15 -0.30 -0.15 -0.90 -0.70 -1.35 -0.50 -0.45 -0.95 -0.60 -0.95 -0.35 0 0.30 -0.85 -0.05 -1.90 -0.70 -3.05 -1.90 -6.65 -3.40 -7.65 -3.15 -0.55 0.15 -0.85 0.10 -0.70 -0.15 0.15 -0.20 -0.10 -0.65 -0.50 -1 -0.75 -0.60 -2.05 -3.10 -2.35 -4.40 -0.10 -0.40 0.40 -0.90 1.05 -1.15 1 -0.40 1.10 -0.35 0.60 0.25 -0.45 0.55 -0.40 0.75 0.20 1 0.50 0.20 0.70 0.10 0.45 -0.25 -0.35 -0.55 0.50 -0.10 5.30 3 3.50 2.25 4.20 2.85 6.35 5.45 1.40 1.75 1.65 2.30 1.15 2.75 -0.35 0.35 -0.50 0.35 -0.35 0.05z"/>
  <path d="M62.80 62.10 c-0.10 -0.20 -0.50 -1.90 -0.80 -3.80 -0.90 -5.10 0.55 -13.30 2.40 -13.30 0.35 0 0.65 -0.70 0.65 -1.60 l0.05 -1.65 0.40 1.50 c0.20 0.85 0.40 2.80 0.45 4.40 0 1.65 0.40 4.20 0.85 5.70 l0.80 2.80 -1.30 1.10 c-0.70 0.60 -1.30 1.45 -1.30 1.80 0 0.40 -0.45 1 -1.05 1.35 -0.60 0.40 -0.90 0.95 -0.75 1.40 0.30 0.75 0 0.95 -0.40 0.30z"/>
  <path d="M47 29.50 c0 -0.25 0.50 -0.75 1.15 -1.05 1.10 -0.60 1.10 -0.60 0.15 0.50 -1.05 1.15 -1.30 1.30 -1.30 0.55z"/>
 </g>
 <g fill="#d6d6d6">
  <path d="M92.50 157 c0 -0.30 2.10 -0.50 5.40 -0.45 3.45 0.05 4.90 0.20 4.10 0.45 -1.85 0.60 -9.50 0.60 -9.50 0z"/>
  <path d="M81 155.75 c-3 -0.85 -1 -0.90 2.50 0 1.90 0.45 2.30 0.65 1.25 0.65 -0.80 0 -2.50 -0.30 -3.75 -0.65z"/>
  <path d="M111.50 155.50 c0.40 -0.25 1.20 -0.50 1.75 -0.50 0.85 0 0.85 0.10 0.25 0.50 -0.40 0.25 -1.20 0.50 -1.75 0.50 -0.85 0 -0.85 -0.10 -0.25 -0.50z"/>
  <path d="M118 153.80 c0.70 -0.35 1.45 -0.55 1.70 -0.40 0.60 0.30 -0.75 1.10 -1.95 1.10 -0.85 0 -0.85 -0.10 0.25 -0.70z"/>
  <path d="M122 152.80 c0.70 -0.35 1.80 -0.80 2.50 -1 0.70 -0.15 0.35 0.15 -0.75 0.65 -2.25 1.10 -3.65 1.35 -1.75 0.35z"/>
  <path d="M135.50 146.35 c0 -0.10 0.95 -0.85 2.15 -1.60 1.15 -0.80 1.85 -1.10 1.50 -0.70 -0.60 0.75 -3.65 2.65 -3.65 2.30z"/>
  <path d="M90.95 124.85 c0.55 -0.70 0.50 -0.90 -0.65 -1.40 -1 -0.50 -1.60 -0.45 -2.65 0 l-1.40 0.65 1.15 -1.10 c1.65 -1.55 2.75 -3.40 2.35 -3.95 -0.15 -0.30 0 -0.40 0.40 -0.25 0.40 0.15 0.90 -0.30 1.25 -1.05 0.30 -0.70 0.80 -1.25 1.10 -1.25 0.25 0 0.45 -0.15 0.45 -0.35 -0.15 -1 0.10 -1.65 0.65 -1.50 0.30 0.05 0.65 -0.35 0.75 -0.90 0.15 -0.85 0.10 -0.90 -0.35 -0.25 -0.50 0.65 -0.55 0.65 -0.40 0 0.15 -0.50 0.90 -0.65 2.95 -0.55 1.50 0.05 2.95 0.35 3.25 0.60 0.30 0.25 0.70 0.30 0.85 0.10 0.20 -0.15 0.35 0.25 0.35 0.95 0 1.30 -1.75 3.60 -5.50 7.30 -2.35 2.25 -5.95 4.60 -4.55 2.95z"/>
  <path d="M95.80 103.90 c-0.15 -0.65 -0.05 -1.35 0.20 -1.60 0.35 -0.35 0.50 0.05 0.50 1.10 0 1.85 -0.25 2.05 -0.70 0.50z"/>
  <path d="M97.65 101.75 c0 -1.35 0.10 -1.90 0.20 -1.10 0.10 0.75 0.10 1.85 0 2.50 -0.10 0.60 -0.20 0 -0.20 -1.40z"/>
  <path d="M95.80 99.15 c-0.20 -0.45 -0.10 -1.05 0.20 -1.35 0.35 -0.35 0.50 -0.10 0.50 0.85 0 1.55 -0.25 1.70 -0.70 0.50z"/>
  <path d="M135 70.50 c-0.45 -0.25 -3.15 -0.40 -6.10 -0.35 -2.90 0.05 -5.20 -0.05 -5.05 -0.25 0.10 -0.25 -0.05 -0.40 -0.30 -0.40 -0.30 0 -0.55 -0.35 -0.55 -0.75 0 -0.40 -0.20 -0.75 -0.50 -0.75 -0.25 0 -0.50 -0.60 -0.50 -1.30 0 -0.80 -0.20 -1.15 -0.55 -0.90 -0.35 0.20 -0.05 -0.40 0.60 -1.30 1.15 -1.55 1.30 -1.60 3.70 -1.25 1.40 0.20 3.10 0.40 3.80 0.45 1.70 0.15 4.50 1.30 4.25 1.75 -0.25 0.40 1.20 3.60 2.15 4.75 0.75 0.85 0.25 1.05 -0.95 0.30z"/>
  <path d="M67.80 70 c-2.35 -0.25 -2.45 -0.30 -3.30 -2.65 -1.50 -3.90 -1.65 -6.25 -0.50 -6.95 0.55 -0.35 1 -0.95 1 -1.35 0 -0.35 0.50 -1.10 1.10 -1.65 l1.10 -0.95 1.20 2.40 c0.65 1.30 1.50 2.75 1.85 3.15 1.25 1.55 2.90 4.65 2.25 4.25 -0.50 -0.30 -0.60 -0.20 -0.35 0.45 0.20 0.50 0.05 0.95 -0.40 1.10 -0.40 0.20 -0.75 0.70 -0.75 1.20 0 1.25 -0.30 1.35 -3.20 1z"/>
  <path d="M167.40 65 c-0.15 -0.80 -0.05 -1.50 0.20 -1.50 0.20 0 0.40 0.70 0.40 1.50 0 0.85 -0.10 1.50 -0.20 1.50 -0.10 0 -0.30 -0.65 -0.40 -1.50z"/>
  <path d="M94.85 9.65 c0.90 -0.10 2.50 -0.10 3.50 0 1.05 0.10 0.35 0.20 -1.60 0.20 -1.90 0 -2.75 -0.10 -1.90 -0.20z"/>
 </g>
 <g fill="#cecece">
  <path d="M150 133.35 c0 -0.10 0.75 -0.80 1.65 -1.65 l1.60 -1.45 -1.45 1.65 c-1.40 1.50 -1.80 1.85 -1.80 1.45z"/>
  <path d="M93.75 114.20 c1.80 -4.25 2.90 -10.35 2.60 -14.65 -0.15 -2.35 -0.05 -3.40 0.25 -2.85 0.25 0.45 0.65 0.70 0.85 0.55 0.25 -0.10 0.40 1.50 0.35 3.65 -0.05 3.80 0.75 8.65 1.85 11.10 0.95 2.15 1 2.25 0.30 1.65 -0.95 -0.95 -5.45 -0.85 -5.45 0.05 0 0.40 -0.25 0.90 -0.60 1.10 -0.40 0.25 -0.45 0.10 -0.15 -0.60z"/>
  <path d="M23.70 83 c0.25 -2.25 0.80 -2.45 0.80 -0.35 0 1.05 -0.20 1.85 -0.50 1.85 -0.25 0 -0.40 -0.70 -0.30 -1.50z"/>
  <path d="M110.55 75.05 c-0.50 -0.30 -0.45 -0.50 0.15 -0.70 0.40 -0.15 0.90 -0.10 1.05 0.15 0.40 0.65 -0.45 1 -1.20 0.55z"/>
  <path d="M78.50 72.55 c0 -0.25 -0.60 -0.55 -1.35 -0.70 -3.80 -0.75 -6.45 -1.50 -6.90 -2 -0.35 -0.35 -0.30 -0.40 0.15 -0.15 0.40 0.25 0.60 0 0.60 -0.60 0 -0.55 0.35 -1.10 0.75 -1.30 0.45 -0.15 0.60 -0.60 0.40 -1.10 -0.25 -0.65 -0.15 -0.75 0.65 -0.30 0.50 0.30 1.30 0.95 1.75 1.45 0.45 0.50 1.65 1.65 2.65 2.55 1.60 1.50 2.25 2.60 1.55 2.60 -0.15 0 -0.25 -0.20 -0.25 -0.45z"/>
  <path d="M114.75 72.50 c-0.15 -0.30 0.05 -0.65 0.50 -0.80 0.45 -0.20 0.70 -0.65 0.55 -1 -0.15 -0.35 0 -0.55 0.35 -0.40 0.35 0.10 1.80 -0.95 3.25 -2.40 2.50 -2.50 2.60 -2.55 2.60 -1.25 0 0.75 0.25 1.35 0.50 1.35 0.30 0 0.50 0.35 0.50 0.75 0 0.40 0.25 0.75 0.60 0.75 0.40 0 0.45 0.15 0.10 0.50 -0.45 0.45 -3.50 1.25 -7.05 1.85 -0.90 0.15 -1.50 0.45 -1.35 0.70 0.15 0.25 0.15 0.45 0 0.45 -0.15 0 -0.40 -0.25 -0.55 -0.50z"/>
 </g>
 <g fill="#c5c5c5">
  <path d="M96.60 96.65 c-0.30 -0.55 -0.60 -1.60 -0.70 -2.45 -0.10 -0.80 -0.25 -1.55 -0.40 -1.70 -0.25 -0.25 -1.45 -3.35 -1.65 -4.25 -0.05 -0.25 -0.40 -0.80 -0.75 -1.15 -0.35 -0.40 -0.50 -0.85 -0.35 -1.10 0.15 -0.20 -0.10 -0.55 -0.55 -0.70 -0.45 -0.20 -0.70 -0.45 -0.55 -0.60 0.15 -0.20 -0.20 -0.75 -0.80 -1.30 -0.60 -0.55 -0.80 -0.80 -0.40 -0.60 0.50 0.25 0.60 0.15 0.35 -0.25 -0.25 -0.35 -0.70 -0.50 -1.10 -0.35 -0.40 0.15 -0.55 0 -0.40 -0.40 0.15 -0.35 -1.10 -1.90 -2.80 -3.45 -2.45 -2.30 -2.85 -2.85 -2 -2.85 0.60 0 1.50 0.20 2 0.50 0.50 0.25 3.10 0.80 5.85 1.20 4.35 0.70 5.40 0.65 9.40 0 6.45 -1.05 7.25 -1.25 7.25 -1.75 0 -0.25 0.35 -0.45 0.75 -0.45 0.40 0 0.75 0.10 0.75 0.25 0 0.15 -1.75 2 -3.85 4.10 -2.15 2.10 -3.55 3.65 -3.15 3.45 0.40 -0.20 0.20 0.10 -0.45 0.65 -0.65 0.60 -0.95 1.05 -0.75 1.05 0.25 0 0.05 0.25 -0.40 0.55 -0.50 0.25 -0.90 1 -0.90 1.60 0 0.65 -0.30 1.60 -0.70 2.15 -0.40 0.55 -1.15 2.60 -1.60 4.50 -1.05 4.05 -1.40 4.65 -2.10 3.35z"/>
  <path d="M80.65 73.85 c-0.90 -0.60 -1.65 -1.25 -1.65 -1.45 0 -0.45 3.40 1.50 3.80 2.15 0.45 0.75 -0.45 0.45 -2.15 -0.70z"/>
  <path d="M111.25 74.50 c0.55 -0.90 4.30 -2.55 5.15 -2.35 0.75 0.20 0.70 0.25 -0.05 0.30 -0.55 0 -1.55 0.45 -2.25 0.95 -1.70 1.15 -3.25 1.75 -2.85 1.10z"/>
 </g>
 <g fill="#bdbdbd">
  <path d="M96.15 149.15 c0.45 -0.10 1.25 -0.10 1.75 0 0.45 0.15 0.05 0.25 -0.90 0.25 -0.95 0 -1.35 -0.10 -0.85 -0.25z"/>
  <path d="M169.60 83 c0 -0.95 0.10 -1.35 0.25 -0.85 0.10 0.45 0.10 1.25 0 1.75 -0.15 0.45 -0.25 0.05 -0.25 -0.90z"/>
 </g>
 <g fill="#b5b5b5">
 </g>
 <g fill="#adadad">
  <path d="M92.70 156.05 c0.15 -0.25 0.75 -0.35 1.30 -0.20 1.40 0.35 1.25 0.65 -0.30 0.65 -0.70 0 -1.15 -0.20 -1 -0.45z"/>
 </g>
 <g fill="#a5a5a5">
  <path d="M95.90 156.15 c0.60 -0.10 1.60 -0.10 2.25 0 0.60 0.10 0.10 0.20 -1.15 0.20 -1.25 0 -1.75 -0.10 -1.10 -0.20z"/>
  <path d="M95.90 16.65 c0.60 -0.10 1.60 -0.10 2.25 0 0.60 0.10 0.10 0.20 -1.15 0.20 -1.25 0 -1.75 -0.10 -1.10 -0.20z"/>
 </g>
 <g fill="#9c9c9c">
 </g>
 <g fill="#949494">
  <path d="M96.15 76.65 c0.45 -0.10 1.25 -0.10 1.75 0 0.45 0.15 0.05 0.25 -0.90 0.25 -0.95 0 -1.35 -0.10 -0.85 -0.25z"/>
 </g>
 <g fill="#8c8c8c">
 </g>
 <g fill="#848484">
 </g>
 <g fill="#7b7b7b">
 </g>
 <g fill="#737373">
 </g>
 <g fill="#6b6b6b">
 </g>
 <g fill="#636363">
 </g>
 <g fill="#5a5a5a">
 </g>
 <g fill="#525252">
 </g>
 <g fill="#4a4a4a">
 </g>
 <g fill="#424242">
  <path d="M31.15 82.75 c0 -1.10 0.10 -1.50 0.20 -0.85 0.10 0.60 0.10 1.50 0 2 -0.15 0.45 -0.25 -0.05 -0.20 -1.15z"/>
 </g>
 <g fill="#3a3a3a">
 </g>
 <g fill="#313131">
  <path d="M89.75 147.70 c-6.50 -0.70 -15.85 -3.60 -22.60 -7 -2.90 -1.45 -5.50 -2.55 -5.75 -2.40 -0.25 0.15 -0.35 0.05 -0.30 -0.20 0.10 -0.25 -1.55 -1.80 -3.60 -3.45 -2.05 -1.65 -5.30 -4.60 -7.20 -6.55 -1.90 -1.95 -3.70 -3.40 -3.95 -3.25 -0.30 0.20 -0.35 0.05 -0.15 -0.30 0.50 -0.75 -1.15 -2.65 -1.85 -2.20 -0.30 0.15 -0.35 0.05 -0.15 -0.25 0.20 -0.30 -0.50 -1.85 -1.50 -3.45 -5.40 -8.45 -8.40 -16.60 -9.90 -26.80 -1 -6.80 -1 -10.90 0 -17.70 2.50 -17 9.40 -29.50 22.70 -41.15 1.60 -1.45 2.85 -2.85 2.65 -3.15 -0.15 -0.30 -0.05 -0.35 0.25 -0.15 0.30 0.20 2 -0.55 3.75 -1.70 11.90 -7.50 26.30 -10.85 40.80 -9.55 15.20 1.40 27.20 6.70 38.60 17.05 2.30 2.05 4.30 3.70 4.50 3.65 0.20 -0.05 0.65 0.25 1.05 0.75 0.60 0.75 0.55 0.80 -0.20 0.15 -1.55 -1.20 -0.95 -0.15 2.35 4.15 1.80 2.30 3.25 4.35 3.25 4.50 0 0.15 0.70 1.40 1.50 2.85 1.75 2.90 4.45 9.70 5.70 14.20 4.20 15.35 2.40 33 -4.75 46.90 -1.65 3.20 -4.55 7.85 -5.55 8.90 -0.35 0.40 -1.65 2 -2.85 3.60 -2.65 3.50 -9.05 9.25 -13.55 12.10 -6.55 4.25 -14.30 7.40 -23.25 9.55 -3.40 0.80 -15.70 1.35 -20 0.90z m15.25 -5.20 c0 -0.25 0.90 -0.50 2 -0.50 1.10 0 2 -0.20 2 -0.50 0 -0.25 1.10 -0.50 2.45 -0.50 1.40 0 2.65 -0.20 2.80 -0.50 0.15 -0.25 1.05 -0.50 1.90 -0.50 1.05 0 1.90 -0.35 2.35 -1 0.50 -0.70 1.30 -1 2.50 -1 1.20 0 2 -0.30 2.50 -1 0.40 -0.55 1.10 -1 1.60 -1 0.50 0 0.90 -0.20 0.90 -0.50 0 -0.25 0.40 -0.50 0.90 -0.50 0.50 0 1.20 -0.45 1.60 -1 0.40 -0.55 1.05 -1 1.50 -1 0.45 0 1.10 -0.45 1.50 -1 0.40 -0.55 1.05 -1 1.40 -1 0.40 0 1.35 -0.65 2.10 -1.50 0.75 -0.80 1.70 -1.50 2.10 -1.50 0.35 0 0.95 -0.65 1.30 -1.50 0.40 -0.90 1.05 -1.50 1.65 -1.50 0.55 0 0.95 -0.35 0.95 -0.80 0 -0.45 0.70 -1.45 1.50 -2.20 0.85 -0.75 1.50 -1.70 1.50 -2 0 -0.35 0.40 -1 0.90 -1.45 0.50 -0.45 1.05 -1.20 1.25 -1.65 0.15 -0.50 0.65 -0.90 1.10 -0.90 0.50 0 0.75 -0.50 0.75 -1.50 0 -0.80 0.25 -1.50 0.50 -1.50 0.30 0 0.50 -0.40 0.50 -0.90 0 -0.50 0.45 -1.20 1 -1.60 0.55 -0.40 1 -1.20 1 -1.75 0 -0.60 0.45 -1.55 1 -2.15 0.55 -0.60 1 -1.65 1 -2.35 0 -0.70 0.25 -1.25 0.50 -1.25 0.30 0 0.50 -1.10 0.50 -2.50 0 -1.35 0.20 -2.50 0.45 -2.50 0.25 0 0.55 -0.60 0.65 -1.35 0.10 -1 0.45 -1.40 1.15 -1.45 0.55 -0.05 1.30 -0.10 1.65 -0.15 0.95 -0.10 0.75 -4.50 -0.40 -8.05 -0.55 -1.75 -0.90 -3.65 -0.70 -4.20 0.15 -0.65 0.10 -0.80 -0.15 -0.45 -0.30 0.45 -0.60 0.35 -1.05 -0.35 -0.35 -0.60 -0.40 -1 -0.10 -1 0.30 0 0.50 -1.80 0.50 -4.50 0 -2.65 -0.20 -4.50 -0.50 -4.50 -0.25 0 -0.50 -0.65 -0.50 -1.50 0 -0.80 -0.20 -1.50 -0.50 -1.50 -0.25 0 -0.50 -0.90 -0.50 -1.95 0 -1.10 -0.20 -2.15 -0.50 -2.30 -0.25 -0.15 -0.50 -1.05 -0.50 -1.95 0 -1 -0.40 -2 -1 -2.55 -0.55 -0.50 -1 -1.35 -1 -1.85 0 -0.50 -0.45 -1.40 -1 -2 -0.55 -0.60 -1 -1.50 -1 -2.05 0 -0.50 -0.65 -1.60 -1.50 -2.35 -0.85 -0.75 -1.50 -1.65 -1.50 -1.95 0 -0.30 -0.65 -1.25 -1.50 -2.15 -0.80 -0.85 -1.50 -1.75 -1.50 -2 0 -0.55 -7.30 -7.90 -7.85 -7.90 -0.25 0 -1.35 -0.90 -2.55 -2 -1.15 -1.10 -2.40 -2 -2.80 -2 -0.40 0 -0.80 -0.15 -0.90 -0.35 -0.05 -0.25 -1.20 -0.95 -2.50 -1.60 -1.35 -0.65 -2.40 -1.40 -2.40 -1.65 0 -0.20 -0.65 -0.40 -1.40 -0.40 -0.80 0 -1.70 -0.40 -2.10 -1 -0.40 -0.60 -1.30 -1 -2.10 -1 -0.75 0 -1.40 -0.20 -1.40 -0.50 0 -0.25 -0.75 -0.50 -1.70 -0.50 -0.95 0 -1.90 -0.20 -2.05 -0.50 -0.15 -0.25 -1.20 -0.50 -2.30 -0.50 -1.05 0 -1.95 -0.20 -1.95 -0.50 0 -0.25 -1 -0.50 -2.20 -0.50 -1.25 0 -2.35 -0.20 -2.55 -0.45 -0.50 -0.85 -19.25 0.15 -19.25 1 0 0.25 -0.65 0.45 -1.45 0.45 -0.85 0 -1.65 0.25 -1.80 0.50 -0.15 0.30 -1.05 0.50 -2 0.50 -0.95 0 -1.85 0.25 -2 0.50 -0.20 0.30 -0.50 0.40 -0.75 0.25 -0.25 -0.15 -1.25 0.60 -2.25 1.60 -1.05 1.05 -1.55 1.45 -1.20 0.85 1.20 -1.80 3.65 -4.40 5.80 -6.10 2.35 -1.95 2.60 -3.10 0.60 -3.10 -0.25 0 -0.35 0.25 -0.15 0.60 0.20 0.35 0.15 0.40 -0.20 0.20 -1.35 -0.80 -9.65 6.15 -13.25 11.10 -1.30 1.70 -2.15 2.45 -2.75 2.30 -0.45 -0.15 -1.60 0.45 -2.60 1.30 -0.95 0.80 -2.05 1.50 -2.35 1.50 -0.35 0 -0.65 0.35 -0.65 0.80 0 0.45 -0.45 0.90 -1 1.05 -0.55 0.15 -1 0.65 -1 1.15 0 0.55 -0.65 1.20 -1.50 1.60 -0.85 0.35 -1.50 1.05 -1.50 1.50 0 0.55 -0.40 0.90 -1 0.90 -0.65 0 -1 0.35 -1 0.90 0 0.50 -0.45 1.20 -1 1.60 -0.55 0.40 -1 1.10 -1 1.60 0 0.50 -0.20 0.90 -0.50 0.90 -0.25 0 -0.50 0.35 -0.50 0.80 0 0.45 -0.45 0.90 -1 1.05 -0.55 0.15 -1 0.65 -1 1.15 0 1.10 -2.05 5 -2.60 5 -0.20 0 -0.40 0.70 -0.40 1.50 0 0.85 -0.20 1.50 -0.50 1.50 -0.25 0 -0.50 0.45 -0.50 1 0 0.55 -0.20 1 -0.50 1 -0.25 0 -0.50 0.55 -0.50 1.20 0 0.70 -0.20 1.40 -0.50 1.55 -0.25 0.15 -0.50 1.30 -0.50 2.50 0 1.20 -0.20 2.35 -0.50 2.50 -0.25 0.15 -0.50 0.95 -0.50 1.80 0 0.80 -0.20 1.45 -0.50 1.45 -0.30 0 -0.50 3.50 -0.50 9.50 0 6.40 0.15 9.50 0.55 9.50 0.30 0 0.40 0.40 0.25 0.90 -0.20 0.50 0.05 1.35 0.45 1.90 0.40 0.50 0.75 2 0.75 3.30 0 1.30 0.25 2.50 0.50 2.65 0.30 0.15 0.50 0.90 0.50 1.65 0 0.80 0.40 1.70 1 2.10 0.55 0.40 1 1.30 1 2 0 0.70 0.45 1.60 1 2 0.60 0.40 1 1.30 1 2.10 0 0.75 0.25 1.40 0.50 1.40 0.30 0 0.50 0.40 0.50 0.90 0 0.50 0.45 1.20 1 1.60 0.55 0.40 1 1.10 1 1.60 0 0.55 0.35 0.90 1 0.90 0.65 0 1 0.35 1 1 0 0.55 0.25 1 0.50 1 0.30 0 0.50 0.35 0.50 0.80 0 0.40 1.40 2.10 3.10 3.80 2.35 2.30 2.90 3.10 2.35 3.45 -0.40 0.25 -0.50 0.45 -0.25 0.45 0.25 0 0.20 0.30 -0.10 0.65 -0.65 0.80 2 2.25 6.90 3.80 1.80 0.55 3.05 1.05 2.75 1.05 -0.75 0.05 3.30 2 4.25 2 0.40 0 1.10 0.45 1.50 1 0.40 0.55 1.30 1 2 1 0.70 0 1.60 0.45 2 1 0.50 0.70 1.30 1 2.60 1 1.05 0 1.90 0.25 1.90 0.50 0 0.30 0.75 0.50 1.70 0.50 0.95 0 1.90 0.25 2.05 0.50 0.15 0.30 1.40 0.50 2.75 0.50 1.35 0 2.60 0.25 2.75 0.50 0.20 0.30 3.40 0.50 8.05 0.50 4.80 0 7.70 -0.20 7.70 -0.50z"/>
  <path d="M162.65 83.25 c0 -1.10 0.10 -1.50 0.20 -0.85 0.10 0.60 0.10 1.50 0 2 -0.15 0.45 -0.25 -0.05 -0.20 -1.15z"/>
 </g>
 <g fill="#292929">
  <path d="M95.75 148.50 c-0.75 -0.30 -0.35 -0.45 1.45 -0.45 1.35 -0.05 2.35 0.05 2.25 0.15 -0.55 0.45 -2.80 0.65 -3.70 0.30z"/>
  <path d="M89 147.95 c0 -0.25 0.55 -0.45 1.25 -0.45 0.70 0 1.25 0.10 1.25 0.20 0 0.10 -0.55 0.30 -1.25 0.40 -0.70 0.15 -1.25 0.05 -1.25 -0.15z"/>
  <path d="M89.25 142.50 c-0.15 -0.25 -1.40 -0.50 -2.75 -0.50 -1.35 0 -2.60 -0.20 -2.75 -0.50 -0.15 -0.25 -1.10 -0.50 -2.05 -0.50 -0.95 0 -1.70 -0.20 -1.70 -0.50 0 -0.25 -0.85 -0.50 -1.90 -0.50 -1.30 0 -2.10 -0.30 -2.60 -1 -0.40 -0.55 -1.30 -1 -2 -1 -0.70 0 -1.60 -0.45 -2 -1 -0.40 -0.55 -1.10 -1 -1.50 -1 -1.20 0 -4.60 -1.75 -4.20 -2.15 0.20 -0.20 2.85 -0.35 5.90 -0.35 5.45 0 11.10 -1.05 13.90 -2.55 0.80 -0.45 1.15 -0.45 1.30 0 0.10 0.30 0.40 0.45 0.65 0.25 0.25 -0.15 0.45 0 0.45 0.25 0 0.30 0.90 0.55 1.95 0.55 1.10 0 2.15 0.25 2.30 0.50 0.15 0.30 2.50 0.50 5.25 0.50 2.75 0 5.10 -0.20 5.25 -0.50 0.15 -0.25 1.20 -0.50 2.30 -0.50 1.05 0 1.95 -0.20 1.95 -0.50 0 -0.25 0.90 -0.50 1.95 -0.50 1.10 0 2.15 -0.20 2.30 -0.50 0.15 -0.25 0.85 -0.50 1.55 -0.50 0.65 0 1.20 -0.20 1.20 -0.50 0 -0.25 0.45 -0.50 0.95 -0.50 0.55 0 1.15 -0.20 1.30 -0.50 0.15 -0.25 0.85 -0.50 1.55 -0.50 0.65 0 1.20 -0.20 1.20 -0.50 0 -0.25 0.45 -0.50 1 -0.50 0.55 0 1 -0.20 1 -0.50 0 -0.25 0.45 -0.50 1 -0.50 0.55 0 1 -0.20 1 -0.40 0 -0.25 0.60 -0.75 1.35 -1.15 0.75 -0.40 2.25 -1.55 3.30 -2.55 1.10 -1.05 2.30 -1.90 2.65 -1.90 0.40 0 0.70 -0.35 0.70 -0.80 0 -0.45 0.45 -0.90 1 -1.05 0.55 -0.15 1 -0.55 1 -0.95 0 -0.35 0.70 -1.15 1.50 -1.80 0.85 -0.60 1.50 -1.40 1.50 -1.75 0 -0.35 0.25 -0.65 0.50 -0.65 0.30 0 0.50 -0.30 0.50 -0.70 0 -0.35 0.35 -0.95 0.75 -1.30 0.40 -0.35 1.30 -1.80 2.05 -3.30 0.70 -1.50 1.50 -2.70 1.75 -2.70 0.25 0 0.45 -0.45 0.45 -1 0 -0.55 0.25 -1 0.50 -1 0.30 0 0.50 -0.55 0.50 -1.20 0 -0.70 0.25 -1.40 0.50 -1.55 0.30 -0.15 0.50 -1.30 0.50 -2.50 0 -1.20 0.25 -2.35 0.50 -2.50 0.30 -0.15 0.50 -0.80 0.50 -1.45 0 -0.60 0.20 -1.30 0.45 -1.55 0.30 -0.30 0.55 -3.50 0.60 -7.10 0.05 -3.65 0.25 -6.65 0.50 -6.65 0.65 0 5.45 5.15 5.45 5.85 0 0.35 0.25 0.65 0.50 0.65 0.30 0 0.50 0.45 0.50 1.05 0 0.55 0.25 0.85 0.50 0.70 0.30 -0.15 0.50 -0.05 0.50 0.25 0 0.30 0.20 0.45 0.40 0.30 0.20 -0.15 0.35 0.40 0.30 1.20 -0.05 0.85 0.20 1.55 0.60 1.70 0.40 0.15 0.70 0.80 0.70 1.45 0 0.65 0.35 1.60 0.75 2.15 1 1.35 0.95 1.70 -0.35 1.55 -0.90 -0.10 -1.20 0.20 -1.30 1.30 -0.10 0.75 -0.40 1.35 -0.65 1.35 -0.25 0 -0.45 1.15 -0.45 2.50 0 1.40 -0.20 2.50 -0.50 2.50 -0.25 0 -0.50 0.55 -0.50 1.25 0 0.70 -0.45 1.75 -1 2.35 -0.55 0.60 -1 1.55 -1 2.15 0 0.55 -0.45 1.35 -1 1.75 -0.55 0.40 -1 1.10 -1 1.60 0 0.50 -0.20 0.90 -0.50 0.90 -0.25 0 -0.50 0.70 -0.50 1.50 0 1 -0.25 1.50 -0.75 1.50 -0.45 0 -0.95 0.40 -1.10 0.90 -0.20 0.45 -0.75 1.20 -1.25 1.65 -0.50 0.45 -0.90 1.10 -0.90 1.45 0 0.30 -0.65 1.25 -1.50 2 -0.80 0.75 -1.50 1.75 -1.50 2.20 0 0.45 -0.40 0.80 -0.95 0.80 -0.60 0 -1.25 0.60 -1.65 1.50 -0.35 0.85 -0.95 1.50 -1.30 1.50 -0.40 0 -1.35 0.70 -2.10 1.50 -0.75 0.85 -1.70 1.50 -2.10 1.50 -0.35 0 -1 0.45 -1.40 1 -0.40 0.55 -1.05 1 -1.50 1 -0.45 0 -1.10 0.45 -1.50 1 -0.40 0.55 -1.10 1 -1.60 1 -0.50 0 -0.90 0.25 -0.90 0.50 0 0.30 -0.40 0.50 -0.90 0.50 -0.50 0 -1.20 0.45 -1.60 1 -0.50 0.70 -1.30 1 -2.50 1 -1.20 0 -2 0.30 -2.50 1 -0.45 0.65 -1.30 1 -2.35 1 -0.85 0 -1.75 0.25 -1.90 0.50 -0.15 0.30 -1.40 0.50 -2.80 0.50 -1.35 0 -2.45 0.25 -2.45 0.50 0 0.30 -0.90 0.50 -2 0.50 -1.10 0 -2 0.25 -2 0.50 0 0.30 -2.90 0.50 -7.70 0.50 -4.65 0 -7.85 -0.20 -8.05 -0.50z"/>
  <path d="M52.30 130.65 c-0.20 -0.25 -0.60 -0.40 -0.85 -0.40 -0.25 0 -0.40 -0.15 -0.30 -0.30 0.15 -0.55 -1.75 -2.45 -2.20 -2.20 -0.20 0.15 -0.50 0.05 -0.65 -0.20 -0.20 -0.25 -0.10 -0.60 0.10 -0.75 0.25 -0.15 1.40 0.75 2.60 1.95 1.20 1.25 2.10 2.25 1.95 2.25 -0.15 0 -0.45 -0.15 -0.65 -0.35z"/>
  <path d="M60.50 129.30 c-0.15 -0.15 -1.20 -0.35 -2.25 -0.50 -1.10 -0.10 -2.10 -0.25 -2.25 -0.25 -0.15 -0.05 0.05 -0.25 0.45 -0.50 0.55 -0.35 0 -1.15 -2.35 -3.45 -1.70 -1.70 -3.10 -3.40 -3.10 -3.80 0 -0.45 -0.20 -0.80 -0.50 -0.80 -0.25 0 -0.50 -0.45 -0.50 -1 0 -0.65 -0.35 -1 -1 -1 -0.65 0 -1 -0.35 -1 -0.90 0 -0.50 -0.45 -1.20 -1 -1.60 -0.55 -0.40 -1 -1.10 -1 -1.60 0 -0.50 -0.20 -0.90 -0.50 -0.90 -0.25 0 -0.50 -0.65 -0.50 -1.40 0 -0.80 -0.40 -1.70 -1 -2.10 -0.55 -0.40 -1 -1.30 -1 -2 0 -0.70 -0.45 -1.60 -1 -2 -0.60 -0.40 -1 -1.30 -1 -2.10 0 -0.75 -0.25 -1.50 -0.50 -1.65 -0.30 -0.15 -0.50 -1.35 -0.50 -2.65 0 -1.30 -0.35 -2.80 -0.75 -3.30 -0.40 -0.55 -0.65 -1.40 -0.45 -1.90 0.15 -0.50 0.05 -0.90 -0.25 -0.90 -0.40 0 -0.55 -3.10 -0.55 -9.50 0 -6 0.20 -9.50 0.50 -9.50 0.30 0 0.50 -0.65 0.50 -1.45 0 -0.85 0.25 -1.65 0.50 -1.80 0.30 -0.15 0.50 -1.30 0.50 -2.50 0 -1.20 0.25 -2.35 0.50 -2.50 0.30 -0.15 0.50 -0.85 0.50 -1.55 0 -0.65 0.25 -1.20 0.50 -1.20 0.30 0 0.50 -0.45 0.50 -1 0 -0.55 0.25 -1 0.50 -1 0.30 0 0.50 -0.65 0.50 -1.50 0 -0.80 0.20 -1.50 0.40 -1.50 0.55 0 2.60 -3.90 2.60 -5 0 -0.50 0.45 -1 1 -1.15 0.55 -0.15 1 -0.60 1 -1.05 0 -0.45 0.25 -0.80 0.50 -0.80 0.30 0 0.50 -0.40 0.50 -0.90 0 -0.50 0.45 -1.20 1 -1.60 0.55 -0.40 1 -1.10 1 -1.60 0 -0.55 0.35 -0.90 1 -0.90 0.60 0 1 -0.35 1 -0.90 0 -0.45 0.65 -1.15 1.50 -1.50 0.90 -0.40 1.50 -1.05 1.50 -1.65 0 -0.55 0.35 -0.95 0.80 -0.95 0.45 0 0.90 -0.45 1.05 -1 0.15 -0.55 0.50 -1 0.85 -1 0.30 0 1.35 -0.70 2.30 -1.50 0.95 -0.85 2.10 -1.45 2.50 -1.40 0.40 0.05 1.10 -0.10 1.50 -0.35 0.65 -0.40 0.65 -0.35 0 0.55 -0.40 0.50 -0.90 1.05 -1.10 1.20 -0.65 0.50 -2.95 7.30 -3.65 11 -0.40 2.05 -0.80 5.10 -0.85 6.75 -0.05 2.50 -0.10 2.65 -0.25 0.85 -0.20 -1.95 -1.15 -3.10 -1.15 -1.35 0 0.45 -0.40 1.25 -0.90 1.75 -1.15 1.25 -3.10 4.90 -3.10 5.80 0 0.40 -0.15 0.70 -0.35 0.70 -0.45 0 -1.65 2.45 -1.65 3.35 0 0.35 -0.20 0.65 -0.50 0.65 -0.25 0 -0.50 0.70 -0.50 1.50 0 0.85 -0.20 1.50 -0.50 1.50 -0.25 0 -0.50 1.15 -0.50 2.50 0 1.40 -0.20 2.50 -0.50 2.50 -0.25 0 -0.50 0.90 -0.50 2 0 1.10 -0.20 2 -0.50 2 -0.30 0 -0.50 2.15 -0.50 5.50 0 3.35 0.20 5.50 0.50 5.50 0.30 0 0.50 1.15 0.50 2.50 0 1.40 0.25 2.50 0.50 2.50 0.30 0 0.50 1 0.50 2.20 0 1.25 0.25 2.40 0.50 2.55 0.30 0.15 0.50 0.90 0.50 1.65 0 0.80 0.40 1.70 1 2.10 0.55 0.40 1 1.30 1 2 0 0.70 0.45 1.60 1 2 0.55 0.40 1 1 1 1.35 0 0.80 0.95 2.50 2.15 3.85 0.45 0.55 0.85 1.15 0.85 1.40 0 0.65 9.40 9.90 10.05 9.90 0.30 0 0.95 0.40 1.40 0.90 1.10 1.20 2.85 2.10 4 2.10 0.50 0 1.20 0.35 1.55 0.75 1.10 1.30 -2.55 2.40 -8.75 2.65 -3.05 0.10 -5.60 0.05 -5.75 -0.10z"/>
  <path d="M160.50 96.25 c0 -0.70 0.10 -1.25 0.20 -1.25 0.10 0 0.30 0.55 0.40 1.25 0.15 0.70 0.05 1.25 -0.15 1.25 -0.25 0 -0.45 -0.55 -0.45 -1.25z"/>
  <path d="M157.85 91.35 c-0.15 -0.40 -0.05 -1 0.20 -1.40 0.30 -0.50 0.45 -0.35 0.45 0.70 0 1.45 -0.25 1.75 -0.65 0.70z"/>
  <path d="M154.30 79.75 c-0.45 -0.70 -0.70 -1.25 -0.60 -1.25 0.75 0 -8.95 -10.10 -11.20 -11.70 -0.75 -0.50 -0.90 -0.75 -0.35 -0.60 0.55 0.15 0.85 0 0.85 -0.45 0 -0.40 -0.20 -0.75 -0.50 -0.75 -0.25 0 -0.50 -0.45 -0.50 -1 0 -0.55 -0.20 -1 -0.50 -1 -0.25 0 -0.50 -0.60 -0.50 -1.30 0 -0.75 -0.40 -1.70 -0.85 -2.15 -1.15 -1.05 -2.15 -2.85 -2.15 -3.80 0 -0.40 -0.45 -0.75 -1 -0.75 -0.65 0 -1 -0.35 -1 -0.90 0 -0.50 -0.45 -1.20 -1 -1.60 -0.55 -0.40 -1 -1.10 -1 -1.60 0 -0.50 -0.35 -0.90 -0.75 -0.90 -0.40 0 -1.65 -1.05 -2.85 -2.30 -1.20 -1.25 -2.65 -2.50 -3.25 -2.70 -0.65 -0.25 -1.15 -0.80 -1.15 -1.25 0 -0.40 -0.45 -0.75 -1 -0.75 -0.55 0 -1 -0.20 -1 -0.50 0 -0.25 -0.40 -0.50 -0.90 -0.50 -0.50 0 -1.20 -0.45 -1.60 -1 -0.40 -0.55 -1.20 -1 -1.75 -1 -0.60 0 -1.55 -0.45 -2.15 -1 -0.60 -0.55 -1.50 -1 -2.05 -1 -0.55 0 -1.15 -0.20 -1.30 -0.50 -0.15 -0.25 -1.20 -0.50 -2.30 -0.50 -1.05 0 -1.95 -0.20 -1.95 -0.50 0 -0.25 -0.65 -0.50 -1.45 -0.50 -0.85 0 -1.65 -0.20 -1.80 -0.50 -0.40 -0.70 -18.75 -0.70 -18.75 0 0 0.30 -0.65 0.50 -1.45 0.50 -0.85 0 -1.65 0.25 -1.80 0.50 -0.15 0.30 -1 0.50 -1.85 0.50 -1.80 0 -4.90 1 -4.90 1.60 0 0.20 -0.45 0.40 -1 0.40 -0.55 0 -1 0.25 -1 0.50 0 0.30 -0.35 0.50 -0.75 0.50 -0.45 0 -1.25 0.45 -1.85 1 -0.60 0.55 -1.45 1 -1.90 1 -0.40 0 -1.30 0.35 -1.90 0.80 -0.70 0.50 -1.10 0.55 -1.10 0.20 0 -1 1.70 -7.25 2.05 -7.50 0.15 -0.15 0.45 -0.75 0.65 -1.40 0.20 -0.60 0.60 -1.10 0.85 -1.10 0.30 0 0.35 -0.20 0.20 -0.50 -0.15 -0.25 0.15 -0.85 0.70 -1.35 0.55 -0.45 0.85 -1.05 0.70 -1.30 -0.15 -0.30 -0.05 -0.35 0.25 -0.15 0.30 0.15 0.85 -0.15 1.25 -0.75 0.40 -0.55 1.10 -1.10 1.55 -1.15 0.40 -0.05 0.95 -0.25 1.10 -0.45 0.20 -0.20 1.10 -0.35 2 -0.35 0.90 0 1.80 -0.20 1.95 -0.50 0.15 -0.25 0.95 -0.50 1.80 -0.50 0.80 0 1.45 -0.20 1.45 -0.45 0 -0.85 18.75 -1.85 19.25 -1 0.20 0.25 1.30 0.45 2.55 0.45 1.20 0 2.20 0.25 2.20 0.50 0 0.30 0.90 0.50 1.95 0.50 1.10 0 2.15 0.25 2.30 0.50 0.15 0.30 1.10 0.50 2.05 0.50 0.95 0 1.70 0.25 1.70 0.50 0 0.30 0.65 0.50 1.40 0.50 0.80 0 1.70 0.40 2.10 1 0.40 0.60 1.30 1 2.10 1 0.75 0 1.40 0.20 1.40 0.40 0 0.25 1.05 1 2.40 1.65 1.30 0.65 2.45 1.35 2.50 1.60 0.10 0.20 0.50 0.35 0.90 0.35 0.40 0 1.65 0.90 2.80 2 1.20 1.10 2.30 2 2.55 2 0.55 0 7.85 7.35 7.85 7.90 0 0.25 0.70 1.15 1.50 2 0.85 0.90 1.50 1.85 1.50 2.15 0 0.30 0.70 1.20 1.50 1.95 0.85 0.75 1.50 1.85 1.50 2.35 0 0.55 0.45 1.45 1 2.05 0.55 0.60 1 1.50 1 2 0 0.50 0.45 1.35 1 1.85 0.60 0.55 1 1.55 1 2.55 0 0.90 0.25 1.80 0.50 1.95 0.30 0.15 0.50 1.20 0.50 2.30 0 1.05 0.25 1.95 0.50 1.95 0.30 0 0.50 0.70 0.50 1.50 0 0.85 0.25 1.50 0.50 1.50 0.30 0 0.50 1.85 0.50 4.50 0 2.50 -0.20 4.50 -0.45 4.50 -0.25 0 -0.80 -0.55 -1.25 -1.25z"/>
  <path d="M48.25 39 c-0.15 -0.25 -0.25 -0.50 -0.15 -0.55 1.65 -0.40 1.90 -0.35 1.35 0.35 -0.70 0.85 -0.80 0.85 -1.20 0.20z"/>
  <path d="M50.70 36.40 c-0.20 -0.35 -0.15 -0.50 0.05 -0.25 0.25 0.20 1.25 -0.35 2.20 -1.25 l1.80 -1.65 -1.70 1.90 c-2 2.10 -1.85 2.05 -2.35 1.25z"/>
  <path d="M85.75 18.50 c0.15 -0.25 0.60 -0.50 1 -0.50 0.40 0 0.85 0.25 1 0.50 0.20 0.30 -0.25 0.50 -1 0.50 -0.75 0 -1.20 -0.20 -1 -0.50z"/>
  <path d="M106.90 18.40 c0.45 -0.45 0.75 -0.45 1.20 0 0.45 0.45 0.35 0.60 -0.60 0.60 -0.95 0 -1.05 -0.15 -0.60 -0.60z"/>
  <path d="M90.90 18.15 c0.60 -0.10 1.50 -0.10 2 0 0.45 0.15 -0.05 0.25 -1.15 0.20 -1.10 0 -1.50 -0.10 -0.85 -0.20z"/>
  <path d="M101.40 18.15 c0.60 -0.10 1.50 -0.10 2 0 0.45 0.15 -0.05 0.25 -1.15 0.20 -1.10 0 -1.50 -0.10 -0.85 -0.20z"/>
 </g>
 <g fill="#212121">
  <path d="M92.65 148.15 c0.45 -0.10 1.25 -0.10 1.75 0 0.45 0.15 0.05 0.25 -0.90 0.25 -0.95 0 -1.35 -0.10 -0.85 -0.25z"/>
  <path d="M92.25 132.50 c-0.15 -0.25 -1.20 -0.50 -2.30 -0.50 -1.05 0 -1.95 -0.25 -1.95 -0.55 0 -0.25 -0.20 -0.40 -0.40 -0.25 -0.20 0.10 -0.65 -0.20 -1 -0.70 -0.45 -0.80 -0.45 -0.90 0.10 -0.70 1.40 0.55 6.25 -2.55 10.45 -6.65 1.60 -1.55 2.75 -2.45 2.55 -2 -0.25 0.70 0.05 0.85 2 0.85 1.25 0 2.30 -0.20 2.30 -0.50 0 -0.25 1.10 -0.50 2.45 -0.50 1.40 0 2.65 -0.20 2.80 -0.50 0.15 -0.25 0.95 -0.50 1.75 -0.50 0.95 0 1.65 -0.35 2 -1 0.30 -0.55 1 -1 1.50 -1 1.10 0 2.70 -0.80 4.20 -2.10 0.55 -0.50 1.30 -0.90 1.65 -0.90 0.35 0 0.65 -0.35 0.65 -0.75 0 -0.45 0.40 -0.90 0.90 -1.10 1.15 -0.40 5.65 -5.05 6.55 -6.80 0.40 -0.75 0.90 -1.35 1.15 -1.35 0.20 0 0.40 -0.45 0.40 -1 0 -0.55 0.25 -1 0.50 -1 0.30 0 0.50 -0.30 0.50 -0.65 0 -0.35 0.45 -1.15 1 -1.75 0.55 -0.60 1 -1.50 1 -2.05 0 -0.55 0.25 -1.15 0.50 -1.30 0.30 -0.15 0.50 -0.95 0.50 -1.80 0 -0.80 0.25 -1.45 0.50 -1.45 0.30 0 0.50 -0.65 0.50 -1.45 0 -0.85 0.25 -1.65 0.50 -1.80 0.30 -0.20 0.50 -3.10 0.50 -7.05 0 -4.15 -0.20 -6.70 -0.50 -6.70 -0.25 0 -0.50 -0.80 -0.50 -1.75 0 -1.60 -0.15 -1.80 -1.50 -2.10 -0.85 -0.15 -1.45 -0.40 -1.30 -0.50 0.35 -0.40 5.30 0.85 7.55 1.85 1.10 0.45 2.20 0.85 2.40 0.90 0.25 0 1.15 0.65 1.95 1.45 0.85 0.75 1.40 1.15 1.20 0.80 -0.15 -0.30 -0.10 -0.75 0.20 -0.90 0.30 -0.20 0.50 -0.15 0.45 0.10 -0.05 0.20 0 0.65 0.05 0.90 0.30 1.45 -0.15 14.05 -0.55 14.50 -0.25 0.25 -0.45 0.95 -0.45 1.55 0 0.65 -0.20 1.30 -0.50 1.45 -0.25 0.15 -0.50 1.30 -0.50 2.50 0 1.20 -0.20 2.35 -0.50 2.50 -0.25 0.15 -0.50 0.85 -0.50 1.55 0 0.65 -0.20 1.20 -0.50 1.20 -0.25 0 -0.50 0.45 -0.50 1 0 0.55 -0.20 1 -0.45 1 -0.25 0 -1.05 1.20 -1.75 2.70 -0.75 1.50 -1.65 2.95 -2.05 3.30 -0.40 0.35 -0.75 0.95 -0.75 1.30 0 0.40 -0.20 0.70 -0.50 0.70 -0.25 0 -0.50 0.30 -0.50 0.65 0 0.35 -0.65 1.15 -1.50 1.75 -0.80 0.65 -1.50 1.45 -1.50 1.80 0 0.40 -0.45 0.80 -1 0.95 -0.55 0.15 -1 0.60 -1 1.05 0 0.45 -0.30 0.80 -0.70 0.80 -0.35 0 -1.55 0.85 -2.65 1.90 -1.05 1 -2.55 2.15 -3.30 2.55 -0.75 0.40 -1.35 0.90 -1.35 1.15 0 0.20 -0.45 0.40 -1 0.40 -0.55 0 -1 0.25 -1 0.50 0 0.30 -0.45 0.50 -1 0.50 -0.55 0 -1 0.25 -1 0.50 0 0.30 -0.55 0.50 -1.20 0.50 -0.70 0 -1.40 0.25 -1.55 0.50 -0.15 0.30 -0.75 0.50 -1.30 0.50 -0.50 0 -0.95 0.25 -0.95 0.50 0 0.30 -0.55 0.50 -1.20 0.50 -0.70 0 -1.40 0.25 -1.55 0.50 -0.15 0.30 -1.20 0.50 -2.30 0.50 -1.05 0 -1.95 0.25 -1.95 0.50 0 0.30 -0.90 0.50 -1.95 0.50 -1.10 0 -2.15 0.25 -2.30 0.50 -0.15 0.30 -2.50 0.50 -5.25 0.50 -2.75 0 -5.10 -0.20 -5.25 -0.50z"/>
  <path d="M75.15 127.65 c0.55 -0.50 -0.65 -1.65 -1.70 -1.65 -1.15 0 -2.90 -0.90 -4 -2.10 -0.45 -0.50 -1.10 -0.90 -1.40 -0.90 -0.65 0 -10.05 -9.25 -10.05 -9.90 0 -0.25 -0.40 -0.85 -0.85 -1.40 -1.20 -1.35 -2.15 -3.05 -2.15 -3.85 0 -0.35 -0.45 -0.95 -1 -1.35 -0.55 -0.40 -1 -1.30 -1 -2 0 -0.70 -0.45 -1.60 -1 -2 -0.60 -0.40 -1 -1.30 -1 -2.10 0 -0.75 -0.20 -1.50 -0.50 -1.65 -0.30 -0.15 -0.50 -1.30 -0.50 -2.55 0 -1.20 -0.20 -2.20 -0.50 -2.20 -0.25 0 -0.50 -1.10 -0.50 -2.50 0 -1.35 -0.20 -2.50 -0.50 -2.50 -0.30 0 -0.50 -2.15 -0.50 -5.50 0 -3.35 0.20 -5.50 0.50 -5.50 0.30 0 0.50 -0.90 0.50 -2 0 -1.10 0.25 -2 0.50 -2 0.30 0 0.50 -1.10 0.50 -2.50 0 -1.35 0.25 -2.50 0.50 -2.50 0.30 0 0.50 -0.65 0.50 -1.50 0 -0.80 0.25 -1.50 0.50 -1.50 0.30 0 0.50 -0.30 0.50 -0.65 0 -0.90 1.20 -3.35 1.65 -3.35 0.20 0 0.35 -0.30 0.35 -0.70 0 -0.90 1.95 -4.55 3.10 -5.80 0.50 -0.50 0.90 -1.30 0.90 -1.75 0 -0.40 0.25 -0.75 0.50 -0.75 0.30 0 0.50 0.90 0.50 2 0 1.10 0.20 2 0.45 2 0.25 0 0.60 1.50 0.80 3.35 0.20 1.90 0.70 4.30 1.15 5.35 0.60 1.45 0.65 2.05 0.20 2.20 -0.35 0.10 -0.60 0.95 -0.60 1.85 0 0.95 -0.20 1.85 -0.50 2 -0.25 0.15 -0.50 0.95 -0.50 1.80 0 0.80 -0.20 1.45 -0.50 1.45 -0.30 0 -0.50 1.40 -0.50 3.25 0 1.80 -0.30 3.70 -0.60 4.25 -0.50 0.80 -0.50 1.20 0 2 0.30 0.55 0.60 2.25 0.60 3.75 0 1.50 0.25 2.75 0.50 2.75 0.30 0 0.50 1.15 0.50 2.50 0 1.40 0.25 2.50 0.50 2.50 0.30 0 0.50 0.65 0.50 1.40 0 0.80 0.40 1.70 1 2.10 0.55 0.40 1 1.30 1 2 0 0.70 0.45 1.60 1 2 0.55 0.40 1 1 1 1.35 0 0.35 0.70 1.35 1.50 2.25 0.85 0.85 1.50 1.80 1.50 2.10 0 0.30 0.50 0.80 1.15 1.05 0.60 0.30 1.30 1 1.60 1.65 0.25 0.60 0.75 1.10 1 1.10 0.30 0 1 0.40 1.55 0.90 0.50 0.50 1.80 1.30 2.85 1.75 1 0.50 1.85 1.20 1.85 1.60 0 0.50 0.50 0.75 1.50 0.75 0.85 0 1.50 0.25 1.50 0.50 0 0.30 0.45 0.50 1 0.50 0.55 0 1 0.15 1 0.40 0 0.60 2.45 1.55 2.80 1.05 0.15 -0.25 0.50 -0.45 0.80 -0.45 0.80 0 -0.50 1.35 -3.60 3.70 -2.80 2.15 -6.25 4.10 -5.75 3.25 0.15 -0.25 -0.05 -0.30 -0.45 -0.15 -0.45 0.15 -0.65 0.50 -0.50 0.75 0.15 0.25 -0.15 0.45 -0.60 0.45 -0.50 0 -0.70 -0.15 -0.55 -0.35z"/>
  <path d="M162.15 85.25 c0 -1.10 0.10 -1.50 0.20 -0.85 0.10 0.60 0.10 1.50 0 2 -0.15 0.45 -0.25 -0.05 -0.20 -1.15z"/>
  <path d="M31.65 82.50 c0 -2.05 0.10 -2.90 0.20 -1.85 0.10 1 0.10 2.70 0 3.75 -0.10 1 -0.20 0.15 -0.20 -1.90z"/>
  <path d="M162.15 81 c0 -1.25 0.10 -1.75 0.20 -1.10 0.10 0.60 0.10 1.60 0 2.25 -0.10 0.60 -0.20 0.10 -0.20 -1.15z"/>
  <path d="M150.05 81.80 c-0.40 -0.50 -0.45 -0.80 -0.05 -1.05 0.25 -0.15 0.50 -0.25 0.55 -0.15 0.20 0.90 0.35 1.90 0.20 1.90 -0.05 0 -0.40 -0.30 -0.70 -0.70z"/>
  <path d="M32.65 71.25 c0 -1.10 0.10 -1.50 0.20 -0.85 0.10 0.60 0.10 1.50 0 2 -0.15 0.45 -0.25 -0.05 -0.20 -1.15z"/>
  <path d="M141.90 66.10 c-0.50 -0.10 -0.90 -0.35 -0.90 -0.60 0 -0.20 -0.35 -0.55 -0.80 -0.70 -0.40 -0.15 -0.60 -0.10 -0.45 0.20 0.15 0.25 -0.80 -0.05 -2.10 -0.70 -3.55 -1.75 -7.65 -3.30 -8.85 -3.35 -0.55 0 -0.80 -0.15 -0.45 -0.25 0.80 -0.35 -2.50 -3.70 -3.60 -3.70 -0.40 0 -0.75 -0.35 -0.75 -0.75 0 -1.05 -1.85 -2.85 -4.05 -3.90 -1 -0.45 -1.95 -1.20 -2.15 -1.60 -0.15 -0.40 -0.70 -0.75 -1.20 -0.75 -0.50 0 -1.40 -0.45 -2 -1 -0.60 -0.55 -1.50 -1 -2.05 -1 -0.55 0 -1.15 -0.20 -1.30 -0.50 -0.15 -0.25 -0.95 -0.50 -1.80 -0.50 -0.80 0 -1.45 -0.20 -1.45 -0.50 0 -0.25 -0.45 -0.50 -1 -0.50 -0.55 0 -1 -0.20 -1 -0.50 0 -0.30 -2.90 -0.50 -7.75 -0.50 -6.80 0 -7.95 0.10 -9.50 1 -1 0.55 -2.55 1 -3.50 1 -0.90 0 -1.85 0.25 -2 0.50 -0.15 0.30 -0.70 0.50 -1.15 0.50 -0.50 0 -1.20 0.45 -1.60 1 -0.40 0.55 -1.20 1 -1.80 1 -0.55 0 -1.75 0.70 -2.60 1.50 -0.90 0.85 -1.85 1.50 -2.15 1.50 -0.35 0 -1.35 0.75 -2.25 1.70 l-1.60 1.65 -0.80 -2.55 c-1 -3.30 -1.80 -11.40 -1.05 -10.80 0.30 0.25 0.90 0.15 1.45 -0.30 0.55 -0.40 1.35 -0.70 1.80 -0.70 0.45 0 1.30 -0.45 1.90 -1 0.60 -0.55 1.40 -1 1.85 -1 0.40 0 0.75 -0.20 0.75 -0.50 0 -0.25 0.45 -0.50 1 -0.50 0.55 0 1 -0.20 1 -0.40 0 -0.60 3.10 -1.60 4.90 -1.60 0.85 0 1.70 -0.20 1.85 -0.50 0.15 -0.25 0.95 -0.50 1.80 -0.50 0.80 0 1.45 -0.20 1.45 -0.50 0 -0.70 18.35 -0.70 18.75 0 0.15 0.25 0.95 0.50 1.80 0.50 0.80 0 1.45 0.25 1.45 0.50 0 0.30 0.90 0.50 1.95 0.50 1.10 0 2.15 0.25 2.30 0.50 0.15 0.30 0.75 0.50 1.30 0.50 0.55 0 1.45 0.45 2.05 1 0.60 0.55 1.55 1 2.15 1 0.55 0 1.35 0.45 1.75 1 0.40 0.55 1.10 1 1.60 1 0.50 0 0.90 0.25 0.90 0.50 0 0.30 0.45 0.50 1 0.50 0.55 0 1 0.35 1 0.75 0 0.45 0.50 1 1.15 1.25 0.60 0.20 2.05 1.45 3.25 2.70 1.20 1.25 2.45 2.30 2.85 2.30 0.40 0 0.75 0.40 0.75 0.90 0 0.50 0.45 1.20 1 1.60 0.55 0.40 1 1.10 1 1.60 0 0.55 0.35 0.90 1 0.90 0.55 0 1 0.35 1 0.75 0 0.95 1 2.75 2.15 3.80 0.45 0.45 0.85 1.40 0.85 2.15 0 0.70 0.25 1.30 0.50 1.30 0.30 0 0.50 0.45 0.50 0.95 0 0.55 0.25 1.05 0.60 1.15 0.90 0.30 0.25 1.20 -0.70 1z"/>
  <path d="M88.50 18 c0.70 -0.20 1.60 -0.40 2 -0.45 0.65 -0.05 0.65 0 0 0.45 -0.40 0.25 -1.30 0.45 -2 0.45 l-1.25 -0.05 1.25 -0.40z"/>
  <path d="M104 18.10 c0 -0.25 0.70 -0.35 1.50 -0.20 0.85 0.10 1.50 0.30 1.50 0.40 0 0.10 -0.65 0.20 -1.50 0.20 -0.80 0 -1.50 -0.20 -1.50 -0.40z"/>
 </g>
 <g fill="#191919">
  <path d="M66.65 133.15 c0.35 -0.35 6.95 -0.20 7.30 0.15 0.10 0.10 -1.55 0.20 -3.70 0.20 -2.15 0 -3.75 -0.15 -3.60 -0.35z"/>
  <path d="M64.50 130 l-3.25 -0.35 3.35 -0.05 c1.85 -0.05 3.50 0.15 3.65 0.40 0.15 0.30 0.15 0.45 -0.10 0.40 -0.20 -0.05 -1.85 -0.20 -3.65 -0.40z"/>
  <path d="M99.50 121.70 c0 -0.70 2.10 -3.70 2.55 -3.70 0.30 0 0.35 -0.20 0.20 -0.50 -0.15 -0.25 -0.10 -0.50 0.20 -0.50 1.05 0 1.05 -2 0.05 -3.95 l-1 -2.05 1.95 0 c1.10 0 2.15 -0.20 2.30 -0.50 0.15 -0.25 0.95 -0.50 1.80 -0.50 0.80 0 1.45 -0.20 1.45 -0.50 0 -0.25 0.45 -0.50 1 -0.50 0.55 0 1 -0.20 1 -0.50 0 -0.25 0.45 -0.50 1 -0.50 0.55 0 1 -0.35 1 -0.75 0 -0.45 0.40 -0.95 0.90 -1.10 1.20 -0.50 7.10 -6.50 7.10 -7.25 0 -0.40 0.45 -1 1 -1.40 0.55 -0.40 1 -1.20 1 -1.85 0 -0.60 0.25 -1.25 0.50 -1.40 0.30 -0.15 0.50 -0.95 0.50 -1.80 0 -0.80 0.25 -1.45 0.50 -1.45 0.30 0 0.50 -1.10 0.50 -2.50 0 -1.35 0.25 -2.50 0.50 -2.50 0.30 0 0.50 -1.10 0.50 -2.50 0 -1.35 -0.20 -2.50 -0.50 -2.50 -0.25 0 -0.50 -0.90 -0.50 -2 0 -1.10 -0.20 -2 -0.45 -2 -0.25 0 -0.55 -1 -0.65 -2.20 -0.15 -2.10 -0.05 -2.25 1.30 -2.50 2.65 -0.55 7.40 -0.35 7 0.25 -0.25 0.40 0.05 0.50 0.95 0.35 0.75 -0.15 1.20 -0.05 1.05 0.15 -0.15 0.25 0 0.45 0.25 0.45 0.30 0 0.55 0.80 0.55 1.75 0 0.95 0.25 1.75 0.50 1.75 0.30 0 0.50 2.55 0.50 6.70 0 3.95 -0.20 6.85 -0.50 7.05 -0.25 0.15 -0.50 0.95 -0.50 1.80 0 0.80 -0.20 1.45 -0.50 1.45 -0.25 0 -0.50 0.65 -0.50 1.45 0 0.85 -0.20 1.65 -0.50 1.80 -0.25 0.15 -0.50 0.75 -0.50 1.30 0 0.55 -0.45 1.45 -1 2.05 -0.55 0.60 -1 1.40 -1 1.75 0 0.35 -0.20 0.65 -0.50 0.65 -0.25 0 -0.50 0.45 -0.50 1 0 0.55 -0.20 1 -0.40 1 -0.25 0 -0.75 0.60 -1.15 1.35 -0.90 1.75 -5.40 6.40 -6.55 6.80 -0.50 0.20 -0.90 0.65 -0.90 1.10 0 0.40 -0.30 0.75 -0.65 0.75 -0.35 0 -1.10 0.40 -1.65 0.90 -1.50 1.30 -3.10 2.10 -4.20 2.10 -0.50 0 -1.20 0.45 -1.50 1 -0.35 0.65 -1.05 1 -2 1 -0.80 0 -1.60 0.25 -1.75 0.50 -0.15 0.30 -1.40 0.50 -2.80 0.50 -1.35 0 -2.45 0.25 -2.45 0.50 0 0.30 -1 0.50 -2.25 0.50 -1.25 0 -2.25 -0.15 -2.25 -0.30z"/>
  <path d="M84.15 120.25 c-0.65 -0.25 -1.15 -0.65 -1.15 -0.85 0 -0.25 -0.45 -0.40 -1 -0.40 -0.55 0 -1 -0.20 -1 -0.50 0 -0.25 -0.65 -0.50 -1.50 -0.50 -1 0 -1.50 -0.25 -1.50 -0.75 0 -0.40 -0.85 -1.10 -1.85 -1.60 -1.05 -0.45 -2.35 -1.25 -2.85 -1.75 -0.55 -0.50 -1.25 -0.90 -1.55 -0.90 -0.25 0 -0.75 -0.50 -1 -1.10 -0.30 -0.65 -1 -1.35 -1.60 -1.65 -0.65 -0.25 -1.15 -0.75 -1.15 -1.05 0 -0.30 -0.65 -1.25 -1.50 -2.10 -0.80 -0.90 -1.50 -1.90 -1.50 -2.25 0 -0.35 -0.45 -0.95 -1 -1.35 -0.55 -0.40 -1 -1.30 -1 -2 0 -0.70 -0.45 -1.60 -1 -2 -0.60 -0.40 -1 -1.30 -1 -2.10 0 -0.75 -0.20 -1.40 -0.50 -1.40 -0.25 0 -0.50 -1.10 -0.50 -2.50 0 -1.35 -0.20 -2.50 -0.50 -2.50 -0.25 0 -0.50 -1.25 -0.50 -2.75 0 -1.50 -0.30 -3.20 -0.60 -3.75 -0.50 -0.80 -0.50 -1.20 0 -2 0.30 -0.55 0.60 -2.45 0.60 -4.25 0 -1.85 0.20 -3.25 0.50 -3.25 0.30 0 0.50 -0.65 0.50 -1.45 0 -0.85 0.25 -1.65 0.50 -1.80 0.30 -0.15 0.50 -1.05 0.50 -2 0 -1.85 1.25 -2.80 1.65 -1.20 0.65 2.35 1.75 3.45 3.65 3.45 2.60 0 4.70 0.60 4.70 1.30 0 0.40 -0.20 0.70 -0.50 0.70 -0.30 0 -0.50 1.35 -0.50 3 0 1.65 -0.20 3 -0.50 3 -0.30 0 -0.50 1.65 -0.50 3.95 0 2.20 0.25 4.15 0.50 4.30 0.30 0.15 0.50 1.30 0.50 2.55 0 1.20 0.25 2.20 0.50 2.20 0.30 0 0.50 0.65 0.50 1.40 0 0.80 0.40 1.70 1 2.10 0.55 0.40 1 1 1 1.35 0 0.35 0.70 1.35 1.50 2.25 0.85 0.85 1.50 1.75 1.50 2 0 0.65 2.05 2.55 3.65 3.35 0.75 0.40 1.35 1.15 1.35 1.65 0 0.65 0.40 0.90 1.40 0.90 0.80 0 1.70 0.40 2.10 1 0.40 0.60 1.30 1 2.10 1 0.75 0 1.40 0.25 1.40 0.50 0 0.30 1 0.50 2.20 0.50 l2.25 0 -1.05 2.40 c-2.25 5.15 -5.10 7.85 -7.25 6.85z"/>
  <path d="M33.05 68 c0 -0.40 0.30 -1.40 0.70 -2.25 0.85 -1.95 0.90 -1.05 0 1.25 -0.35 0.95 -0.70 1.40 -0.70 1z"/>
  <path d="M74.90 65.15 c-0.70 -0.80 -1.65 -2 -2.15 -2.75 -0.45 -0.75 -1 -1.30 -1.20 -1.20 -0.15 0.10 -0.35 -0.30 -0.35 -0.85 -0.15 -1.75 -0.45 -2.70 -1.15 -3.55 -0.35 -0.40 -0.55 -1.05 -0.40 -1.40 0.20 -0.40 0.30 -0.35 0.30 0.20 0.05 0.65 0.45 0.45 1.75 -0.85 0.90 -0.95 1.90 -1.75 2.25 -1.75 0.30 0 1.25 -0.65 2.15 -1.50 0.85 -0.80 2.05 -1.50 2.60 -1.50 0.60 0 1.40 -0.45 1.80 -1 0.40 -0.55 1.10 -1 1.60 -1 0.45 0 1 -0.20 1.15 -0.50 0.15 -0.25 1.10 -0.50 2 -0.50 0.95 0 2.50 -0.45 3.50 -1 1.55 -0.90 2.70 -1 9.50 -1 4.85 0 7.75 0.20 7.75 0.50 0 0.30 0.45 0.50 1 0.50 0.55 0 1 0.25 1 0.50 0 0.30 0.65 0.50 1.45 0.50 0.85 0 1.65 0.25 1.80 0.50 0.15 0.30 0.75 0.50 1.30 0.50 0.55 0 1.45 0.45 2.05 1 0.60 0.55 1.50 1 2 1 0.50 0 1.05 0.35 1.20 0.75 0.20 0.40 1.15 1.15 2.15 1.60 2.20 1.05 4.05 2.85 4.05 3.90 0 0.40 0.35 0.75 0.75 0.75 0.45 0 1.55 0.80 2.50 1.75 l1.75 1.75 -1.25 0.30 c-0.75 0.20 -2.10 0.20 -3.10 0.05 -1.50 -0.25 -1.95 -0.10 -2.85 0.95 -0.55 0.75 -1.65 2 -2.40 2.90 l-1.35 1.55 -0.05 -1.60 c0 -1.30 -0.20 -1.65 -1 -1.65 -0.55 0 -1 -0.20 -1 -0.50 0 -0.25 -0.45 -0.50 -1 -0.50 -0.65 0 -1 -0.35 -1 -1 0 -0.65 -0.35 -1 -0.90 -1 -0.50 0 -1.20 -0.45 -1.60 -1 -0.40 -0.60 -1.30 -1 -2.10 -1 -0.75 0 -1.40 -0.20 -1.40 -0.50 0 -0.25 -0.90 -0.50 -2 -0.50 -1.10 0 -2 -0.20 -2 -0.50 0 -0.25 -0.55 -0.50 -1.20 -0.50 -0.70 0 -1.40 -0.20 -1.55 -0.50 -0.15 -0.25 -2.10 -0.50 -4.30 -0.50 -2.30 0 -3.95 0.20 -3.95 0.50 0 0.30 -0.65 0.50 -1.50 0.50 -0.80 0 -1.50 0.25 -1.50 0.50 0 0.30 -0.80 0.50 -1.75 0.50 -1.90 0 -3.50 0.70 -4.80 2.15 -0.45 0.45 -1.15 0.85 -1.50 0.85 -0.40 0 -1.05 0.45 -1.45 1 -0.40 0.55 -0.95 1 -1.25 1 -0.25 0 -1.15 0.55 -1.95 1.25 -1 0.85 -1.35 1.55 -1.15 2.25 0.35 1.30 0.30 1.25 -1.25 -0.35z"/>
  <path d="M67.90 49.50 c0.10 -0.80 0.30 -1.50 0.40 -1.50 0.10 0 0.20 0.70 0.20 1.50 0 0.85 -0.20 1.50 -0.40 1.50 -0.25 0 -0.35 -0.65 -0.20 -1.50z"/>
  <path d="M141.45 35.20 c-0.65 -0.70 -0.85 -1.15 -0.45 -0.95 0.65 0.25 2.30 2.25 1.85 2.25 -0.10 0 -0.70 -0.55 -1.40 -1.30z"/>
  <path d="M117 20.75 c-0.70 -0.40 -1 -0.70 -0.75 -0.70 0.30 0 1.05 0.30 1.75 0.70 0.70 0.40 1.05 0.70 0.75 0.70 -0.25 0 -1.05 -0.30 -1.75 -0.70z"/>
  <path d="M93.50 17.55 c1.50 -0.15 4.55 -0.15 6.75 0 3.30 0.25 2.85 0.30 -2.75 0.30 -4.20 0 -5.70 -0.10 -4 -0.30z"/>
 </g>
 <g fill="#101010">
  <path d="M49.20 127.90 l-1.45 -1.65 1.65 1.45 c0.85 0.85 1.60 1.55 1.60 1.65 0 0.40 -0.40 0.05 -1.80 -1.45z"/>
  <path d="M88 110.55 c0 -0.30 -0.65 -0.55 -1.40 -0.55 -0.80 0 -1.70 -0.40 -2.10 -1 -0.40 -0.60 -1.30 -1 -2.10 -1 -1 0 -1.40 -0.25 -1.40 -0.90 0 -0.50 -0.60 -1.25 -1.35 -1.65 -1.60 -0.80 -3.65 -2.70 -3.65 -3.35 0 -0.25 -0.65 -1.15 -1.50 -2 -0.80 -0.90 -1.50 -1.90 -1.50 -2.25 0 -0.35 -0.45 -0.95 -1 -1.35 -0.60 -0.40 -1 -1.30 -1 -2.10 0 -0.75 -0.20 -1.40 -0.50 -1.40 -0.25 0 -0.50 -1 -0.50 -2.20 0 -1.25 -0.20 -2.40 -0.50 -2.55 -0.25 -0.15 -0.50 -2.10 -0.50 -4.30 0 -2.30 0.20 -3.95 0.50 -3.95 0.30 0 0.50 -1.35 0.50 -3 0 -1.65 0.20 -3 0.50 -3 0.30 0 0.50 -0.35 0.50 -0.80 0 -0.50 0.30 -0.70 0.70 -0.55 0.40 0.15 1.65 0.55 2.80 0.85 1.95 0.55 4.15 1.60 6.70 3.25 0.85 0.55 1.10 1.10 0.90 2 -0.10 0.70 -0.40 1.25 -0.65 1.25 -0.25 0 -0.45 1.60 -0.45 3.50 0 2 0.20 3.50 0.50 3.50 0.30 0 0.50 0.70 0.50 1.50 0 0.85 0.25 1.50 0.50 1.50 0.30 0 0.50 0.40 0.50 0.90 0 0.50 0.45 1.20 1 1.60 0.55 0.40 1 1.10 1 1.60 0 0.55 0.35 0.90 0.90 0.90 0.50 0 1.20 0.45 1.60 1 0.40 0.55 1.10 1 1.60 1 0.50 0 0.90 0.25 0.90 0.50 0 0.30 0.45 0.50 1 0.50 0.55 0 1 0.25 1 0.50 0 0.30 0.45 0.50 1 0.50 0.80 0 1 0.35 1.10 1.65 0.15 3.05 -0.20 6.25 -0.85 8.15 -0.60 1.85 -0.80 1.95 -2.95 2.10 -1.40 0.10 -2.30 -0.05 -2.30 -0.35z"/>
  <path d="M100.80 108.30 c-1.50 -5.15 -0.85 -9.30 1.40 -9.30 0.45 0 0.80 -0.20 0.80 -0.50 0 -0.25 0.45 -0.50 1 -0.50 0.55 0 1.25 -0.45 1.60 -1 0.35 -0.55 0.95 -1 1.30 -1 0.90 0 2.10 -1.25 2.10 -2.20 0 -0.45 0.40 -0.80 1 -0.80 0.75 0 1 -0.35 1 -1.40 0 -0.80 0.40 -1.70 1 -2.10 0.90 -0.65 1 -1.30 1 -6.10 0 -3.25 -0.20 -5.40 -0.50 -5.40 -0.95 0 -0.50 -0.80 1 -1.70 0.85 -0.45 1.35 -1.10 1.20 -1.40 -0.25 -0.35 -0.10 -0.40 0.25 -0.20 0.65 0.45 3.65 -0.60 3.35 -1.15 -0.10 -0.15 0.50 -0.30 1.35 -0.30 0.90 -0.05 2.15 -0.15 2.85 -0.25 1.15 -0.25 1.25 -0.10 1.40 1.90 0.10 1.15 0.35 2.10 0.65 2.10 0.25 0 0.45 0.90 0.45 2 0 1.10 0.25 2 0.50 2 0.30 0 0.50 1.15 0.50 2.50 0 1.40 -0.20 2.50 -0.50 2.50 -0.25 0 -0.50 1.15 -0.50 2.50 0 1.40 -0.20 2.50 -0.50 2.50 -0.25 0 -0.50 0.65 -0.50 1.45 0 0.85 -0.20 1.65 -0.50 1.80 -0.25 0.15 -0.50 0.80 -0.50 1.40 0 0.65 -0.45 1.45 -1 1.85 -0.55 0.40 -1 1 -1 1.40 0 0.75 -5.90 6.75 -7.10 7.25 -0.50 0.15 -0.90 0.65 -0.90 1.10 0 0.40 -0.45 0.75 -1 0.75 -0.55 0 -1 0.25 -1 0.50 0 0.30 -0.45 0.50 -1 0.50 -0.55 0 -1 0.25 -1 0.50 0 0.30 -0.65 0.50 -1.45 0.50 -0.85 0 -1.65 0.25 -1.80 0.50 -0.15 0.30 -1.20 0.50 -2.25 0.50 -1.90 0 -1.95 -0.05 -2.70 -2.70z"/>
  <path d="M82.30 71.60 c-1.35 -0.70 -3.60 -2.45 -5 -3.80 -1.40 -1.35 -2.15 -2.20 -1.70 -1.85 0.70 0.50 0.80 0.45 0.55 -0.45 -0.20 -0.70 0.15 -1.40 1.15 -2.25 0.80 -0.70 1.70 -1.25 1.95 -1.25 0.30 0 0.85 -0.45 1.25 -1 0.40 -0.55 1.05 -1 1.45 -1 0.35 0 1.05 -0.40 1.50 -0.85 1.30 -1.45 2.90 -2.15 4.80 -2.15 0.95 0 1.75 -0.20 1.75 -0.50 0 -0.25 0.70 -0.50 1.50 -0.50 0.85 0 1.50 -0.20 1.50 -0.50 0 -0.30 1.65 -0.50 3.95 -0.50 2.20 0 4.15 0.25 4.30 0.50 0.15 0.30 0.85 0.50 1.55 0.50 0.65 0 1.20 0.25 1.20 0.50 0 0.30 0.90 0.50 2 0.50 1.10 0 2 0.25 2 0.50 0 0.30 0.65 0.50 1.40 0.50 0.80 0 1.70 0.40 2.10 1 0.40 0.55 1.10 1 1.60 1 0.55 0 0.90 0.35 0.90 1 0 0.65 0.35 1 1 1 0.55 0 1 0.25 1 0.50 0 0.30 0.45 0.50 1 0.50 0.80 0 1 0.35 1 1.55 0 1.30 0.10 1.45 0.70 1 0.55 -0.45 0.80 -0.45 1.10 0 0.20 0.35 0.15 0.45 -0.10 0.30 -0.30 -0.15 -1.60 0.75 -2.95 2 -3.90 3.55 -8.75 5.55 -8.75 3.60 0 -0.25 -0.45 -0.45 -1 -0.45 -0.55 0 -1 -0.20 -1 -0.50 0 -0.25 -0.40 -0.50 -0.90 -0.50 -0.50 0 -1.20 -0.45 -1.60 -1 -0.65 -0.90 -1.30 -1 -6.50 -1 -5.20 0 -5.85 0.10 -6.50 1 -0.40 0.55 -1.10 1 -1.60 1 -0.55 0 -0.90 0.35 -0.90 1 0 0.65 -0.35 1 -1 1 -0.55 0 -1 0.25 -1 0.50 0 0.80 -1.05 0.55 -3.70 -0.90z"/>
  <path d="M53.95 33.35 c1.30 -1.40 1.55 -1.60 1.55 -0.95 0 0.20 -0.65 0.80 -1.40 1.30 l-1.35 0.95 1.20 -1.30z"/>
 </g>
 <g fill="#080808">
  <path d="M76 132.80 c0 -0.10 0.65 -0.30 1.45 -0.40 0.85 -0.10 1.40 -0.05 1.25 0.20 -0.25 0.40 -2.70 0.60 -2.70 0.20z"/>
  <path d="M101 111.55 c-0.30 -0.55 -0.30 -1.10 -0.05 -1.25 0.25 -0.15 0.55 0.25 0.65 0.95 0.30 1.50 0.10 1.60 -0.60 0.30z"/>
  <path d="M99.55 104 c-0.30 -0.70 -0.25 -6 0.10 -6 0.20 0 0.35 -0.50 0.35 -1.15 0 -1.65 1.40 -6.10 2.80 -9.05 0.65 -1.35 1.05 -2.65 0.85 -2.95 -0.15 -0.30 -0.05 -0.35 0.20 -0.20 0.30 0.20 0.95 -0.30 1.45 -1.05 0.45 -0.75 2.10 -2.55 3.55 -3.95 3.65 -3.55 4.15 -3.10 4.15 3.95 0 4.60 -0.10 5.25 -1 5.90 -0.60 0.40 -1 1.30 -1 2.10 0 1.05 -0.25 1.40 -1 1.40 -0.60 0 -1 0.35 -1 0.80 0 0.95 -1.20 2.20 -2.10 2.20 -0.35 0 -0.95 0.45 -1.30 1 -0.35 0.55 -1.05 1 -1.60 1 -0.55 0 -1 0.25 -1 0.50 0 0.30 -0.35 0.50 -0.80 0.50 -1.25 0 -2.10 1.20 -2.35 3.30 -0.10 1.05 -0.25 1.85 -0.30 1.70z"/>
  <path d="M94.10 100.65 c-0.10 -1.30 -0.30 -1.65 -1.10 -1.65 -0.55 0 -1 -0.20 -1 -0.50 0 -0.25 -0.45 -0.50 -1 -0.50 -0.55 0 -1 -0.20 -1 -0.50 0 -0.25 -0.40 -0.50 -0.90 -0.50 -0.50 0 -1.20 -0.45 -1.60 -1 -0.40 -0.55 -1.10 -1 -1.60 -1 -0.55 0 -0.90 -0.35 -0.90 -0.90 0 -0.50 -0.45 -1.20 -1 -1.60 -0.55 -0.40 -1 -1.10 -1 -1.60 0 -0.50 -0.20 -0.90 -0.50 -0.90 -0.25 0 -0.50 -0.65 -0.50 -1.50 0 -0.80 -0.20 -1.50 -0.50 -1.50 -0.30 0 -0.50 -1.50 -0.50 -3.50 0 -1.90 0.20 -3.50 0.45 -3.50 0.25 0 0.55 -0.55 0.65 -1.25 0.20 -0.85 -0.05 -1.45 -0.80 -2 -0.60 -0.45 -0.70 -0.65 -0.30 -0.45 0.40 0.20 1.75 1.15 3 2.15 1.20 1 2.40 1.80 2.60 1.80 0.25 0 0.35 0.10 0.30 0.25 -0.05 0.15 0.95 1.75 2.20 3.60 1.30 1.85 2.45 3.80 2.65 4.35 0.15 0.60 0.55 1.05 0.80 1.05 0.30 0 0.40 0.20 0.25 0.40 -0.35 0.60 0.75 4.10 1.20 3.85 0.20 -0.10 0.25 0.35 0.10 1.05 -0.15 0.75 -0.05 1.45 0.20 1.65 0.25 0.15 0.30 1.55 0.15 3.05 -0.20 1.70 -0.30 2.15 -0.35 1.15z"/>
  <path d="M89 74.95 c0 -0.20 -0.90 -0.65 -2 -0.95 -1.75 -0.50 -1.95 -0.65 -1.30 -1.25 0.40 -0.40 1.10 -0.75 1.50 -0.75 0.45 0 0.80 -0.40 0.80 -1 0 -0.65 0.35 -1 0.90 -1 0.50 0 1.20 -0.45 1.60 -1 0.65 -0.90 1.30 -1 6.50 -1 5.20 0 5.85 0.10 6.50 1 0.40 0.55 1.10 1 1.60 1 0.50 0 0.90 0.25 0.90 0.50 0 0.30 0.45 0.50 1 0.50 0.55 0 1 0.20 1 0.45 0 1 1.65 1 3.65 0 1.30 -0.60 1.70 -0.70 1.15 -0.20 -0.55 0.40 -1.20 0.75 -1.45 0.75 -0.20 0 -0.30 0.20 -0.15 0.40 0.10 0.20 -0.15 0.40 -0.60 0.45 -1.30 0.10 -5.60 1.75 -5.60 2.10 0 0.20 -3.60 0.40 -8 0.40 -4.40 0 -8 -0.15 -8 -0.40z"/>
  <path d="M147.30 72 c-1.05 -1.10 -1.70 -2 -1.40 -2 0.45 0 3.60 3.25 3.60 3.75 0 0.45 -0.20 0.25 -2.20 -1.75z"/>
  <path d="M128.15 71.65 c0.75 -0.10 1.85 -0.10 2.50 0 0.60 0.10 0 0.20 -1.40 0.20 -1.35 0 -1.90 -0.10 -1.10 -0.20z"/>
  <path d="M122.45 61.35 c0.25 -0.25 1.40 -0.35 2.60 -0.25 l2.20 0.15 -2.60 0.25 c-1.45 0.15 -2.40 0.05 -2.20 -0.15z"/>
  <path d="M67.65 47 c0 -1.50 0.10 -2.15 0.20 -1.35 0.10 0.75 0.10 1.95 0 2.75 -0.10 0.75 -0.20 0.10 -0.20 -1.40z"/>
  <path d="M75.50 26.85 c0 -0.10 0.75 -0.80 1.65 -1.65 l1.60 -1.45 -1.45 1.65 c-1.40 1.50 -1.80 1.85 -1.80 1.45z"/>
 </g>
 <g fill="#000000">
  <path d="M81 125.85 c0 -0.10 0.75 -0.70 1.65 -1.35 1 -0.75 1.35 -0.85 0.90 -0.30 -0.65 0.80 -2.55 2.05 -2.55 1.65z"/>
  <path d="M93 125.85 c0 -0.10 0.75 -0.70 1.65 -1.35 1 -0.75 1.35 -0.85 0.90 -0.30 -0.65 0.80 -2.55 2.05 -2.55 1.65z"/>
  <path d="M100.25 118.65 c1.35 -1.75 2.50 -3.15 2.60 -3.15 0.40 0 -2.75 4.30 -3.85 5.25 -0.65 0.55 -0.05 -0.40 1.25 -2.10z"/>
  <path d="M88 119.50 c0.60 -0.80 1.20 -1.50 1.30 -1.50 0.15 0 -0.20 0.70 -0.80 1.50 -0.60 0.85 -1.20 1.50 -1.30 1.50 -0.15 0 0.20 -0.65 0.80 -1.50z"/>
  <path d="M93.05 110.50 c0 -0.40 0.20 -1.20 0.45 -1.75 l0.45 -1 0 1 c0 0.55 -0.20 1.35 -0.45 1.75 -0.45 0.65 -0.50 0.65 -0.45 0z"/>
  <path d="M100.30 109.75 c-0.15 -0.45 -0.30 -1.20 -0.25 -1.65 0 -0.45 0.25 -0.20 0.50 0.60 0.45 1.60 0.30 2.40 -0.25 1.05z"/>
  <path d="M99.60 105.50 c0 -0.95 0.10 -1.35 0.25 -0.85 0.10 0.45 0.10 1.25 0 1.75 -0.15 0.45 -0.25 0.05 -0.25 -0.90z"/>
  <path d="M94.65 100.75 c0 -2.20 0.10 -3.05 0.20 -1.85 0.10 1.15 0.10 2.95 0 4 -0.10 1 -0.20 0.05 -0.20 -2.15z"/>
  <path d="M99.15 100.75 c0 -1.35 0.10 -1.90 0.20 -1.10 0.10 0.75 0.10 1.85 0 2.50 -0.10 0.60 -0.20 0 -0.20 -1.40z"/>
  <path d="M99.55 96.50 c-0.05 -2.30 1.95 -7.90 4 -11.30 1.85 -3.05 6.25 -7.50 9.10 -9.15 2.70 -1.65 2.25 -1 -0.75 1.10 -5.90 4.05 -10 10.45 -11.65 18.05 -0.55 2.45 -0.70 2.70 -0.70 1.30z"/>
  <path d="M93.65 94.15 c-0.30 -1.35 -0.75 -2.85 -0.95 -3.35 -0.25 -0.65 -0.20 -0.85 0.15 -0.65 0.60 0.40 1.85 5 1.55 5.85 -0.10 0.30 -0.40 -0.55 -0.75 -1.85z"/>
  <path d="M90.75 86.60 c-2.05 -3.95 -7.70 -9.45 -11.75 -11.45 -1.80 -0.90 -2.90 -1.60 -2.45 -1.65 1.35 0 6.60 3.45 9.60 6.40 2.90 2.85 6.60 8.20 6.25 9.10 -0.10 0.25 -0.80 -0.80 -1.65 -2.40z"/>
  <path d="M92.90 76.05 c-4.90 -0.55 -3.55 -0.80 4.10 -0.80 4.10 0 7.15 0.15 6.85 0.30 -1 0.50 -7.90 0.85 -10.95 0.50z"/>
  <path d="M86.50 74.30 c-3.70 -1.40 -4.65 -1.85 -4.40 -2.10 0.15 -0.15 1.25 0.20 2.45 0.75 1.20 0.50 2.75 1.20 3.45 1.45 1.85 0.75 0.55 0.65 -1.50 -0.10z"/>
  <path d="M106 74.45 c0.70 -0.30 2.45 -1.10 3.90 -1.75 1.40 -0.65 2.60 -1.10 2.60 -0.95 0 0.40 -4.70 2.60 -6.25 2.90 -1.45 0.30 -1.45 0.30 -0.25 -0.20z"/>
  <path d="M116 74.25 c0.70 -0.40 1.50 -0.70 1.75 -0.70 0.30 0 -0.05 0.30 -0.75 0.70 -0.70 0.40 -1.45 0.70 -1.75 0.70 -0.25 0 0.05 -0.30 0.75 -0.70z"/>
  <path d="M71.50 72.50 l-1.25 -0.40 1.25 0 c0.70 0 1.70 0.15 2.25 0.40 l1 0.45 -1 -0.05 c-0.55 0 -1.55 -0.20 -2.25 -0.40z"/>
  <path d="M120.75 72.50 c0.95 -0.40 3.65 -0.70 3.20 -0.30 -0.10 0.10 -1.10 0.30 -2.20 0.45 -1.40 0.25 -1.70 0.20 -1 -0.15z"/>
  <path d="M134.50 72.50 c-1 -0.30 -1.05 -0.40 -0.25 -0.40 0.55 0 1.45 0.15 2 0.40 1.25 0.55 -0.05 0.55 -1.75 0z"/>
  <path d="M78.10 69.50 c-2.20 -1.80 -5.05 -5.10 -6.35 -7.50 -0.65 -1.15 -0.05 -0.50 2.40 2.65 1.25 1.60 3.30 3.70 4.55 4.70 2.10 1.65 2.60 2.15 2.10 2.15 -0.10 0 -1.30 -0.90 -2.70 -2z"/>
  <path d="M114.75 69.90 c1.10 -0.90 2.95 -2.65 4.15 -3.90 2.05 -2.10 2.10 -2.10 0.85 -0.40 -1.25 1.75 -4.65 4.80 -6.25 5.60 -0.40 0.20 0.15 -0.35 1.25 -1.30z"/>
  <path d="M70.20 59.20 c-0.40 -1 -0.65 -1.90 -0.55 -2 0.10 -0.10 0.55 0.70 1 1.80 0.95 2.50 0.60 2.65 -0.45 0.20z"/>
  <path d="M60.15 54.25 c0 -2.20 0.10 -3.05 0.20 -1.85 0.10 1.15 0.10 2.95 0 4 -0.10 1 -0.20 0.05 -0.20 -2.15z"/>
 </g>
</svg>