<?xml version="1.0" encoding="utf-8"?>
<!DOCTYPE svg PUBLIC "-//W3C//DTD SVG 1.0//EN" "http://www.w3.org/TR/2001/REC-SVG-20010904/DTD/svg10.dtd">
<svg version="1.0" xmlns="http://www.w3.org/2000/svg" width="333px" height="300px" viewBox="0 0 333 300" preserveAspectRatio="xMidYMid meet">
 <g fill="#ffffff">
  <path d="M0 150 l0 -150 166.50 0 166.50 0 0 150 0 150 -166.50 0 -166.50 0 0 -150z m60.05 102 c3.10 -1.05 7.15 -3.75 9.55 -6.30 0.70 -0.80 2.15 -3.15 3.25 -5.20 l1.90 -3.75 0.15 -20.60 0.15 -20.55 -1.10 -1.05 c-1.45 -1.30 -2.05 -1.30 -3.25 0 -0.85 0.95 -0.95 1.90 -0.95 11.15 l0 10.05 -1.70 0.15 c-1.20 0.15 -2.95 -0.40 -5.60 -1.65 -4.55 -2.10 -8.35 -2.70 -11.80 -1.75 -8.25 2.25 -14.25 8.45 -16.45 17 -0.70 2.70 -0.70 3.30 0.05 6.15 1.20 4.75 3.15 8.35 6.20 11.30 5.60 5.40 12.90 7.30 19.60 5.05z m47.20 0.20 c3.80 -0.95 6.35 -2.50 9.40 -5.55 4.10 -4.05 6.35 -9 6.35 -13.90 0 -2.80 -1.75 -8.55 -3.20 -10.70 -2.95 -4.25 -7.30 -7.45 -12.50 -9.20 -5.45 -1.85 -11.25 -0.35 -17.50 4.50 -2.55 2 -5.95 7 -6.80 10.10 -0.75 2.65 -0.60 8.60 0.20 11 2 5.60 7.85 11.45 13.40 13.40 3.75 1.35 6.60 1.45 10.65 0.35z m48.35 0.10 c3.10 -0.70 7.40 -3.20 8.55 -4.95 0.60 -0.95 0.60 -1.30 0.10 -2 -0.90 -1.20 -1.90 -1.05 -5.15 0.80 -2.70 1.50 -3.10 1.60 -8.10 1.60 -4.40 0 -5.65 -0.20 -7.55 -1.10 -2.95 -1.40 -6.15 -5 -7.15 -8 -1.25 -3.65 -1.05 -9.85 0.40 -12.90 2.60 -5.60 7.75 -8.75 14.25 -8.75 3.95 0 5.95 0.60 8.95 2.55 2.60 1.75 3.30 1.80 4.30 0.35 0.75 -1.05 0.70 -1.20 -0.50 -2.45 -2.20 -2.30 -8.35 -5.10 -11.60 -5.35 -10.10 -0.75 -20.70 8.90 -21.50 19.45 -0.60 8.60 5.90 17.65 14.70 20.45 3.50 1.15 6.45 1.20 10.30 0.30z m21.45 -1.85 c0.20 -0.65 0.35 -4.55 0.40 -8.60 0.05 -6.55 0.15 -7.40 0.95 -7.70 0.45 -0.15 1.45 -0.75 2.20 -1.25 2.05 -1.40 4.95 -1.20 6.40 0.50 2.95 3.45 11.65 13.20 14.55 16.30 l3.20 3.40 1.20 -0.95 c1.45 -1.15 1.20 -2.20 -1.05 -4.65 -0.90 -0.95 -2.45 -2.65 -3.40 -3.80 -0.95 -1.10 -4.05 -4.65 -6.85 -7.85 -6.15 -6.90 -6.50 -8 -3 -10.15 4.05 -2.55 14.10 -9.30 14.80 -9.95 0.80 -0.75 0.35 -2.55 -0.75 -2.95 -1.15 -0.45 -2.50 0.35 -17.45 10.10 -1.90 1.25 -4.30 2.80 -5.30 3.45 -1 0.65 -2.50 1.15 -3.60 1.15 l-1.85 0 0 -14.85 c0 -8.65 -0.20 -15.70 -0.50 -16.75 -0.65 -2.35 -2.20 -2.95 -3.70 -1.45 -1.05 1.05 -1.05 1.45 -1.20 20.20 -0.10 10.50 -0.05 23 0.15 27.75 0.35 7.85 0.45 8.75 1.40 9.65 0.90 0.80 1.15 0.85 2.05 0.25 0.55 -0.35 1.20 -1.20 1.35 -1.85z m64.95 1.10 c3.55 -1.30 6.60 -3.80 6.40 -5.20 -0.25 -1.50 -1.65 -2.25 -2.95 -1.45 -4.05 2.55 -5.15 2.85 -10.20 2.85 -3.85 0 -5.55 -0.20 -7.25 -0.95 -4.45 -1.95 -7.50 -5.80 -7.50 -9.55 l0 -2.25 16.40 0 16.45 0 1.15 -1.25 c1 -1.05 1.10 -1.55 0.80 -3.60 -0.35 -2.85 -2.80 -7.90 -5.10 -10.55 -2.10 -2.50 -7.30 -5.90 -10.50 -6.85 -3.25 -1 -5.80 -0.95 -9.45 0.15 -7.10 2.20 -12.30 7.25 -14.75 14.35 -2.20 6.35 -0.40 13.20 4.90 18.90 2.85 3 5.05 4.45 8.95 5.85 3.55 1.25 8.55 1.10 12.65 -0.45z m24.55 0.15 c0.55 -0.65 0.75 -3.70 1 -12.40 0.30 -13.20 0.70 -14.70 4.55 -18.30 3.90 -3.60 10.20 -4.95 16.20 -3.45 2.10 0.55 2.35 0.50 3.35 -0.50 l1.10 -1.10 -1.65 -1.40 c-4.05 -3.45 -10.05 -3.35 -17 0.15 -2.90 1.45 -6.60 1.80 -6.60 0.60 0 -0.40 -0.50 -1.35 -1.15 -2.05 l-1.15 -1.35 -1.20 1 -1.25 1 -0.15 18.50 c-0.10 16.45 -0.05 18.60 0.65 19.30 1.05 1.05 2.45 1 3.30 0z m-108.80 -80.70 c3.60 -0.50 7.40 -1.15 8.50 -1.40 1.10 -0.30 3.60 -0.85 5.50 -1.25 5.70 -1.15 15.45 -4.65 21.70 -7.80 7.65 -3.80 11.55 -6.30 19.05 -12.30 1.85 -1.45 10.55 -10.25 12.15 -12.25 5.90 -7.45 9.10 -12.55 13 -20.55 l2.85 -5.80 5.15 -0.35 c5.80 -0.40 7.30 -0.80 11.85 -2.95 4.05 -2 8.75 -6.65 10.90 -10.75 l1.50 -3.05 -1.05 -0.70 c-0.60 -0.35 -2.45 -1.30 -4.05 -2.05 -3.45 -1.60 -10.30 -2.45 -16.05 -2 -4.10 0.35 -4.30 0.20 -5.25 -3.65 -1 -4.35 -4.95 -9.85 -10.45 -14.50 l-3.20 -2.70 -1.95 2.90 c-2.50 3.80 -4.40 9.80 -4.75 15.15 -0.25 3.95 -0.15 4.65 1.35 8.75 0.90 2.50 1.75 5.35 1.85 6.40 0.25 1.80 0.20 1.90 -2 2.85 -1.20 0.55 -3.75 1.20 -5.65 1.50 -2.15 0.30 -29.10 0.50 -71.75 0.50 -61.85 0 -68.35 0.10 -68.65 0.80 -0.55 1.45 -0.30 11.90 0.45 16.45 2.05 12.90 8.20 24.95 17.20 33.65 5.35 5.15 12.45 9.55 18.90 11.65 1.85 0.60 4.40 1.40 5.65 1.85 7.95 2.65 24.80 3.40 37.25 1.60z m-47.75 -80.25 l0 -7.75 -8.50 0 -8.50 0 0 7.75 0 7.75 8.50 0 8.50 0 0 -7.75z m23.90 0.15 l-0.15 -7.65 -8.35 -0.15 -8.40 -0.10 0 7.75 0 7.75 8.50 0 8.55 0 -0.15 -7.60z m24.35 -0.15 l0 -7.50 -8.50 0 -8.50 0 -0.15 7.35 c-0.10 6.65 -0.05 7.35 0.75 7.55 0.50 0.15 4.40 0.20 8.65 0.15 l7.75 -0.05 0 -7.50z m23.75 0 l0 -7.75 -8.50 0 -8.50 0 0 7.75 0 7.75 8.50 0 8.50 0 0 -7.75z m23.90 0.15 l-0.15 -7.65 -8.50 0 -8.50 0 -0.15 7 c-0.05 3.80 0 7.25 0.10 7.60 0.20 0.50 2.25 0.65 8.80 0.65 l8.55 0 -0.15 -7.60z m-72 -22.25 l0.15 -7.65 -8.55 0 -8.50 0 0 7.75 0 7.75 8.40 -0.10 8.35 -0.15 0.15 -7.60z m23.95 7.20 c0.20 -0.25 0.40 -3.60 0.40 -7.50 l0 -7.10 -8.60 -0.15 -8.65 -0.10 0 7.45 c0 5.50 0.15 7.55 0.65 7.75 0.95 0.40 15.75 0.10 16.20 -0.35z m24.05 -7.20 l0.15 -7.65 -8.55 0 -8.50 0 0 7.40 c0 4.10 0.15 7.60 0.35 7.80 0.20 0.15 3.95 0.25 8.35 0.20 l8.05 -0.15 0.15 -7.60z m0.10 -22.40 l0 -7.75 -8.50 0 -8.50 0 0 7.75 0 7.75 8.50 0 8.50 0 0 -7.75z"/>
  <path d="M48.45 247.35 c-3.60 -1.35 -6.10 -3.70 -8.15 -7.55 -1.15 -2.10 -1.30 -3.05 -1.30 -7.05 0 -4.15 0.15 -4.90 1.55 -7.70 2.80 -5.60 7.90 -8.30 14.85 -7.95 6 0.30 10.40 3.10 12.85 8.15 1.25 2.50 1.35 3.10 1.15 7.85 -0.20 5.80 -0.85 7.70 -3.80 10.65 -3.10 3.10 -5.20 3.90 -10.60 4.10 -3.15 0.10 -5.35 -0.05 -6.55 -0.50z"/>
  <path d="M97.50 247.55 c-4.05 -1.30 -7.35 -4.25 -9.05 -7.95 -0.95 -2 -1.05 -3 -0.85 -7.85 0.20 -4.90 0.35 -5.75 1.55 -7.60 5.15 -8.15 17.05 -9.70 24.45 -3.20 2.95 2.60 4.15 5.95 4.15 11.80 0 4.45 -0.15 5.25 -1.35 7.50 -2.75 5.25 -6.50 7.40 -13.15 7.60 -2.45 0.05 -5.05 -0.05 -5.75 -0.30z"/>
  <path d="M220.50 227.90 c0 -2.40 1 -4.35 3.55 -6.80 2.15 -2.15 3.50 -2.85 7 -3.60 5.70 -1.25 11.30 0.10 14.95 3.60 2.50 2.45 3.50 4.40 3.50 6.80 l0 2.10 -14.50 0 -14.50 0 0 -2.10z"/>
 </g>
 <g fill="#006eb5">
  <path d="M172.85 254.10 c-0.75 -0.45 -1.55 -1.40 -1.75 -2.10 -0.20 -0.70 -0.35 -14.05 -0.35 -29.65 l0 -28.45 1.40 -1.20 c2.50 -2.15 5.45 -1.30 6.35 1.85 0.30 0.95 0.50 8.40 0.50 16.55 0 8.20 0.15 14.90 0.35 14.90 0.20 0 1.15 -0.50 2.10 -1.15 1 -0.65 3.40 -2.20 5.30 -3.45 18.15 -11.80 18.40 -11.95 20.65 -9.90 1.35 1.30 1.90 3.25 1.25 4.65 -0.45 1 -6.15 5.05 -14.80 10.55 l-2.90 1.85 3.40 3.85 c1.85 2.10 4.40 5 5.65 6.35 2.90 3.25 7.45 8.50 8.30 9.60 0.80 1.10 0.90 2.85 0.20 4.20 -0.70 1.25 -3.30 2.55 -4.50 2.20 -0.90 -0.30 -6.05 -5.75 -14 -14.75 -6.60 -7.45 -5.85 -6.85 -7.15 -6.05 -0.60 0.40 -1.70 1.05 -2.45 1.45 l-1.40 0.65 0 6.90 c0 8.75 -0.25 9.90 -2.20 11.10 -1.90 1.15 -2.20 1.15 -3.95 0.05z"/>
  <path d="M48.75 254 c-5.60 -1.40 -11.50 -6.10 -13.90 -11 -1.55 -3.25 -2.85 -8 -2.85 -10.50 0 -5.25 3.15 -12.20 7.30 -15.95 5 -4.60 9.75 -6.30 16.35 -5.95 3.55 0.20 4.80 0.50 8.10 2.05 2.15 1.05 4 1.75 4.10 1.65 0.15 -0.15 0.30 -4.75 0.30 -10.30 l0.10 -10.10 1.40 -1.20 c0.75 -0.65 1.85 -1.20 2.45 -1.20 1.45 0 3.90 1.60 4.20 2.75 0.15 0.55 0.20 10.70 0.10 22.50 l-0.15 21.50 -1.90 3.75 c-2.20 4.25 -3.50 5.80 -7.15 8.55 -3.70 2.75 -7.75 3.95 -12.80 3.90 -2.30 -0.05 -4.80 -0.20 -5.65 -0.45z m11.50 -8.90 c2.50 -1.25 5.40 -4.15 6.55 -6.55 0.55 -1 1 -3.35 1.10 -5.45 0.20 -3.15 0.05 -3.95 -1.15 -6.35 -1.40 -2.90 -4.20 -5.65 -7.20 -7.05 -8.40 -4 -19.05 3.25 -19.05 13.05 0 5.65 3.90 11 9.45 13.10 2.50 0.95 7.80 0.55 10.30 -0.75z"/>
  <path d="M95.10 253.35 c-5.55 -1.95 -11.40 -7.80 -13.40 -13.40 -0.80 -2.40 -0.95 -11.25 -0.20 -14 1.35 -4.90 6 -10.30 11.20 -13 9.80 -5.15 22 -1.90 28.60 7.60 3.95 5.70 4.20 16.85 0.55 23.10 -1.60 2.65 -5.50 6.60 -8.10 8.10 -4.85 2.90 -13.10 3.60 -18.65 1.60z m13.50 -8.35 c2.95 -1.50 4.75 -3.30 6.30 -6.25 2.65 -5 1.30 -12.70 -2.80 -16.30 -2.55 -2.25 -6.45 -3.95 -9.10 -3.95 -4.60 0 -9.70 2.95 -12.35 7.15 -1.85 2.95 -2.20 9.15 -0.75 12.45 1.75 3.70 5.05 6.65 9.10 7.95 2.15 0.70 7.30 0.15 9.60 -1.05z"/>
  <path d="M143.80 253.50 c-6.30 -2 -11.70 -7.40 -13.80 -13.80 -0.95 -2.75 -1.10 -4.10 -0.90 -8.10 0.20 -4.05 0.45 -5.35 1.75 -8.10 1.90 -4.10 4.90 -7.45 8.65 -9.75 4.25 -2.60 7.35 -3.40 12.50 -3.15 3.65 0.10 4.80 0.40 7.70 1.85 6.55 3.20 8.30 6.05 5.70 9.30 -0.90 1.15 -1.35 1.30 -2.85 1.10 -1 -0.10 -2.80 -0.90 -4.05 -1.70 -1.25 -0.85 -3 -1.75 -3.95 -2.10 -5.90 -1.95 -13.35 1.75 -16.35 8.20 -2.20 4.70 -1.30 10.30 2.40 14.50 2.85 3.20 5.75 4.45 10.40 4.50 3.40 0 4.05 -0.20 7.25 -1.90 2.75 -1.50 3.85 -1.85 5.20 -1.65 1.95 0.30 3 1.50 3.05 3.45 0 1.95 -1.20 3.55 -4.05 5.40 -4.65 2.95 -12.80 3.80 -18.65 1.95z"/>
  <path d="M227.85 253.50 c-3.90 -1.40 -6.10 -2.85 -8.95 -5.85 -4.05 -4.35 -5.90 -9.10 -5.90 -15.20 0 -12.25 9.85 -21.95 22.25 -21.95 4.45 0 7.65 1 11.60 3.60 6 3.90 9.65 9.70 10.05 16.15 0.20 3.45 0.15 3.90 -0.90 5 l-1.15 1.25 -16.45 0 c-17.95 0 -17.40 -0.10 -15.55 2.90 2.55 4.15 6.30 6.50 11.20 6.95 3.20 0.30 5.60 -0.35 9 -2.45 2.85 -1.75 4.60 -1.80 6.20 -0.15 2.85 2.80 0.35 7 -5.60 9.25 -4.30 1.65 -11.90 1.90 -15.80 0.50z m20.15 -25.60 c-0.05 -1.60 -2.55 -4.70 -5.35 -6.75 -3.20 -2.30 -6.15 -2.95 -9.85 -2.20 -1.65 0.35 -3.60 0.95 -4.30 1.30 -2.50 1.35 -6.50 6 -6.50 7.65 0 0.45 2.95 0.60 13 0.60 10.10 0 13 -0.15 13 -0.60z"/>
  <path d="M262.60 253.90 c-0.60 -0.30 -1.25 -1.05 -1.40 -1.60 -0.10 -0.60 -0.15 -9.80 -0.10 -20.45 l0.15 -19.45 1.20 -0.95 c1.75 -1.40 4.25 -1.25 5.50 0.35 0.60 0.75 1.05 1.65 1.05 2 0 1 0.70 0.85 3.60 -0.60 3.90 -1.95 6.80 -2.70 10.85 -2.70 6.40 0 10.70 2.15 10.70 5.40 0 3.25 -2.65 4.60 -6.75 3.35 -3.45 -1 -5.85 -0.95 -9 0.25 -3.35 1.25 -6.60 4.30 -8 7.35 -1.10 2.45 -1.30 5.40 -1.35 20.05 -0.05 4.80 -0.15 5.25 -1.30 6.35 -1.30 1.35 -3.20 1.55 -5.15 0.65z"/>
  <path d="M126 172.50 c-2.60 -0.45 -5.75 -1.20 -7 -1.60 -1.25 -0.45 -3.80 -1.25 -5.65 -1.85 -18.30 -5.95 -32.75 -24.10 -36.10 -45.30 -0.75 -4.45 -1.05 -17.95 -0.45 -19.45 0.30 -0.70 6.80 -0.80 68.65 -0.80 66.45 0 74.20 -0.20 75.90 -1.55 0.35 -0.30 0.65 -0.45 0.65 -0.25 0 0.20 0.65 0 1.45 -0.40 l1.45 -0.80 -1.45 -3.70 c-2.75 -7.15 -2.85 -12.95 -0.20 -21.55 1.55 -5.10 5.25 -10.80 6.70 -10.40 1.70 0.45 8.20 6.35 10.80 9.70 2.65 3.55 4 6.25 4.50 9.10 0.20 1 0.60 2 0.90 2.20 0.30 0.15 2.80 0.30 5.55 0.25 8.95 -0.10 14.50 1.30 19.15 4.75 l1.65 1.20 -2.10 4.05 c-2.65 5.15 -6.95 9.55 -11.40 11.75 -4.55 2.15 -6.05 2.55 -11.85 2.95 l-5.15 0.35 -2.85 5.80 c-3.90 8 -7.10 13.10 -13 20.55 -1.60 2 -10.30 10.80 -12.15 12.25 -7.50 6 -11.40 8.50 -19.05 12.30 -6.25 3.15 -16 6.65 -21.70 7.80 -1.90 0.40 -4.40 0.95 -5.50 1.25 -9.90 2.40 -32.15 3.20 -41.75 1.40z"/>
  <path d="M91.50 90.75 l0 -9.25 10 0 10 0 0 9.25 0 9.25 -10 0 -10 0 0 -9.25z"/>
  <path d="M115.50 90.75 l0 -9.25 9.90 0.10 9.85 0.15 0.15 9.15 0.10 9.10 -10 0 -10 0 0 -9.25z"/>
  <path d="M140.35 99.65 c-0.80 -0.20 -0.85 -0.95 -0.75 -9.05 l0.15 -8.85 10 0 10 0 0 9 0 9 -9.25 0.05 c-5.10 0.05 -9.65 0 -10.15 -0.15z"/>
  <path d="M163.50 90.75 l0 -9.25 10 0 10 0 0 9.25 0 9.25 -10 0 -10 0 0 -9.25z"/>
  <path d="M187.20 99.35 c-0.10 -0.35 -0.15 -4.45 -0.10 -9.10 l0.15 -8.50 10 0 10 0 0.15 9.15 0.10 9.10 -10 0 c-7.70 0 -10.10 -0.15 -10.30 -0.65z"/>
  <path d="M115.50 68.75 l0 -9.25 10 0 10 0 -0.10 9.15 -0.15 9.10 -9.85 0.15 -9.90 0.10 0 -9.25z"/>
  <path d="M140.15 77.70 c-0.50 -0.20 -0.65 -2.55 -0.65 -9.25 l0 -8.95 10.15 0.10 10.10 0.15 0.05 8.45 c0.05 4.70 0 8.75 -0.15 9.10 -0.15 0.45 -2.65 0.65 -9.55 0.65 -5.15 0 -9.65 -0.15 -9.95 -0.25z"/>
  <path d="M163.85 77.70 c-0.20 -0.20 -0.35 -4.40 -0.35 -9.30 l0 -8.90 10 0 10 0 -0.10 9.15 -0.15 9.10 -9.55 0.15 c-5.20 0.05 -9.65 -0.05 -9.85 -0.20z"/>
  <path d="M163.70 55.55 c-0.10 -0.10 -0.20 -4.35 -0.20 -9.40 l0 -9.15 10 0 10 0 0 9.40 0 9.35 -9.80 0 c-5.40 0 -9.90 -0.10 -10 -0.20z"/>
 </g>
</svg>